<?xml version="1.0" encoding="UTF-8"?>
<svg version="1.1" xmlns="http://www.w3.org/2000/svg" width="540" height="540">
<path d="M0 0 C0.99 0.33 1.98 0.66 3 1 C1.89718873 2.27200971 0.79269231 3.54255853 -0.3125 4.8125 C-0.92738281 5.52019531 -1.54226562 6.22789063 -2.17578125 6.95703125 C-4 9 -4 9 -5.50610352 10.34277344 C-7.30334422 12.33650932 -7.9026772 14.00819528 -8.7265625 16.55859375 C-9.03142578 17.48575195 -9.33628906 18.41291016 -9.65039062 19.36816406 C-10.13282227 20.88748535 -10.13282227 20.88748535 -10.625 22.4375 C-11.33565545 24.6498302 -12.04660389 26.86206631 -12.7578125 29.07421875 C-13.12551758 30.2245459 -13.49322266 31.37487305 -13.87207031 32.56005859 C-14.94068381 35.81909846 -16.07723988 39.0438734 -17.2421875 42.26953125 C-29.021286 75.59818584 -34.25256564 111.72850712 -34 147 C-33.37689941 146.33540771 -32.75379883 145.67081543 -32.11181641 144.98608398 C-25.39260252 137.89358043 -18.13413052 132.35400885 -10 127 C-9.33500488 126.56042969 -8.67000977 126.12085938 -7.98486328 125.66796875 C38.35831137 95.3905734 91.21086542 83.55018463 145.69042969 94.49316406 C169.77327155 99.77815135 194.07627948 110.69812284 212 128 C212 128.66 212 129.32 212 130 C212.99 130.33 213.98 130.66 215 131 C216.71672619 133.07129959 218.27660502 135.11341048 219.8125 137.3125 C220.4789856 138.26310303 220.4789856 138.26310303 221.15893555 139.23291016 C246.8806206 176.64712162 241.33533724 225.23743003 233.66015625 267.51123047 C226.59619794 304.84257821 207.4422916 336.58435089 182.125 364.625 C181.64828857 365.15859131 181.17157715 365.69218262 180.68041992 366.24194336 C179.49600607 367.53478497 178.25239958 368.77290142 177 370 C176.34 370 175.68 370 175 370 C175 370.66 175 371.32 175 372 C163.60071552 382.71637804 149.53712005 391.28016377 136 399 C135.40638672 399.34272949 134.81277344 399.68545898 134.20117188 400.03857422 C112.18557087 412.6594827 85.71311224 422.87163092 60 422 C60.33 425.63 60.66 429.26 61 433 C62.12148438 432.58427734 62.12148438 432.58427734 63.265625 432.16015625 C64.25046875 431.79792969 65.2353125 431.43570312 66.25 431.0625 C67.22453125 430.70285156 68.1990625 430.34320313 69.203125 429.97265625 C73.63683168 428.43076664 77.34325283 427.82017468 82.0625 427.75 C83.10535156 427.72421875 84.14820313 427.6984375 85.22265625 427.671875 C88 428 88 428 89.93359375 429.078125 C91 431 91 431 91.1875 434.390625 C89.72352241 438.84034636 88.33205889 439.60961849 84.30859375 441.66796875 C83.54675781 442.02503906 82.78492188 442.38210938 82 442.75 C81.26910156 443.12253906 80.53820312 443.49507813 79.78515625 443.87890625 C74.6735818 446.42121832 69.45306174 448.32734099 64 450 C64.43207764 450.4854126 64.86415527 450.9708252 65.30932617 451.47094727 C101 491.86733723 101 491.86733723 101 509 C95.06 509 89.12 509 83 509 C82.35933594 507.75605469 81.71867188 506.51210938 81.05859375 505.23046875 C74.82328632 493.20125947 68.37016792 481.70032456 60 471 C58.80423951 478.79756417 58.66396719 486.62818524 58.4375 494.5 C58.39422263 495.90886473 58.35060569 497.31771907 58.30664062 498.7265625 C58.20109473 502.15094058 58.10009544 505.57545827 58 509 C51.07 509 44.14 509 37 509 C36.31552176 503.52417411 35.86092851 498.46083212 35.90234375 493 C35.90446617 491.91827515 35.90446617 491.91827515 35.90663147 490.81469727 C35.91216619 488.54308676 35.92470577 486.27158 35.9375 484 C35.94252346 482.44661602 35.94708488 480.89323048 35.95117188 479.33984375 C35.96211411 475.55985672 35.9793324 471.77994586 36 468 C27.13524629 474.36483659 27.13524629 474.36483659 18.625 481.1875 C18.05233398 481.6609082 17.47966797 482.13431641 16.88964844 482.62207031 C12.98666899 485.95318464 9.65297659 489.51111929 6.3515625 493.44140625 C-7.31817915 509.25523843 -7.31817915 509.25523843 -17.12890625 510.34765625 C-23.48543362 510.52789805 -29.72678487 510.01806428 -36 509 C-33.07461069 504.33766079 -29.78899423 500.41875755 -26 496.4375 C-24.95672975 495.33354448 -23.91503351 494.22809912 -22.875 493.12109375 C-22.38257813 492.59757324 -21.89015625 492.07405273 -21.3828125 491.53466797 C-20.10326464 490.11460478 -18.92115141 488.60836024 -17.75 487.09765625 C-17.1725 486.40542969 -16.595 485.71320313 -16 485 C-15.34 485 -14.68 485 -14 485 C-13.67 484.01 -13.34 483.02 -13 482 C-10.57490972 479.42011672 -7.72569398 477.2533436 -5 475 C-4.43796875 474.53239258 -3.8759375 474.06478516 -3.296875 473.58300781 C31.12567204 445 31.12567204 445 38 445 C38.06058594 443.84242188 38.12117187 442.68484375 38.18359375 441.4921875 C38.26805502 439.95311543 38.35270018 438.41405345 38.4375 436.875 C38.47681641 436.11445313 38.51613281 435.35390625 38.55664062 434.5703125 C38.79509002 430.31490797 39.20230237 426.19629174 40 422 C39.30261719 422.04640625 38.60523438 422.0928125 37.88671875 422.140625 C-6.94666511 423.67339026 -59.427077 405.9249404 -94.015625 377.8828125 C-94.99789062 376.95082031 -94.99789062 376.95082031 -96 376 C-96 375.34 -96 374.68 -96 374 C-96.66 374 -97.32 374 -98 374 C-111.47259254 359.66198051 -119.75901039 341.77350442 -125 323 C-125.19287598 322.34402832 -125.38575195 321.68805664 -125.58447266 321.01220703 C-139.07997597 274.1250399 -130.19591018 225.46516814 -117.52581787 179.65875244 C-116.97737887 177.67403014 -116.43298281 175.6881851 -115.89312744 173.70111084 C-109.84636622 151.54818645 -101.0030046 130.86352369 -89.1171875 111.20703125 C-86.4416009 106.77921594 -83.91293221 102.28378803 -81.41015625 97.7565918 C-75.88829838 87.79716508 -70.10449675 78.2217668 -63.4375 68.99072266 C-61.88398107 66.83933112 -60.34795828 64.67603209 -58.8125 62.51171875 C-22.18171102 11.09085551 -22.18171102 11.09085551 0 0 Z " fill="#FCFCFC" transform="translate(219,31)"/>
<path d="M0 0 C0.99 0.33 1.98 0.66 3 1 C1.8758824 2.29243468 0.75067408 3.58392075 -0.375 4.875 C-1.00148437 5.59429687 -1.62796875 6.31359375 -2.2734375 7.0546875 C-3.47426834 8.4076598 -4.7208345 9.7208345 -6 11 C-7.32 11 -8.64 11 -10 11 C-10.23847656 11.56662354 -10.47695312 12.13324707 -10.72265625 12.71704102 C-12.27594884 15.49319527 -14.14602697 17.31996778 -16.4375 19.52734375 C-17.32783936 20.39536621 -18.21817871 21.26338867 -19.13549805 22.15771484 C-20.55342651 23.5337085 -20.55342651 23.5337085 -22 24.9375 C-29.70940179 32.51556422 -36.87740475 40.0437129 -43 49 C-43.3805957 49.55220215 -43.76119141 50.1044043 -44.15332031 50.67333984 C-46.69073225 54.36778681 -49.15978276 58.10343191 -51.60351562 61.86035156 C-53.12586246 64.19284241 -54.66402201 66.51447241 -56.203125 68.8359375 C-62.91762601 79.00431113 -69.23130362 89.2684558 -75 100 C-75.41958984 100.76828125 -75.83917969 101.5365625 -76.27148438 102.328125 C-87.37517939 122.68760082 -97.21807218 143.47934869 -103 166 C-103.35239746 167.34989014 -103.35239746 167.34989014 -103.71191406 168.72705078 C-107.20790438 182.26179358 -110.07088747 195.92155196 -112.8125 209.625 C-112.9655661 210.3897464 -113.1186322 211.1544928 -113.27633667 211.94241333 C-121.4796283 253.08849336 -120.81926334 309.68083171 -97 346 C-94.77869062 349.09912803 -92.42110259 352.05555864 -90 355 C-89.26910156 355.96873047 -89.26910156 355.96873047 -88.5234375 356.95703125 C-74.37196806 374.77336841 -51.07185454 383.74791129 -30 390 C-29.12746582 390.26409668 -28.25493164 390.52819336 -27.35595703 390.80029297 C-16.31454903 394.11087275 -5.20403771 396.68742971 6.125 398.8125 C7.22666504 399.01955566 8.32833008 399.22661133 9.46337891 399.43994141 C30.47883193 403.20868936 54.00287315 404.34253152 75 400 C75.94625244 399.80664062 75.94625244 399.80664062 76.91162109 399.609375 C92.99629088 396.22724925 107.53488568 389.65241788 122 382 C122.61262695 381.67773438 123.22525391 381.35546875 123.85644531 381.0234375 C136.98901005 374.04210649 148.19513463 365.18797859 159 355 C159.66257812 354.39027344 160.32515625 353.78054688 161.0078125 353.15234375 C175.68959468 339.15412632 187.11111091 321.11414127 196 303 C196.52207031 301.94039063 197.04414063 300.88078125 197.58203125 299.7890625 C204.74449565 284.17904773 209.20541143 266.90813963 212 250 C212.27986453 248.53904652 212.55981784 247.07811005 212.83984375 245.6171875 C218.27092259 215.26540922 218.80298382 177.66700574 200.69921875 151.31640625 C199.85810547 150.16978516 199.85810547 150.16978516 199 149 C198.55269531 148.36964844 198.10539062 147.73929688 197.64453125 147.08984375 C181.02991028 125.70034638 147.55455916 115.80530021 122 112 C120.18822266 111.71382812 120.18822266 111.71382812 118.33984375 111.421875 C101.877239 109.4702696 83.00703734 109.58901533 67 114 C65.98212402 114.2798877 64.96424805 114.55977539 63.91552734 114.84814453 C40.94754816 121.32227427 19.04970951 130.03179767 -2.5 140.25 C-3.99418457 140.95636597 -3.99418457 140.95636597 -5.51855469 141.67700195 C-21.62386014 149.49137023 -39.20027864 160.6471032 -49 176 C-49.66 175.67 -50.32 175.34 -51 175 C-47.1979801 167.5599689 -42.88277903 160.73848381 -38.05078125 153.9453125 C-36.01263181 151.10128155 -36.01263181 151.10128155 -34.46875 148.37890625 C-28.74886712 139.11452148 -18.92091716 132.89669105 -10 127 C-9.33355469 126.55897949 -8.66710937 126.11795898 -7.98046875 125.66357422 C38.3626267 95.39001257 91.21299037 83.55061146 145.69042969 94.49316406 C169.77327155 99.77815135 194.07627948 110.69812284 212 128 C212 128.66 212 129.32 212 130 C212.99 130.33 213.98 130.66 215 131 C216.71672619 133.07129959 218.27660502 135.11341048 219.8125 137.3125 C220.4789856 138.26310303 220.4789856 138.26310303 221.15893555 139.23291016 C246.8806206 176.64712162 241.33533724 225.23743003 233.66015625 267.51123047 C226.59619794 304.84257821 207.4422916 336.58435089 182.125 364.625 C181.64828857 365.15859131 181.17157715 365.69218262 180.68041992 366.24194336 C179.49600607 367.53478497 178.25239958 368.77290142 177 370 C176.34 370 175.68 370 175 370 C175 370.66 175 371.32 175 372 C163.60071552 382.71637804 149.53712005 391.28016377 136 399 C135.40638672 399.34272949 134.81277344 399.68545898 134.20117188 400.03857422 C112.18557087 412.6594827 85.71311224 422.87163092 60 422 C60.33 425.63 60.66 429.26 61 433 C62.12148438 432.58427734 62.12148438 432.58427734 63.265625 432.16015625 C64.25046875 431.79792969 65.2353125 431.43570312 66.25 431.0625 C67.22453125 430.70285156 68.1990625 430.34320313 69.203125 429.97265625 C73.63683168 428.43076664 77.34325283 427.82017468 82.0625 427.75 C83.10535156 427.72421875 84.14820313 427.6984375 85.22265625 427.671875 C88 428 88 428 89.93359375 429.078125 C91 431 91 431 91.1875 434.390625 C89.72352241 438.84034636 88.33205889 439.60961849 84.30859375 441.66796875 C83.54675781 442.02503906 82.78492188 442.38210938 82 442.75 C81.26910156 443.12253906 80.53820312 443.49507813 79.78515625 443.87890625 C74.6735818 446.42121832 69.45306174 448.32734099 64 450 C64.43207764 450.4854126 64.86415527 450.9708252 65.30932617 451.47094727 C101 491.86733723 101 491.86733723 101 509 C95.06 509 89.12 509 83 509 C82.35933594 507.75605469 81.71867188 506.51210938 81.05859375 505.23046875 C74.82328632 493.20125947 68.37016792 481.70032456 60 471 C58.80423951 478.79756417 58.66396719 486.62818524 58.4375 494.5 C58.39422263 495.90886473 58.35060569 497.31771907 58.30664062 498.7265625 C58.20109473 502.15094058 58.10009544 505.57545827 58 509 C51.07 509 44.14 509 37 509 C36.31552176 503.52417411 35.86092851 498.46083212 35.90234375 493 C35.90446617 491.91827515 35.90446617 491.91827515 35.90663147 490.81469727 C35.91216619 488.54308676 35.92470577 486.27158 35.9375 484 C35.94252346 482.44661602 35.94708488 480.89323048 35.95117188 479.33984375 C35.96211411 475.55985672 35.9793324 471.77994586 36 468 C27.13524629 474.36483659 27.13524629 474.36483659 18.625 481.1875 C18.05233398 481.6609082 17.47966797 482.13431641 16.88964844 482.62207031 C12.98666899 485.95318464 9.65297659 489.51111929 6.3515625 493.44140625 C-7.31817915 509.25523843 -7.31817915 509.25523843 -17.12890625 510.34765625 C-23.48543362 510.52789805 -29.72678487 510.01806428 -36 509 C-33.07461069 504.33766079 -29.78899423 500.41875755 -26 496.4375 C-24.95672975 495.33354448 -23.91503351 494.22809912 -22.875 493.12109375 C-22.38257813 492.59757324 -21.89015625 492.07405273 -21.3828125 491.53466797 C-20.10326464 490.11460478 -18.92115141 488.60836024 -17.75 487.09765625 C-17.1725 486.40542969 -16.595 485.71320313 -16 485 C-15.34 485 -14.68 485 -14 485 C-13.67 484.01 -13.34 483.02 -13 482 C-10.57490972 479.42011672 -7.72569398 477.2533436 -5 475 C-4.43796875 474.53239258 -3.8759375 474.06478516 -3.296875 473.58300781 C31.12567204 445 31.12567204 445 38 445 C38.06058594 443.84242188 38.12117187 442.68484375 38.18359375 441.4921875 C38.26805502 439.95311543 38.35270018 438.41405345 38.4375 436.875 C38.47681641 436.11445313 38.51613281 435.35390625 38.55664062 434.5703125 C38.79509002 430.31490797 39.20230237 426.19629174 40 422 C39.30261719 422.04640625 38.60523438 422.0928125 37.88671875 422.140625 C-6.94666511 423.67339026 -59.427077 405.9249404 -94.015625 377.8828125 C-94.99789062 376.95082031 -94.99789062 376.95082031 -96 376 C-96 375.34 -96 374.68 -96 374 C-96.66 374 -97.32 374 -98 374 C-111.47259254 359.66198051 -119.75901039 341.77350442 -125 323 C-125.19287598 322.34402832 -125.38575195 321.68805664 -125.58447266 321.01220703 C-139.07997597 274.1250399 -130.19591018 225.46516814 -117.52581787 179.65875244 C-116.97737887 177.67403014 -116.43298281 175.6881851 -115.89312744 173.70111084 C-109.84636622 151.54818645 -101.0030046 130.86352369 -89.1171875 111.20703125 C-86.4416009 106.77921594 -83.91293221 102.28378803 -81.41015625 97.7565918 C-75.88829838 87.79716508 -70.10449675 78.2217668 -63.4375 68.99072266 C-61.88398107 66.83933112 -60.34795828 64.67603209 -58.8125 62.51171875 C-22.18171102 11.09085551 -22.18171102 11.09085551 0 0 Z " fill="#010101" transform="translate(219,31)"/>
<path d="M0 0 C5.70920813 4.20062466 8.80901922 10.05018226 10.28027344 16.890625 C10.83252968 21.17464423 10.89595444 25.38385925 10.91796875 29.69921875 C10.92498306 30.60838043 10.93199738 31.51754211 10.93922424 32.45425415 C10.95672369 35.39012595 10.96308063 38.32579664 10.96484375 41.26171875 C10.96551849 42.25903015 10.96619324 43.25634155 10.96688843 44.28387451 C10.94513378 64.4449403 9.31139477 82.9920363 3.3203125 102.30419922 C2.76551836 104.09788446 2.23874327 105.90017393 1.71484375 107.703125 C-1.56332727 118.83524743 -5.12899841 130.41947376 -11.20703125 140.3671875 C-12.35157704 142.26895218 -12.35157704 142.26895218 -13.14453125 144.4921875 C-17.88693257 156.00712769 -25.17279469 166.80469826 -34.28515625 175.26171875 C-34.83171875 175.77476562 -35.37828125 176.2878125 -35.94140625 176.81640625 C-41.0531741 180.59807124 -48.28280995 180.35532529 -54.33300781 179.64794922 C-73.12912578 175.92915749 -91.88085075 153.96319726 -103.71875 140.04296875 C-105.29288972 138.25292458 -106.94598775 136.60481657 -108.66015625 134.94921875 C-113.27943561 130.39208216 -117.28845344 125.3646518 -121.28515625 120.26171875 C-121.88328125 119.51535156 -122.48140625 118.76898438 -123.09765625 118 C-129.22014598 109.87919765 -133.13423455 100.48865764 -137.28515625 91.26171875 C-137.83151733 90.05745239 -137.83151733 90.05745239 -138.38891602 88.82885742 C-138.91763306 87.65480347 -138.91763306 87.65480347 -139.45703125 86.45703125 C-139.92834473 85.41119873 -139.92834473 85.41119873 -140.40917969 84.34423828 C-141.63361468 81.43330448 -142.60449956 78.45908341 -143.56640625 75.453125 C-144.26617696 73.31958496 -145.04036806 71.2316316 -145.84765625 69.13671875 C-148.50667105 62.00380603 -149.54839381 56.7899318 -148.28515625 49.26171875 C-143.17632291 53.58598126 -140.98944098 58.59931616 -138.28515625 64.63671875 C-127.79276635 87.240438 -115.85354467 106.85375842 -98.61914062 124.86474609 C-97.48156952 126.05603121 -96.35837401 127.26101639 -95.23828125 128.46875 C-89.74181869 134.23533786 -83.46477599 138.96894655 -77.16259766 143.80761719 C-75.26537199 145.2770419 -73.38824521 146.76890648 -71.515625 148.26953125 C-70.59354248 149.00562622 -70.59354248 149.00562622 -69.65283203 149.7565918 C-68.48845715 150.68711535 -67.32648344 151.62065535 -66.16748047 152.55786133 C-61.45161262 156.30439562 -56.78365623 159.86721875 -50.72265625 160.82421875 C-45.91341863 160.03725259 -42.88587016 157.46443258 -40.07250977 153.59301758 C-38.92821484 151.72171683 -37.87546733 149.82439924 -36.84765625 147.88671875 C-36.27362061 146.8349646 -36.27362061 146.8349646 -35.68798828 145.76196289 C-32.22515338 139.33458941 -29.12825443 132.75773514 -26.13232422 126.10302734 C-25.28906788 124.27022063 -24.40630381 122.46254594 -23.5078125 120.65625 C-18.99026464 111.4917999 -15.74901197 102.1372215 -12.89379883 92.33129883 C-12.36462373 90.53193368 -11.79336086 88.74505049 -11.21484375 86.9609375 C-9.89675384 81.71626881 -9.32831184 76.44180133 -8.72265625 71.07421875 C-8.59697266 70.01396484 -8.47128906 68.95371094 -8.34179688 67.86132812 C-6.87383793 55.2491782 -6.08396927 42.6974927 -5.72265625 30.01171875 C-5.67932639 28.57290791 -5.63570831 27.13410571 -5.59179688 25.6953125 C-5.48627116 22.21754099 -5.38460851 18.73966987 -5.28515625 15.26171875 C-13.02266226 12.68255008 -18.1455565 14.69299221 -25.203125 18.16015625 C-26.5651544 18.85804411 -27.92567222 19.55888539 -29.28515625 20.26171875 C-30.14189941 20.70161133 -30.99864258 21.14150391 -31.88134766 21.59472656 C-40.1536354 25.85149309 -48.4200603 30.12559375 -56.57421875 34.60546875 C-77.8233284 46.26171875 -77.8233284 46.26171875 -85.28515625 46.26171875 C-85.61515625 47.25171875 -85.94515625 48.24171875 -86.28515625 49.26171875 C-91.689474 51.063158 -96.61124369 51.92367522 -102.28515625 51.26171875 C-105.02030525 48.86846338 -106.14664533 47.42521048 -106.578125 43.80078125 C-106.11513934 39.78823883 -103.92969186 38.50294548 -100.9140625 36.04296875 C-95.05922844 32.07594894 -88.44449331 28.26171875 -81.28515625 28.26171875 C-81.28515625 27.60171875 -81.28515625 26.94171875 -81.28515625 26.26171875 C-80.17140625 25.77703125 -79.05765625 25.29234375 -77.91015625 24.79296875 C-66.0378566 19.59285693 -54.32590742 14.14829333 -42.96484375 7.8984375 C-13.85220677 -8.07337205 -13.85220677 -8.07337205 0 0 Z " fill="#0B0B0B" transform="translate(334.28515625,221.73828125)"/>
<path d="M0 0 C2.50503492 3.75755238 2.14575894 5.41411061 1.53125 9.72265625 C-0.01769115 16.36260248 -4.62146293 19.48326422 -10 23 C-9.65066406 23.88300781 -9.30132812 24.76601563 -8.94140625 25.67578125 C-6.09003391 33.19597288 -4.18257541 39.86709551 -4 48 C-1.2697611 48.1083667 1.45614543 48.18746694 4.1875 48.25 C5.34088867 48.30027344 5.34088867 48.30027344 6.51757812 48.3515625 C10.52812277 48.42041305 12.49977894 48.31362027 15.984375 46.12890625 C18.40223279 43.57516111 19.08199713 42.52587638 19 39 C17.86516257 36.47813903 16.51163056 34.33615632 15 32 C13.35 32 11.7 32 10 32 C9.505 32.99 9.505 32.99 9 34 C10.32 34.66 11.64 35.32 13 36 C12.67 37.32 12.34 38.64 12 40 C5.69837297 39.40550688 5.69837297 39.40550688 3.0625 37.875 C1.30702697 34.77710642 1.51276426 32.47155466 2 29 C4.61805156 25.98527396 6.61230368 25.11278438 10.4375 24 C15.03616932 24 16.5782886 24.95021375 20 28 C24.0929186 32.99755291 26.10287796 37.51868878 26 44 C24.69565571 47.9532904 22.51921076 50.49410234 19.5625 53.375 C12.29669372 56.68922743 3.7505202 56.6222019 -4 55 C-4.10957031 55.86882812 -4.21914063 56.73765625 -4.33203125 57.6328125 C-5.90685413 69.07908612 -5.90685413 69.07908612 -9 74 C-9.66 74 -10.32 74 -11 74 C-11.495 75.485 -11.495 75.485 -12 77 C-15.79572069 79.93398951 -18.58270501 80.34342731 -23.3125 80.1875 C-24.91544922 80.14689453 -24.91544922 80.14689453 -26.55078125 80.10546875 C-27.35902344 80.07066406 -28.16726563 80.03585937 -29 80 C-29.66 78.68 -30.32 77.36 -31 76 C-31.66 76 -32.32 76 -33 76 C-34.55160169 74.1374683 -35.940008 72.302219 -37.3125 70.3125 C-37.71404297 69.73250244 -38.11558594 69.15250488 -38.52929688 68.55493164 C-43.16280616 61.60747476 -45.97998694 54.08005226 -48 46 C-53.61 46.66 -59.22 47.32 -65 48 C-63.7552725 51.3353863 -62.50440849 54.66825547 -61.25 58 C-60.90195312 58.93457031 -60.55390625 59.86914062 -60.1953125 60.83203125 C-58.55852087 65.16649796 -56.87597746 69.38009337 -54.75 73.5 C-53.10674589 76.78650823 -52.55227961 78.41823686 -53 82 C-54.76953125 82.703125 -54.76953125 82.703125 -57 83 C-58.82421875 81.734375 -58.82421875 81.734375 -60.6875 79.75 C-61.37585938 79.01910156 -62.06421875 78.28820312 -62.7734375 77.53515625 C-65.95747578 73.90982143 -69.012683 70.19116416 -72.01953125 66.41796875 C-73.88355487 64.04604113 -73.88355487 64.04604113 -75.76171875 62.30078125 C-77 61 -77 61 -77 59 C-77.66 59 -78.32 59 -79 59 C-79.12117188 59.80824219 -79.24234375 60.61648438 -79.3671875 61.44921875 C-79.53476562 62.51785156 -79.70234375 63.58648438 -79.875 64.6875 C-80.03742188 65.74324219 -80.19984375 66.79898438 -80.3671875 67.88671875 C-81.78090346 74.8418522 -84.40863933 77.90045194 -90 82 C-93.51448769 84.2697733 -95.36922662 84.9889338 -99.5625 85.0625 C-103.10387108 83.96789439 -104.87615742 82.81873775 -107.05859375 79.80078125 C-109.45577163 75.21530822 -109.31659651 70.66094477 -108.3125 65.75 C-106.35206612 60.14876033 -106.35206612 60.14876033 -103 58 C-99.95405291 57.15574293 -97.15804068 56.76120675 -94 57 C-91.875 58.5 -91.875 58.5 -91 61 C-91.12786904 64.64426778 -91.23965974 67.05717808 -93.5625 69.9375 C-94.036875 70.288125 -94.51125 70.63875 -95 71 C-97.50037734 68.82575883 -98.43628586 67.26954202 -99 64 C-101.13586678 67.20380017 -101.23132175 68.01939967 -101.125 71.6875 C-101.10695313 72.49574219 -101.08890625 73.30398438 -101.0703125 74.13671875 C-101.04710937 74.75160156 -101.02390625 75.36648438 -101 76 C-98.45219948 76.94362982 -97.12006524 77.02960261 -94.44921875 76.37109375 C-89.7727925 73.75319006 -87.99385338 68.79488607 -86 64 C-85.05211356 60.35220952 -84.41998098 56.74362359 -84 53 C-84.72445313 52.45214844 -85.44890625 51.90429688 -86.1953125 51.33984375 C-89.08198273 48.93160494 -91.44824731 46.43084211 -93.875 43.5625 C-95.07769531 42.17224609 -95.07769531 42.17224609 -96.3046875 40.75390625 C-98 38 -98 38 -97.7578125 35.15234375 C-97.50773437 34.44207031 -97.25765625 33.73179687 -97 33 C-91.04492601 33.3916035 -86.37180176 34.37124595 -81 37 C-80.88730557 30.8894576 -81.10395632 25.04829486 -82 19 C-80.68 18.67 -79.36 18.34 -78 18 C-76.705826 20.56126064 -75.41459216 23.12393358 -74.125 25.6875 C-73.76019531 26.40873047 -73.39539063 27.12996094 -73.01953125 27.87304688 C-71.1820758 31.53125364 -69.43861498 35.1611695 -68 39 C-61.56688704 39.09507063 -55.34241995 39.15316726 -49 38 C-49.185625 37.29875 -49.37125 36.5975 -49.5625 35.875 C-50.05156976 32.66111302 -49.66231558 30.16439664 -49 27 C-48.01 26.67 -47.02 26.34 -46 26 C-46.05220703 25.11248047 -46.05220703 25.11248047 -46.10546875 24.20703125 C-46.27547012 19.2446104 -46.19679302 16.05746807 -43 12 C-42.34 11.34 -41.68 10.68 -41 10 C-36.78344287 10.07955768 -34.53756489 10.60266943 -31.125 13.125 C-28.63274656 16.4968723 -28.24354731 18.85969567 -28 23 C-25.03 21.68 -22.06 20.36 -19 19 C-19.495 17.02 -19.495 17.02 -20 15 C-20.43700512 11.90777389 -20.56238541 9.08209261 -20 6 C-15.43973631 0.62122744 -6.64169412 -4.42779608 0 0 Z M-14 8 C-15.24423499 11.31795996 -15.12906176 12.61281473 -14 16 C-9.7312118 15.5256902 -7.68488344 13.19283436 -5 10 C-4.12761142 7.32209104 -4.12761142 7.32209104 -4 5 C-8.40218532 5 -10.33634907 5.63898051 -14 8 Z M-38 16 C-40.28728734 17.83883881 -40.28728734 17.83883881 -40.125 20.625 C-40.08375 21.40875 -40.0425 22.1925 -40 23 C-37.03 23.495 -37.03 23.495 -34 24 C-34.26656572 21.06556598 -34.26656572 21.06556598 -35 18 C-35.99 17.34 -36.98 16.68 -38 16 Z M-22.9375 27.625 C-24.01902344 27.92664063 -25.10054688 28.22828125 -26.21484375 28.5390625 C-29.29701588 29.78595615 -29.29701588 29.78595615 -30.37890625 33.1484375 C-30.58386719 34.08945312 -30.78882813 35.03046875 -31 36 C-21.48796152 43.86368219 -21.48796152 43.86368219 -10 47 C-10.97874308 39.38898472 -12.4464881 32.83102288 -16 26 C-18.3383633 26 -20.72411191 26.97756424 -22.9375 27.625 Z M-42 43 C-39.94305245 54.21971393 -36.09006319 66.4696709 -27 74 C-23.93609278 74.77445625 -21.8141254 74.38178613 -19 73 C-14.4425627 70.06237475 -13.10879098 67.55715558 -11.6875 62.375 C-11.36136719 61.22773437 -11.03523438 60.08046875 -10.69921875 58.8984375 C-9.92182918 56.17289306 -9.92182918 56.17289306 -10 54 C-11.14275391 53.56300781 -11.14275391 53.56300781 -12.30859375 53.1171875 C-20.01954922 50.0559093 -26.62077595 46.46151901 -33.125 41.3203125 C-36.72210284 38.78735258 -38.62383165 40.86768315 -42 43 Z M-87 42 C-85.35 43.65 -83.7 45.3 -82 47 C-82 45.68 -82 44.36 -82 43 C-83.65 42.67 -85.3 42.34 -87 42 Z M-76 46 C-77.27776038 50.43098299 -77.27776038 50.43098299 -76.05126953 54.70263672 C-74.63100738 56.37992297 -73.14493702 57.91246699 -71.5625 59.4375 C-70.76875977 60.24864258 -70.76875977 60.24864258 -69.95898438 61.07617188 C-68.65695162 62.40166468 -67.33073818 63.70332872 -66 65 C-64.61463205 62.79132759 -64.61463205 62.79132759 -66.0390625 59.33984375 C-66.55902076 57.86929514 -67.08808071 56.40194101 -67.625 54.9375 C-67.99818359 53.81891602 -67.99818359 53.81891602 -68.37890625 52.67773438 C-69.21521682 50.24323024 -69.21521682 50.24323024 -71 47 C-73.58768319 45.8731482 -73.58768319 45.8731482 -76 46 Z " fill="#000000" transform="translate(509,451)"/>
<path d="M0 0 C1.7325 0.1546875 1.7325 0.1546875 3.5 0.3125 C5.82685225 3.80277837 5.75707008 5.22027833 5.765625 9.34375 C5.76949219 11.14972656 5.76949219 11.14972656 5.7734375 12.9921875 C5.76570313 14.25289063 5.75796875 15.51359375 5.75 16.8125 C5.75773437 18.04226563 5.76546875 19.27203125 5.7734375 20.5390625 C5.7596018 27.05567724 5.31178466 33.08774384 3.99462891 39.46240234 C2.7846179 46.43459805 2.72276344 53.60393893 2.37695312 60.66210938 C1.88660469 69.06871364 1.26997579 77.15753632 -3.5 84.3125 C-6.125 84.5 -6.125 84.5 -8.5 84.3125 C-11.5 77.8125 -11.5 77.8125 -11.5 73.3125 C-12.16 73.3125 -12.82 73.3125 -13.5 73.3125 C-13.68942476 57.67443333 -12.96748353 42.47665245 -10.625 27 C-10.46354492 25.9270166 -10.30208984 24.8540332 -10.13574219 23.74853516 C-6.46454016 0.57719109 -6.46454016 0.57719109 0 0 Z " fill="#101010" transform="translate(140.5,273.6875)"/>
<path d="M0 0 C4.63510641 2.75029135 8.47773563 6.0745027 12.375 9.75 C12.94009277 10.27932129 13.50518555 10.80864258 14.08740234 11.35400391 C15.72965912 12.89775342 17.36493012 14.44864735 19 16 C19.83015625 16.77601563 20.6603125 17.55203125 21.515625 18.3515625 C26.35075019 22.98970111 29.53914709 26.716423 30.5 33.5625 C30 37 30 37 28.0625 39.9375 C24.48473119 42.34701777 22.57025405 42.6320258 18.35620117 42.52416992 C13.84421887 41.52041632 11.47054352 38.1203717 8.625 34.6875 C7.33373545 33.21725152 6.04075361 31.74850955 4.74609375 30.28125 C4.11687012 29.55421875 3.48764648 28.8271875 2.83935547 28.078125 C0.24724534 25.14952911 -2.50835014 22.41135482 -5.3125 19.6875 C-11.82785612 13.32796704 -11.82785612 13.32796704 -12.4375 8.625 C-12 5 -12 5 -9.9375 2.0625 C-6.22131998 -0.54673278 -4.46056526 -0.70429978 0 0 Z " fill="#080808" transform="translate(379,177)"/>
<path d="M0 0 C0 1.32 0 2.64 0 4 C-3.57923338 4.59102918 -7.16344897 5.14279256 -10.75 5.6875 C-12.27367187 5.93983398 -12.27367187 5.93983398 -13.828125 6.19726562 C-15.29765625 6.41479492 -15.29765625 6.41479492 -16.796875 6.63671875 C-17.69760742 6.77811279 -18.59833984 6.91950684 -19.52636719 7.06518555 C-22.59386178 6.98435046 -23.76801361 6.02928559 -26 4 C-25.51171875 2.0859375 -25.51171875 2.0859375 -24 0 C-21.16686366 -0.69395246 -18.68816436 -1.1076094 -15.8125 -1.375 C-15.06935547 -1.46910156 -14.32621094 -1.56320312 -13.56054688 -1.66015625 C-8.50931819 -2.20025257 -4.78985095 -1.68755014 0 0 Z " fill="#000000" transform="translate(406,497)"/>
<path d="M0 0 C0.66 0.33 1.32 0.66 2 1 C1.01 2.485 1.01 2.485 0 4 C-0.66 4 -1.32 4 -2 4 C-2 7.3 -2 10.6 -2 14 C2.02792488 15.00698122 3.79078668 14.86376936 7.75 14.0625 C9.22726563 13.77052734 9.22726563 13.77052734 10.734375 13.47265625 C11.48203125 13.31667969 12.2296875 13.16070312 13 13 C12.67 13.66 12.34 14.32 12 15 C6.55171083 16.72051237 1.69922475 17.66490955 -4 17 C-6.72037721 14.61966994 -7.83754695 13.15193984 -8.34375 9.5625 C-7.88603988 6.15047911 -6.65339634 5.30192521 -4 3.1875 C-3.2575 2.58292969 -2.515 1.97835938 -1.75 1.35546875 C-1.1725 0.90816406 -0.595 0.46085937 0 0 Z " fill="#515151" transform="translate(236,256)"/>
<path d="M0 0 C0.87840996 3.09720845 0.99435406 4.90645403 0 8 C0.66 8.33 1.32 8.66 2 9 C1.33613281 9.56847656 0.67226562 10.13695312 -0.01171875 10.72265625 C-5.08304037 15.1572864 -9.37168746 19.31564368 -13 25 C-13.66 24.67 -14.32 24.34 -15 24 C-10.65119784 15.48999107 -5.54655172 7.75284674 0 0 Z " fill="#2C2C2C" transform="translate(183,182)"/>
<path d="M0 0 C2.40096632 2.50100658 2.99318044 3.95311553 3.5 7.4375 C3 11 3 11 1.0625 13.9375 C-2.55321273 16.37257184 -4.70083027 16.66175002 -8.97265625 16.44140625 C-11 16 -11 16 -13.0625 14 C-13.371875 13.34 -13.68125 12.68 -14 12 C-13.113125 12.350625 -12.22625 12.70125 -11.3125 13.0625 C-7.89136626 14.0307454 -6.26830855 14.36179523 -3 13 C-0.6079206 9.05306898 -0.45853916 4.50896843 0 0 Z " fill="#363636" transform="translate(406,203)"/>
<path d="M0 0 C0.66 0.33 1.32 0.66 2 1 C1.76539063 1.76828125 1.53078125 2.5365625 1.2890625 3.328125 C0.87208693 8.62484171 2.60247824 12.80452899 4.375 17.75 C4.705 18.70777344 5.035 19.66554688 5.375 20.65234375 C6.98617791 25.40943209 6.98617791 25.40943209 9 30 C9.039992 31.99960012 9.04346799 34.00047242 9 36 C7.27682043 33.41523065 6.46709355 31.70004439 5.5625 28.8125 C4.59519601 25.79822444 3.57738403 22.82833591 2.4375 19.875 C-0.2215148 12.74208728 -1.26323756 7.52821305 0 0 Z " fill="#343434" transform="translate(186,271)"/>
<path d="M0 0 C0.33 0 0.66 0 1 0 C1.47754804 27.53860345 1.47754804 27.53860345 -3 39 C-3.33 39 -3.66 39 -4 39 C-3.85677897 37.45808846 -3.71028211 35.91648108 -3.5625 34.375 C-3.48128906 33.51648438 -3.40007812 32.65796875 -3.31640625 31.7734375 C-3.11145897 29.97698601 -2.85280689 28.18553146 -2.53125 26.40625 C-1.74043264 21.33571514 -1.36248849 16.23745414 -0.9375 11.125 C-0.84662109 10.05507813 -0.75574219 8.98515625 -0.66210938 7.8828125 C-0.43924704 5.25538287 -0.21861094 2.6277862 0 0 Z " fill="#3F3F3F" transform="translate(142,316)"/>
<path d="M0 0 C1.670625 0.061875 1.670625 0.061875 3.375 0.125 C3.705 1.115 4.035 2.105 4.375 3.125 C3.3025 3.5375 2.23 3.95 1.125 4.375 C-2.14765074 5.76239149 -4.28017162 7.40499908 -6.625 10.125 C-5.6640625 0.1953125 -5.6640625 0.1953125 0 0 Z " fill="#232323" transform="translate(140.625,273.875)"/>
<path d="M0 0 C0.33 0.66 0.66 1.32 1 2 C0.67 2.66 0.34 3.32 0 4 C0.66 4.33 1.32 4.66 2 5 C1.43410156 5.62648437 0.86820313 6.25296875 0.28515625 6.8984375 C-0.44832031 7.71570313 -1.18179688 8.53296875 -1.9375 9.375 C-2.66839844 10.18710938 -3.39929688 10.99921875 -4.15234375 11.8359375 C-6.02989471 13.85924167 -6.02989471 13.85924167 -7 16 C-7.66 15.67 -8.32 15.34 -9 15 C-8.06652642 13.24784894 -7.1280468 11.49836437 -6.1875 9.75 C-5.66542969 8.77546875 -5.14335937 7.8009375 -4.60546875 6.796875 C-3.21034812 4.36644588 -1.73804039 2.19212301 0 0 Z " fill="#4D4D4D" transform="translate(177,191)"/>
<path d="M0 0 C1.59696772 3.17144293 3.1644152 6.35485722 4.6875 9.5625 C5.14511719 10.51253906 5.60273438 11.46257812 6.07421875 12.44140625 C7 15 7 15 6 18 C4.80036357 15.56781941 3.61515562 13.13029422 2.4375 10.6875 C2.09525391 9.99720703 1.75300781 9.30691406 1.40039062 8.59570312 C-1.11328125 3.33984375 -1.11328125 3.33984375 0 0 Z " fill="#2C2C2C" transform="translate(196,306)"/>
<path d="M0 0 C2.31 0 4.62 0 7 0 C7.33 0.99 7.66 1.98 8 3 C6.906875 2.79375 5.81375 2.5875 4.6875 2.375 C0.9161599 1.59653475 0.9161599 1.59653475 -2 4 C-1.34 2.68 -0.68 1.36 0 0 Z " fill="#484848" transform="translate(137,274)"/>
<path d="M0 0 C0 0.99 0 1.98 0 3 C-0.66 3.66 -1.32 4.32 -2 5 C-5.125 4.625 -5.125 4.625 -8 4 C-8 3.67 -8 3.34 -8 3 C-6.865625 2.690625 -5.73125 2.38125 -4.5625 2.0625 C-1.21224901 1.37075469 -1.21224901 1.37075469 0 0 Z " fill="#161616" transform="translate(404,213)"/>
</svg>
