<?xml version="1.0" encoding="UTF-8"?>
<svg version="1.1" xmlns="http://www.w3.org/2000/svg" width="540" height="540">
<path d="M0 0 C0.99 0.33 1.98 0.66 3 1 C-2.37641772 8.19358683 -8.22882918 14.12536051 -15 20 C-19.04752336 23.85008319 -22.74172072 27.99709373 -26.44921875 32.17163086 C-28.01818448 33.91133874 -29.60991455 35.63120766 -31.23779297 37.31591797 C-38.90044836 45.34030883 -44.87351848 54.24495647 -50.9375 63.5 C-51.46835205 64.30523102 -51.9992041 65.11046204 -52.54614258 65.94009399 C-63.62685466 82.75133786 -73.47981987 99.65983706 -82.3125 117.75 C-82.65224854 118.4448349 -82.99199707 119.1396698 -83.34204102 119.8555603 C-90.95684398 135.4938298 -96.85225529 150.89465811 -100.9375 167.8125 C-101.36776225 169.56439048 -101.79810208 171.31626191 -102.22851562 173.06811523 C-105.02055672 184.52310088 -107.60930823 196.0172601 -110 207.5625 C-110.14170624 208.24212799 -110.28341248 208.92175598 -110.42941284 209.62197876 C-113.24176985 223.20747254 -115.38638121 236.66319677 -115.3125 250.5625 C-115.30758545 251.70307861 -115.3026709 252.84365723 -115.29760742 254.01879883 C-114.79959581 291.66081465 -110.22239317 331.97314025 -82.91796875 360.1484375 C-55.94393275 385.47100191 -14.58532134 394.72909411 21 399 C21.73637695 399.0928125 22.47275391 399.185625 23.23144531 399.28125 C67.64120545 404.36287356 107.50080963 392.64405611 143.4375 366.5 C177.20136742 339.59174018 195.90428532 303.51239477 204.75 261.75 C205.04789429 260.35128662 205.04789429 260.35128662 205.35180664 258.92431641 C208.13292116 245.19144688 209.38534997 231.67530897 209.3125 217.6875 C209.31026428 216.6153978 209.31026428 216.6153978 209.3079834 215.52163696 C209.21563118 190.78881736 205.25904112 167.54524382 187.9609375 148.7890625 C164.98508603 126.28693993 125.26193461 116.96900463 94 117 C47.74307463 118.14113197 -13.83090256 141.9358503 -47.125 174.875 C-48.09033652 175.91017999 -49.04936391 176.95130403 -50 178 C-50.9741454 178.98416232 -51.9529237 179.96377302 -52.9375 180.9375 C-53.618125 181.618125 -54.29875 182.29875 -55 183 C-56 180 -56 180 -55.1796875 177.765625 C-52.82511416 173.22566922 -50.45680276 168.90475371 -47.30859375 164.86328125 C-45.82021811 162.81874137 -45.82021811 162.81874137 -44.1953125 159.6875 C-42.05091146 155.89063402 -39.43230401 152.83767646 -36.4375 149.6875 C-35.63989258 148.84348633 -35.63989258 148.84348633 -34.82617188 147.98242188 C-33.22932085 146.30962074 -31.61779356 144.65252989 -30 143 C-29.16597656 142.14019531 -28.33195312 141.28039062 -27.47265625 140.39453125 C4.34928551 109.57802209 56.10915355 90.10274957 100.24365234 89.95214844 C140.16793645 90.64525381 182.26049215 99.29227099 212 128 C212 128.66 212 129.32 212 130 C212.99 130.33 213.98 130.66 215 131 C216.71672619 133.07129959 218.27660502 135.11341048 219.8125 137.3125 C220.4789856 138.26310303 220.4789856 138.26310303 221.15893555 139.23291016 C246.8806206 176.64712162 241.33533724 225.23743003 233.66015625 267.51123047 C228.84455166 292.96056092 218.93683167 315.81258848 204 337 C203.06220703 338.33417969 203.06220703 338.33417969 202.10546875 339.6953125 C194.72762533 350.00325667 186.9894381 360.01241483 178.4375 369.375 C177.92477539 369.9407373 177.41205078 370.50647461 176.88378906 371.08935547 C175.63253342 372.43456061 174.3211558 373.72337754 173 375 C172.34 375 171.68 375 171 375 C171 375.66 171 376.32 171 377 C159.60071552 387.71637804 145.53712005 396.28016377 132 404 C131.40638672 404.34272949 130.81277344 404.68545898 130.20117188 405.03857422 C109.66712208 416.81015216 84.06524056 427.48130481 60 427 C60.33 428.98 60.66 430.96 61 433 C62.12148438 432.58427734 62.12148438 432.58427734 63.265625 432.16015625 C64.25046875 431.79792969 65.2353125 431.43570312 66.25 431.0625 C67.22453125 430.70285156 68.1990625 430.34320313 69.203125 429.97265625 C73.63683168 428.43076664 77.34325283 427.82017468 82.0625 427.75 C83.10535156 427.72421875 84.14820313 427.6984375 85.22265625 427.671875 C88 428 88 428 89.890625 429.28515625 C91.74480469 432.15130021 90.66199669 434.81037958 90 438 C89.01 438.33 88.02 438.66 87 439 C86.77183594 439.75667969 86.54367187 440.51335937 86.30859375 441.29296875 C84.3266574 445.39291469 81.0754075 446.45251561 77.0625 448.3125 C75.96905273 448.85100586 75.96905273 448.85100586 74.85351562 449.40039062 C69.45127976 452 69.45127976 452 66 452 C66.52207031 452.62003906 67.04414063 453.24007813 67.58203125 453.87890625 C81.6275204 470.77776973 93.70831323 488.09716459 101 509 C93.08 509 85.16 509 77 509 C75.2365625 505.8753125 75.2365625 505.8753125 73.4375 502.6875 C68.99409765 494.87491438 64.39769626 487.19692834 59 480 C58.67 489.57 58.34 499.14 58 509 C49.75 509 41.5 509 33 509 C31.81024205 505.43072615 31.87521845 502.20053028 31.90234375 498.48828125 C31.90446617 497.39594429 31.90446617 497.39594429 31.90663147 496.28153992 C31.91222341 493.95848461 31.92477438 491.63552612 31.9375 489.3125 C31.94251604 487.73632952 31.94707877 486.16015752 31.95117188 484.58398438 C31.9621902 480.72261902 31.97944926 476.86132592 32 473 C25.95748587 477.3322917 19.95298391 481.65142626 14.3125 486.5 C13.72621826 486.98629883 13.13993652 487.47259766 12.53588867 487.97363281 C9.1416448 490.86261809 6.25808491 493.82203268 3.5 497.328125 C-5.40868612 508.24327196 -5.40868612 508.24327196 -12.34619141 509.70507812 C-20.26609153 510.37463236 -28.11543032 509.89990699 -36 509 C-33.07461069 504.33766079 -29.78899423 500.41875755 -26 496.4375 C-24.95672975 495.33354448 -23.91503351 494.22809912 -22.875 493.12109375 C-22.38257813 492.59757324 -21.89015625 492.07405273 -21.3828125 491.53466797 C-20.10326464 490.11460478 -18.92115141 488.60836024 -17.75 487.09765625 C-17.1725 486.40542969 -16.595 485.71320313 -16 485 C-15.34 485 -14.68 485 -14 485 C-13.67 484.01 -13.34 483.02 -13 482 C-10.57490972 479.42011672 -7.72569398 477.2533436 -5 475 C-4.43796875 474.53239258 -3.8759375 474.06478516 -3.296875 473.58300781 C3.99209458 467.53055985 11.36738385 461.61493208 19 456 C19.58595947 455.5678418 20.17191895 455.13568359 20.77563477 454.69042969 C21.62919556 454.07022949 21.62919556 454.07022949 22.5 453.4375 C23.34014648 452.82297974 23.34014648 452.82297974 24.19726562 452.19604492 C26 451 26 451 28.16210938 449.9230957 C32.42123847 447.77111242 32.42123847 447.77111242 34.8203125 443.82568359 C35.23420972 441.25962229 35.4147781 438.78483096 35.5 436.1875 C35.58894531 434.86202148 35.58894531 434.86202148 35.6796875 433.50976562 C35.82031395 431.34177458 35.91478409 429.17087522 36 427 C35.30261719 427.04640625 34.60523438 427.0928125 33.88671875 427.140625 C-10.94666511 428.67339026 -63.427077 410.9249404 -98.015625 382.8828125 C-98.99789062 381.95082031 -98.99789062 381.95082031 -100 381 C-100 380.34 -100 379.68 -100 379 C-100.66 379 -101.32 379 -102 379 C-115.47259254 364.66198051 -123.75901039 346.77350442 -129 328 C-129.19287598 327.34402832 -129.38575195 326.68805664 -129.58447266 326.01220703 C-143.07997597 279.1250399 -134.19591018 230.46516814 -121.52581787 184.65875244 C-120.97737887 182.67403014 -120.43298281 180.6881851 -119.89312744 178.70111084 C-113.84636622 156.54818645 -105.0030046 135.86352369 -93.1171875 116.20703125 C-90.4416009 111.77921594 -87.91293221 107.28378803 -85.41015625 102.7565918 C-79.88829838 92.79716508 -74.10449675 83.2217668 -67.4375 73.99072266 C-65.88398107 71.83933112 -64.34795828 69.67603209 -62.8125 67.51171875 C-48.3305705 47.18469895 -33.1586383 27.17028917 -14 11 C-13.50999512 10.58508301 -13.01999023 10.17016602 -12.51513672 9.74267578 C-10.88792352 8.36671257 -9.25725142 6.99498178 -7.625 5.625 C-7.10059326 5.18357666 -6.57618652 4.74215332 -6.03588867 4.28735352 C-2.2347909 1.11739545 -2.2347909 1.11739545 0 0 Z " fill="#020202" transform="translate(219,31)"/>
<path d="M0 0 C6.72797735 6.56778742 9.79422494 15.55162968 10.14526367 24.84619141 C10.15858709 26.34794174 10.1657917 27.84975464 10.16796875 29.3515625 C10.17129715 30.16507172 10.17462555 30.97858093 10.17805481 31.81674194 C10.18311084 33.54318683 10.18546354 35.26964146 10.18530273 36.99609375 C10.18745226 39.56788639 10.20551739 42.13922283 10.22460938 44.7109375 C10.34414462 78.98230933 2.80698817 111.4472946 -12.0625 142.3125 C-12.35373749 142.91879242 -12.64497498 143.52508484 -12.94503784 144.14974976 C-20.14606896 159.03302951 -29.56774321 178.47587578 -46 185 C-60.1556882 186.86776442 -70.12902229 181.17942617 -80.97192383 172.88037109 C-85.62927574 169.20998906 -90.11939223 165.37096904 -94.5 161.375 C-95.0580835 160.86638428 -95.61616699 160.35776855 -96.19116211 159.83374023 C-97.50396935 158.60024274 -98.75851682 157.305258 -100 156 C-100 155.34 -100 154.68 -100 154 C-100.66 154 -101.32 154 -102 154 C-103.515625 152.4609375 -103.515625 152.4609375 -105.25 150.375 C-107.54660073 147.65952241 -109.87150775 145.08737736 -112.4375 142.625 C-115 140 -115 140 -115 138 C-115.66 138 -116.32 138 -117 138 C-130.82496479 124.97925753 -139.63761562 107.78661831 -146.75 90.5 C-147.21003418 89.38488037 -147.67006836 88.26976074 -148.14404297 87.12084961 C-157.96525539 62.65010923 -157.96525539 62.65010923 -155 54.125 C-154.67 53.42375 -154.34 52.7225 -154 52 C-153.34 52 -152.68 52 -152 52 C-152 51.01 -152 50.02 -152 49 C-146.46383012 51.67263374 -144.15500059 54.19266502 -141.5625 59.6875 C-140.85598249 61.13760486 -140.14752854 62.58676729 -139.4375 64.03515625 C-139.05078125 64.82680176 -138.6640625 65.61844727 -138.265625 66.43408203 C-122.73104811 97.92875856 -104.65875752 124.08016714 -76 145 C-74.84670789 145.89125517 -73.69703784 146.78721432 -72.55078125 147.6875 C-71.69069458 148.36159912 -71.69069458 148.36159912 -70.81323242 149.04931641 C-69.97755737 149.70552979 -69.97755737 149.70552979 -69.125 150.375 C-61.67790634 156.33645764 -61.67790634 156.33645764 -52.875 159.5625 C-49.07898015 158.81980046 -47.33790091 156.92216149 -45 154 C-43.10142746 151.01109593 -41.48205391 147.90346428 -39.875 144.75 C-39.40489502 143.83541016 -38.93479004 142.92082031 -38.45043945 141.97851562 C-25.55910164 116.54269214 -16.76771272 92.44692099 -14 64 C-13.85534302 62.63270752 -13.85534302 62.63270752 -13.70776367 61.23779297 C-12.86965763 52.57417533 -12.88573713 43.94225555 -12.9375 35.25 C-12.94253015 33.76302236 -12.94709035 32.27604305 -12.95117188 30.7890625 C-12.96204568 27.19267294 -12.9792248 23.59634763 -13 20 C-18.46426357 19.87709782 -22.3861667 20.58346407 -27.3125 22.875 C-27.99691162 23.18381104 -28.68132324 23.49262207 -29.38647461 23.81079102 C-38.48922285 28.0149872 -47.17019231 33.06457547 -55.8515625 38.06689453 C-92.21427328 58.92857305 -92.21427328 58.92857305 -107 57 C-110.33892786 55.07084168 -111.69563407 53.80567453 -113.0625 50.1875 C-112.94939328 44.41905746 -109.91753125 40.62709013 -105.921875 36.765625 C-100.10556333 31.78256936 -93.079681 29.15313367 -86.09448242 26.20452881 C-82.03190782 24.48795815 -77.99085906 22.7222078 -73.94921875 20.95703125 C-73.16183319 20.61410034 -72.37444763 20.27116943 -71.5632019 19.91784668 C-63.41801344 16.34841953 -55.58312522 12.28557969 -47.80029297 7.99023438 C-34.27444015 0.55046505 -14.80569162 -9.98523388 0 0 Z " fill="#020202" transform="translate(337,221)"/>
<path d="M0 0 C2.50503492 3.75755238 2.14575894 5.41411061 1.53125 9.72265625 C-0.01769115 16.36260248 -4.62146293 19.48326422 -10 23 C-9.65066406 23.88300781 -9.30132812 24.76601563 -8.94140625 25.67578125 C-6.09003391 33.19597288 -4.18257541 39.86709551 -4 48 C-1.2697611 48.1083667 1.45614543 48.18746694 4.1875 48.25 C5.34088867 48.30027344 5.34088867 48.30027344 6.51757812 48.3515625 C10.52812277 48.42041305 12.49977894 48.31362027 15.984375 46.12890625 C18.40223279 43.57516111 19.08199713 42.52587638 19 39 C17.86516257 36.47813903 16.51163056 34.33615632 15 32 C13.35 32 11.7 32 10 32 C9.505 32.99 9.505 32.99 9 34 C10.32 34.66 11.64 35.32 13 36 C12.67 37.32 12.34 38.64 12 40 C5.69837297 39.40550688 5.69837297 39.40550688 3.0625 37.875 C1.30702697 34.77710642 1.51276426 32.47155466 2 29 C4.61805156 25.98527396 6.61230368 25.11278438 10.4375 24 C15.03616932 24 16.5782886 24.95021375 20 28 C24.0929186 32.99755291 26.10287796 37.51868878 26 44 C24.69565571 47.9532904 22.51921076 50.49410234 19.5625 53.375 C12.29669372 56.68922743 3.7505202 56.6222019 -4 55 C-4.10957031 55.86882812 -4.21914063 56.73765625 -4.33203125 57.6328125 C-5.90685413 69.07908612 -5.90685413 69.07908612 -9 74 C-9.66 74 -10.32 74 -11 74 C-11.495 75.485 -11.495 75.485 -12 77 C-15.79572069 79.93398951 -18.58270501 80.34342731 -23.3125 80.1875 C-24.91544922 80.14689453 -24.91544922 80.14689453 -26.55078125 80.10546875 C-27.35902344 80.07066406 -28.16726563 80.03585937 -29 80 C-29.66 78.68 -30.32 77.36 -31 76 C-31.66 76 -32.32 76 -33 76 C-34.55160169 74.1374683 -35.940008 72.302219 -37.3125 70.3125 C-37.71404297 69.73250244 -38.11558594 69.15250488 -38.52929688 68.55493164 C-43.16280616 61.60747476 -45.97998694 54.08005226 -48 46 C-53.61 46.66 -59.22 47.32 -65 48 C-63.7552725 51.3353863 -62.50440849 54.66825547 -61.25 58 C-60.90195312 58.93457031 -60.55390625 59.86914062 -60.1953125 60.83203125 C-58.55852087 65.16649796 -56.87597746 69.38009337 -54.75 73.5 C-53.10674589 76.78650823 -52.55227961 78.41823686 -53 82 C-54.76953125 82.703125 -54.76953125 82.703125 -57 83 C-58.82421875 81.734375 -58.82421875 81.734375 -60.6875 79.75 C-61.37585938 79.01910156 -62.06421875 78.28820312 -62.7734375 77.53515625 C-65.95747578 73.90982143 -69.012683 70.19116416 -72.01953125 66.41796875 C-73.88355487 64.04604113 -73.88355487 64.04604113 -75.76171875 62.30078125 C-77 61 -77 61 -77 59 C-77.66 59 -78.32 59 -79 59 C-79.12117188 59.80824219 -79.24234375 60.61648438 -79.3671875 61.44921875 C-79.53476562 62.51785156 -79.70234375 63.58648438 -79.875 64.6875 C-80.03742188 65.74324219 -80.19984375 66.79898438 -80.3671875 67.88671875 C-81.78090346 74.8418522 -84.40863933 77.90045194 -90 82 C-93.51448769 84.2697733 -95.36922662 84.9889338 -99.5625 85.0625 C-103.10387108 83.96789439 -104.87615742 82.81873775 -107.05859375 79.80078125 C-109.45577163 75.21530822 -109.31659651 70.66094477 -108.3125 65.75 C-106.35206612 60.14876033 -106.35206612 60.14876033 -103 58 C-99.95405291 57.15574293 -97.15804068 56.76120675 -94 57 C-91.875 58.5 -91.875 58.5 -91 61 C-91.12786904 64.64426778 -91.23965974 67.05717808 -93.5625 69.9375 C-94.036875 70.288125 -94.51125 70.63875 -95 71 C-97.50037734 68.82575883 -98.43628586 67.26954202 -99 64 C-101.13586678 67.20380017 -101.23132175 68.01939967 -101.125 71.6875 C-101.10695313 72.49574219 -101.08890625 73.30398438 -101.0703125 74.13671875 C-101.04710937 74.75160156 -101.02390625 75.36648438 -101 76 C-98.45219948 76.94362982 -97.12006524 77.02960261 -94.44921875 76.37109375 C-89.7727925 73.75319006 -87.99385338 68.79488607 -86 64 C-85.05211356 60.35220952 -84.41998098 56.74362359 -84 53 C-84.72445313 52.45214844 -85.44890625 51.90429688 -86.1953125 51.33984375 C-89.08198273 48.93160494 -91.44824731 46.43084211 -93.875 43.5625 C-95.07769531 42.17224609 -95.07769531 42.17224609 -96.3046875 40.75390625 C-98 38 -98 38 -97.7578125 35.15234375 C-97.50773437 34.44207031 -97.25765625 33.73179687 -97 33 C-91.04492601 33.3916035 -86.37180176 34.37124595 -81 37 C-80.88730557 30.8894576 -81.10395632 25.04829486 -82 19 C-80.68 18.67 -79.36 18.34 -78 18 C-76.705826 20.56126064 -75.41459216 23.12393358 -74.125 25.6875 C-73.76019531 26.40873047 -73.39539063 27.12996094 -73.01953125 27.87304688 C-71.1820758 31.53125364 -69.43861498 35.1611695 -68 39 C-61.56688704 39.09507063 -55.34241995 39.15316726 -49 38 C-49.185625 37.29875 -49.37125 36.5975 -49.5625 35.875 C-50.05156976 32.66111302 -49.66231558 30.16439664 -49 27 C-48.01 26.67 -47.02 26.34 -46 26 C-46.05220703 25.11248047 -46.05220703 25.11248047 -46.10546875 24.20703125 C-46.27547012 19.2446104 -46.19679302 16.05746807 -43 12 C-42.34 11.34 -41.68 10.68 -41 10 C-36.78344287 10.07955768 -34.53756489 10.60266943 -31.125 13.125 C-28.63274656 16.4968723 -28.24354731 18.85969567 -28 23 C-25.03 21.68 -22.06 20.36 -19 19 C-19.495 17.02 -19.495 17.02 -20 15 C-20.43700512 11.90777389 -20.56238541 9.08209261 -20 6 C-15.43973631 0.62122744 -6.64169412 -4.42779608 0 0 Z M-14 8 C-15.24423499 11.31795996 -15.12906176 12.61281473 -14 16 C-9.7312118 15.5256902 -7.68488344 13.19283436 -5 10 C-4.12761142 7.32209104 -4.12761142 7.32209104 -4 5 C-8.40218532 5 -10.33634907 5.63898051 -14 8 Z M-38 16 C-40.28728734 17.83883881 -40.28728734 17.83883881 -40.125 20.625 C-40.08375 21.40875 -40.0425 22.1925 -40 23 C-37.03 23.495 -37.03 23.495 -34 24 C-34.26656572 21.06556598 -34.26656572 21.06556598 -35 18 C-35.99 17.34 -36.98 16.68 -38 16 Z M-22.9375 27.625 C-24.01902344 27.92664063 -25.10054688 28.22828125 -26.21484375 28.5390625 C-29.29701588 29.78595615 -29.29701588 29.78595615 -30.37890625 33.1484375 C-30.58386719 34.08945312 -30.78882813 35.03046875 -31 36 C-21.48796152 43.86368219 -21.48796152 43.86368219 -10 47 C-10.97874308 39.38898472 -12.4464881 32.83102288 -16 26 C-18.3383633 26 -20.72411191 26.97756424 -22.9375 27.625 Z M-42 43 C-39.94305245 54.21971393 -36.09006319 66.4696709 -27 74 C-23.93609278 74.77445625 -21.8141254 74.38178613 -19 73 C-14.4425627 70.06237475 -13.10879098 67.55715558 -11.6875 62.375 C-11.36136719 61.22773437 -11.03523438 60.08046875 -10.69921875 58.8984375 C-9.92182918 56.17289306 -9.92182918 56.17289306 -10 54 C-11.14275391 53.56300781 -11.14275391 53.56300781 -12.30859375 53.1171875 C-20.01954922 50.0559093 -26.62077595 46.46151901 -33.125 41.3203125 C-36.72210284 38.78735258 -38.62383165 40.86768315 -42 43 Z M-87 42 C-85.35 43.65 -83.7 45.3 -82 47 C-82 45.68 -82 44.36 -82 43 C-83.65 42.67 -85.3 42.34 -87 42 Z M-76 46 C-77.27776038 50.43098299 -77.27776038 50.43098299 -76.05126953 54.70263672 C-74.63100738 56.37992297 -73.14493702 57.91246699 -71.5625 59.4375 C-70.76875977 60.24864258 -70.76875977 60.24864258 -69.95898438 61.07617188 C-68.65695162 62.40166468 -67.33073818 63.70332872 -66 65 C-64.61463205 62.79132759 -64.61463205 62.79132759 -66.0390625 59.33984375 C-66.55902076 57.86929514 -67.08808071 56.40194101 -67.625 54.9375 C-67.99818359 53.81891602 -67.99818359 53.81891602 -68.37890625 52.67773438 C-69.21521682 50.24323024 -69.21521682 50.24323024 -71 47 C-73.58768319 45.8731482 -73.58768319 45.8731482 -76 46 Z " fill="#000000" transform="translate(509,451)"/>
<path d="M0 0 C0.73474548 0.00204437 1.46949097 0.00408875 2.22650146 0.00619507 C16.96950467 0.07268054 31.60369903 1.22218789 45.44091797 6.67211914 C47.51964983 7.46899177 49.61205296 8.16033511 51.734375 8.83203125 C74.6372717 16.09640858 96.61206272 27.79151948 108.5078125 49.58886719 C116.39481123 65.27173335 118.01732113 83.40820732 117.875 100.6875 C117.87262329 101.45598267 117.87024658 102.22446533 117.86779785 103.01623535 C117.72799641 132.21970374 113.00738446 161.86701252 100.4375 188.4375 C99.78826421 189.89432178 99.14251658 191.35270233 98.5 192.8125 C96.17943475 198.03608313 93.80930447 203.2370271 91.4375 208.4375 C90.7775 208.4375 90.1175 208.4375 89.4375 208.4375 C89.08945312 209.44683594 89.08945312 209.44683594 88.734375 210.4765625 C87.09713116 214.21460718 84.96792102 217.43904378 82.6875 220.8125 C82.24229004 221.47644775 81.79708008 222.14039551 81.33837891 222.82446289 C78.30225466 227.29935984 75.11840208 231.46600038 71.4375 235.4375 C71.1075 234.4475 70.7775 233.4575 70.4375 232.4375 C71.78108422 230.34508329 73.15983569 228.45158282 74.6875 226.5 C91.20640964 204.38807371 100.51379999 178.97417676 106.1875 152.1875 C106.38609619 151.25502441 106.58469238 150.32254883 106.78930664 149.36181641 C109.57042116 135.62894688 110.82284997 122.11280897 110.75 108.125 C110.74776428 107.0528978 110.74776428 107.0528978 110.7454834 105.95913696 C110.65313118 81.22631736 106.69654112 57.98274382 89.3984375 39.2265625 C66.42258603 16.72443993 26.69943461 7.40650463 -4.5625 7.4375 C-50.81942537 8.57863197 -112.39340256 32.3733503 -145.6875 65.3125 C-146.65283652 66.34767999 -147.61186391 67.38880403 -148.5625 68.4375 C-149.5366454 69.42166232 -150.5154237 70.40127302 -151.5 71.375 C-152.180625 72.055625 -152.86125 72.73625 -153.5625 73.4375 C-154.5625 70.4375 -154.5625 70.4375 -153.7421875 68.203125 C-151.02436504 62.96277271 -148.26932186 58.04598123 -144.5625 53.4375 C-143.9025 53.4375 -143.2425 53.4375 -142.5625 53.4375 C-142.253125 52.81875 -141.94375 52.2 -141.625 51.5625 C-140.9375 50.1875 -140.25 48.8125 -139.5625 47.4375 C-138.9025 47.7675 -138.2425 48.0975 -137.5625 48.4375 C-138.5525 50.0875 -139.5425 51.7375 -140.5625 53.4375 C-136.10189095 52.04355967 -132.93017444 49.55545013 -129.33203125 46.6796875 C-127.5625 45.4375 -127.5625 45.4375 -125.5625 45.4375 C-125.2325 44.4475 -124.9025 43.4575 -124.5625 42.4375 C-118.93072337 37.7422147 -112.15883772 34.53549098 -105.5625 31.4375 C-104.60859375 30.98761719 -103.6546875 30.53773438 -102.671875 30.07421875 C-99.94665806 28.80404854 -97.21510008 27.54937111 -94.47705078 26.30712891 C-93.1227795 25.69199064 -91.76970351 25.07421766 -90.41748047 24.45458984 C-82.24177424 20.71304547 -74.15461016 17.0301753 -65.53125 14.421875 C-62.91102352 13.55306306 -60.40680924 12.56873419 -57.85546875 11.51953125 C-52.77564437 9.46662845 -47.64594547 7.85757829 -42.375 6.375 C-41.54419922 6.13201172 -40.71339844 5.88902344 -39.85742188 5.63867188 C-26.46208765 1.82732018 -13.86412349 -0.11686009 0 0 Z " fill="#6E635C" transform="translate(317.5625,140.5625)"/>
<path d="M0 0 C0.33 0 0.66 0 1 0 C0.35871659 5.40856005 -0.40437676 10.76592064 -1.375 16.125 C-1.4884375 16.80175781 -1.601875 17.47851562 -1.71875 18.17578125 C-2.30382053 21.39366916 -3.03437462 24.06857067 -4.50390625 27 C-6.27186762 30.54515491 -6.93733035 34.00581815 -7.5625 37.875 C-8.50753231 43.31718999 -9.55555677 48.66667113 -11 54 C-11.66 54 -12.32 54 -13 54 C-13.13277344 55.27875 -13.26554687 56.5575 -13.40234375 57.875 C-13.5806867 59.58333777 -13.75907451 61.29167085 -13.9375 63 C-14.02451172 63.83917969 -14.11152344 64.67835938 -14.20117188 65.54296875 C-14.28818359 66.37441406 -14.37519531 67.20585937 -14.46484375 68.0625 C-14.58267212 69.19365234 -14.58267212 69.19365234 -14.70288086 70.34765625 C-14.94390305 72.49922985 -15.22707823 74.64605215 -15.52294922 76.79077148 C-16.04670355 80.96586701 -16.1609118 85.08098447 -16.16796875 89.28515625 C-16.17211288 90.05553223 -16.17625702 90.8259082 -16.18052673 91.61962891 C-16.19014123 94.10063532 -16.19019263 96.58147793 -16.1875 99.0625 C-16.18756042 99.90948456 -16.18762085 100.75646912 -16.18768311 101.62911987 C-16.17391192 115.17499985 -15.66299678 128.54457429 -14 142 C-13.855625 143.28261719 -13.71125 144.56523437 -13.5625 145.88671875 C-12.63384854 153.02572686 -10.68757217 159.33858572 -8 166 C-7.49698718 167.37390069 -6.99672946 168.74881511 -6.5 170.125 C-6.00627533 171.41907833 -5.50629051 172.71078602 -5 174 C-4.74992187 174.63679687 -4.49984375 175.27359375 -4.2421875 175.9296875 C6.04471293 200.48850384 21.81708563 217.15807046 45 230 C45.99 230.33 46.98 230.66 48 231 C48 231.66 48 232.32 48 233 C48.65613281 233.09925781 49.31226563 233.19851563 49.98828125 233.30078125 C53.89934638 234.20879767 57.47163243 235.68471817 61.1875 237.1875 C91.71457419 249.26164128 121.44319914 253.68498361 154 257 C154.14416894 263.09714484 153.74028539 268.60130851 152.5 274.5625 C152.35691406 275.28501953 152.21382812 276.00753906 152.06640625 276.75195312 C151.71854959 278.50283163 151.36039419 280.25165912 151 282 C150.34 282 149.68 282 149 282 C149 275.73 149 269.46 149 263 C146.0609375 263.0309375 146.0609375 263.0309375 143.0625 263.0625 C100.31980608 262.93388608 51.51046407 250.57121109 18 223 C17.32066406 222.47148437 16.64132813 221.94296875 15.94140625 221.3984375 C14.58007629 220.32320691 13.27877443 219.17220989 12 218 C12 217.34 12 216.68 12 216 C11.34 216 10.68 216 10 216 C-9.07373684 195.70104048 -17.13975668 170.51509042 -19.70629883 143.37158203 C-19.94104962 141.05558208 -19.94104962 141.05558208 -20.5 139.06860352 C-28.7573891 104.90607528 -20.03768418 65.70834893 -11.0390625 32.80615234 C-10.02157435 29.07902822 -9.0251091 25.34676507 -8.03125 21.61328125 C-7.41818537 19.34594298 -6.80367807 17.07899414 -6.1875 14.8125 C-5.90994873 13.77351562 -5.63239746 12.73453125 -5.34643555 11.6640625 C-5.0812915 10.70886719 -4.81614746 9.75367188 -4.54296875 8.76953125 C-4.31633545 7.94042236 -4.08970215 7.11131348 -3.85620117 6.25708008 C-2.91322499 3.7712475 -1.73068429 2.00909245 0 0 Z " fill="#746962" transform="translate(107,194)"/>
<path d="M0 0 C3.70318222 4.39868172 3.43852956 8.74215914 3.3359375 14.203125 C3.32662201 15.11813782 3.31730652 16.03315063 3.30770874 16.97589111 C3.10924794 27.51454634 2.08340189 37.97655353 0.97363281 48.45214844 C0.62106116 51.78725896 0.28596235 55.12380511 -0.046875 58.4609375 C-0.26722429 60.61468638 -0.48854255 62.76833639 -0.7109375 64.921875 C-0.80998383 65.90323425 -0.90903015 66.88459351 -1.01107788 67.89569092 C-2.89597764 85.48213799 -2.89597764 85.48213799 -8 91 C-11.5 92.125 -11.5 92.125 -15 92 C-18.85557731 89.3948802 -19.76494431 86.35756443 -21 82 C-22.36620703 71.39305258 -21.92213789 61.05465736 -20.8125 50.4375 C-20.74442139 49.75454865 -20.67634277 49.07159729 -20.60620117 48.36795044 C-19.68968459 39.18131208 -18.54453809 30.04194815 -17 20.9375 C-16.84635986 20.02347412 -16.69271973 19.10944824 -16.53442383 18.16772461 C-15.32871298 11.58153688 -13.66694875 5.05586115 -9 0 C-5.40997619 -1.1966746 -3.61734062 -1.05505768 0 0 Z " fill="#030303" transform="translate(145,271)"/>
<path d="M0 0 C1.80482673 1.41028789 3.4830067 2.8916767 5.15576172 4.45605469 C5.75718994 4.9972998 6.35861816 5.53854492 6.97827148 6.09619141 C8.70023648 7.65722292 10.39871296 9.24038229 12.09326172 10.83105469 C12.89505859 11.56324219 13.69685547 12.29542969 14.52294922 13.04980469 C27.24166442 25.12516076 27.24166442 25.12516076 27.90576172 32.89355469 C27.41691642 37.89403468 24.50260734 42.26640265 21.09326172 45.83105469 C16.72279416 48.05402406 13.86891575 48.0249682 9.09326172 46.83105469 C4.34948379 43.86619348 0.44450176 39.29293624 -2.90673828 34.83105469 C-2.90673828 34.17105469 -2.90673828 33.51105469 -2.90673828 32.83105469 C-4.39173828 32.33605469 -4.39173828 32.33605469 -5.90673828 31.83105469 C-5.90673828 31.17105469 -5.90673828 30.51105469 -5.90673828 29.83105469 C-6.89673828 29.50105469 -7.88673828 29.17105469 -8.90673828 28.83105469 C-8.90673828 28.17105469 -8.90673828 27.51105469 -8.90673828 26.83105469 C-9.89673828 26.50105469 -10.88673828 26.17105469 -11.90673828 25.83105469 C-13.62548828 24.12402344 -13.62548828 24.12402344 -15.40673828 22.01855469 C-15.99455078 21.33148438 -16.58236328 20.64441406 -17.18798828 19.93652344 C-21.81526056 14.26811489 -21.81526056 14.26811489 -22.46923828 11.14355469 C-21.64206054 6.2723969 -19.24647322 2.45332686 -15.90673828 -1.16894531 C-10.85808696 -4.442752 -4.9099486 -3.01009397 0 0 Z " fill="#020202" transform="translate(383.90673828125,177.1689453125)"/>
<path d="M0 0 C0.99 0.33 1.98 0.66 3 1 C-2.37641772 8.19358683 -8.22882918 14.12536051 -15 20 C-19.04761086 23.85016643 -22.74203452 27.997135 -26.44921875 32.17211914 C-28.01753609 33.91080786 -29.60914472 35.62921473 -31.23779297 37.31152344 C-38.93289315 45.35853863 -44.8574117 54.3375212 -50.9375 63.625 C-52.47478357 65.96956811 -54.01481668 68.31203117 -55.56507874 70.64804077 C-56.52105157 72.08861884 -57.4696628 73.53411644 -58.40989685 74.98501587 C-61.66209738 79.88736579 -61.66209738 79.88736579 -65 81 C-65 80.01 -65 79.02 -65 78 C-71.78279684 83.98482074 -75.55145253 91.75347343 -79 100 C-80.60925889 103.03320918 -82.29140753 106.0217815 -84 109 C-84.66 109 -85.32 109 -86 109 C-86.18175781 109.71027344 -86.36351562 110.42054688 -86.55078125 111.15234375 C-86.92783203 112.53099609 -86.92783203 112.53099609 -87.3125 113.9375 C-87.55613281 114.85402344 -87.79976562 115.77054687 -88.05078125 116.71484375 C-88.36402344 117.46894531 -88.67726562 118.22304687 -89 119 C-89.99 119.33 -90.98 119.66 -92 120 C-93.01646532 122.16320821 -93.01646532 122.16320821 -94 125 C-94.62503207 126.29734708 -95.26595883 127.58709312 -95.91796875 128.87109375 C-101.9283459 140.90381297 -106.24602262 153.09490044 -110 166 C-110.66 165.34 -111.32 164.68 -112 164 C-114.7221887 168.95616421 -116.26717501 173.87940334 -117.7421875 179.296875 C-118.11559013 180.64489197 -118.11559013 180.64489197 -118.49653625 182.0201416 C-119.29775719 184.92787012 -120.08755517 187.83851261 -120.875 190.75 C-121.14390045 191.73754272 -121.4128009 192.72508545 -121.68984985 193.74255371 C-130.21494558 224.72830044 -130.21494558 224.72830044 -133.1328125 256.6015625 C-133.13376923 257.4004892 -133.13472595 258.19941589 -133.13571167 259.02255249 C-133.13638811 260.70497721 -133.13457149 262.38740461 -133.13037109 264.06982422 C-133.12505803 266.59739303 -133.13031237 269.12478068 -133.13671875 271.65234375 C-133.14413457 285.6991147 -132.30547314 299.36390666 -129.9296875 313.22265625 C-129.72859375 314.46208984 -129.72859375 314.46208984 -129.5234375 315.7265625 C-129.39888184 316.45439941 -129.27432617 317.18223633 -129.14599609 317.93212891 C-128.98752829 320.17664776 -129.34219253 321.86016616 -130 324 C-132.45803157 313.79590165 -133.83710329 303.81301382 -134.6875 293.375 C-134.75003967 292.62921692 -134.81257935 291.88343384 -134.87701416 291.11505127 C-137.9612933 254.00753477 -131.40056176 220.35909403 -121.52581787 184.65875244 C-120.97737887 182.67403014 -120.43298281 180.6881851 -119.89312744 178.70111084 C-113.84636622 156.54818645 -105.0030046 135.86352369 -93.1171875 116.20703125 C-90.4416009 111.77921594 -87.91293221 107.28378803 -85.41015625 102.7565918 C-79.88829838 92.79716508 -74.10449675 83.2217668 -67.4375 73.99072266 C-65.88398107 71.83933112 -64.34795828 69.67603209 -62.8125 67.51171875 C-48.3305705 47.18469895 -33.1586383 27.17028917 -14 11 C-13.50999512 10.58508301 -13.01999023 10.17016602 -12.51513672 9.74267578 C-10.88792352 8.36671257 -9.25725142 6.99498178 -7.625 5.625 C-7.10059326 5.18357666 -6.57618652 4.74215332 -6.03588867 4.28735352 C-2.2347909 1.11739545 -2.2347909 1.11739545 0 0 Z " fill="#382518" transform="translate(219,31)"/>
<path d="M0 0 C0.66 0 1.32 0 2 0 C2.18175781 0.82242187 2.36351562 1.64484375 2.55078125 2.4921875 C4.67342674 11.91891054 6.89950991 20.95575819 10.9765625 29.73828125 C12.0124318 32.02747333 12.91653231 34.34037098 13.8125 36.6875 C19.40803218 50.68713265 26.87251514 66.09081649 38.24902344 76.3449707 C40.04650652 78.04395813 41.64329536 79.82282735 43.25390625 81.69921875 C66.40402674 110.05973196 66.40402674 110.05973196 98 125 C105.58560052 125.45022449 112.57987381 125.25928148 118.6875 120.3125 C122.01770299 117.21907749 124.50179034 113.78516615 127 110 C127.33 110.66 127.66 111.32 128 112 C124.89572314 120.42589433 118.74041963 126.20743897 111.0625 130.73046875 C104.0408869 133.64121398 96.22334779 132.82245185 89.1875 130.25 C78.07084828 125.04365256 68.50512982 116.58943549 59.5 108.375 C58.9419165 107.86638428 58.38383301 107.35776855 57.80883789 106.83374023 C56.49603065 105.60024274 55.24148318 104.305258 54 103 C54 102.34 54 101.68 54 101 C53.34 101 52.68 101 52 101 C50.484375 99.4609375 50.484375 99.4609375 48.75 97.375 C46.45339927 94.65952241 44.12849225 92.08737736 41.5625 89.625 C39 87 39 87 39 85 C38.34 85 37.68 85 37 85 C23.17503521 71.97925753 14.36238438 54.78661831 7.25 37.5 C6.78996582 36.38488037 6.32993164 35.26976074 5.85595703 34.12084961 C-4.16716708 9.1470218 -4.16716708 9.1470218 -1 1.625 C-0.67 1.08875 -0.34 0.5525 0 0 Z " fill="#535353" transform="translate(183,274)"/>
<path d="M0 0 C0.33 0.99 0.66 1.98 1 3 C-0.31511793 5.11281241 -1.63388892 6.94812243 -3.1875 8.875 C-3.63222656 9.43856201 -4.07695312 10.00212402 -4.53515625 10.58276367 C-8.04105114 14.95847399 -11.72301908 19.16963306 -15.5 23.3125 C-16.0158667 23.88145996 -16.5317334 24.45041992 -17.06323242 25.03662109 C-18.33213993 26.39943578 -19.66124739 27.70573125 -21 29 C-21.66 29 -22.32 29 -23 29 C-23 29.66 -23 30.32 -23 31 C-34.39928448 41.71637804 -48.46287995 50.28016377 -62 58 C-62.59361328 58.34272949 -63.18722656 58.68545898 -63.79882812 59.03857422 C-80.21304774 68.44837245 -97.58675529 74.77821242 -116 79 C-117.26070313 79.309375 -117.26070313 79.309375 -118.546875 79.625 C-121.96894963 80.14811969 -125.36122029 80.10543458 -128.8125 80.0625 C-129.50537109 80.05798828 -130.19824219 80.05347656 -130.91210938 80.04882812 C-132.60811068 80.03713156 -134.30406703 80.01919924 -136 80 C-136 78.02 -136 76.04 -136 74 C-134.741875 73.90203125 -133.48375 73.8040625 -132.1875 73.703125 C-121.0931791 72.7648861 -110.67460729 71.1628466 -100 68 C-98.74703125 67.62875 -97.4940625 67.2575 -96.203125 66.875 C-69.45365528 58.43948258 -44.17146361 43.27846858 -23 25 C-21.72382813 23.92492187 -21.72382813 23.92492187 -20.421875 22.828125 C-14.18730926 17.43503439 -9.05716565 11.49363683 -4 5 C-2.66835312 3.33198557 -1.33552324 1.66491238 0 0 Z " fill="#5F5046" transform="translate(413,377)"/>
<path d="M0 0 C0.5775 0.20625 1.155 0.4125 1.75 0.625 C-0.23 0.955 -2.21 1.285 -4.25 1.625 C-4.58 2.945 -4.91 4.265 -5.25 5.625 C-2.28 4.965 0.69 4.305 3.75 3.625 C0.86730242 6.50769758 -2.70219851 7.20137038 -6.5 8.4375 C-36.62068565 18.68624062 -70.46253673 32.59011932 -92.25 56.625 C-93.2241454 57.60916232 -94.2029237 58.58877302 -95.1875 59.5625 C-96.2084375 60.5834375 -96.2084375 60.5834375 -97.25 61.625 C-98.25 58.625 -98.25 58.625 -97.4296875 56.390625 C-94.71186504 51.15027271 -91.95682186 46.23348123 -88.25 41.625 C-87.59 41.625 -86.93 41.625 -86.25 41.625 C-85.940625 41.00625 -85.63125 40.3875 -85.3125 39.75 C-84.625 38.375 -83.9375 37 -83.25 35.625 C-82.59 35.955 -81.93 36.285 -81.25 36.625 C-82.24 38.275 -83.23 39.925 -84.25 41.625 C-79.78939095 40.23105967 -76.61767444 37.74295013 -73.01953125 34.8671875 C-71.25 33.625 -71.25 33.625 -69.25 33.625 C-68.92 32.635 -68.59 31.645 -68.25 30.625 C-62.61822337 25.9297147 -55.84633772 22.72299098 -49.25 19.625 C-48.29609375 19.17511719 -47.3421875 18.72523438 -46.359375 18.26171875 C-43.63415806 16.99154854 -40.90260008 15.73687111 -38.16455078 14.49462891 C-36.8102795 13.87949064 -35.45720351 13.26171766 -34.10498047 12.64208984 C-25.73252832 8.81050633 -17.45782711 5.10430912 -8.6328125 2.4140625 C-6.23365946 1.68835554 -6.23365946 1.68835554 -4.0703125 0.5 C-2.25 -0.375 -2.25 -0.375 0 0 Z " fill="#796F68" transform="translate(261.25,152.375)"/>
<path d="M0 0 C0 4.04498536 -1.62875356 5.86617669 -3.8125 9.25 C-6.69620982 13.72526551 -8.95954542 18.08590521 -11 23 C-11.86819626 24.6605782 -12.76051327 26.3090098 -13.6875 27.9375 C-14.12449219 28.70964844 -14.56148437 29.48179687 -15.01171875 30.27734375 C-15.50091797 31.13005859 -15.50091797 31.13005859 -16 32 C-16.66 32 -17.32 32 -18 32 C-18.18175781 32.71027344 -18.36351562 33.42054688 -18.55078125 34.15234375 C-18.92783203 35.53099609 -18.92783203 35.53099609 -19.3125 36.9375 C-19.55613281 37.85402344 -19.79976562 38.77054688 -20.05078125 39.71484375 C-20.36402344 40.46894531 -20.67726562 41.22304687 -21 42 C-21.99 42.33 -22.98 42.66 -24 43 C-25.01646532 45.16320821 -25.01646532 45.16320821 -26 48 C-26.62503207 49.29734708 -27.26595883 50.58709312 -27.91796875 51.87109375 C-33.9283459 63.90381297 -38.24602262 76.09490044 -42 89 C-42.66 88.34 -43.32 87.68 -44 87 C-46.7221887 91.95616421 -48.26717501 96.87940334 -49.7421875 102.296875 C-50.11559013 103.64489197 -50.11559013 103.64489197 -50.49653625 105.0201416 C-51.29775719 107.92787012 -52.08755517 110.83851261 -52.875 113.75 C-53.14390045 114.73754272 -53.4128009 115.72508545 -53.68984985 116.74255371 C-62.21494558 147.72830044 -62.21494558 147.72830044 -65.1328125 179.6015625 C-65.13376923 180.4004892 -65.13472595 181.19941589 -65.13571167 182.02255249 C-65.13638811 183.70497721 -65.13457149 185.38740461 -65.13037109 187.06982422 C-65.12505803 189.59739303 -65.13031237 192.12478068 -65.13671875 194.65234375 C-65.14413457 208.6991147 -64.30547314 222.36390666 -61.9296875 236.22265625 C-61.72859375 237.46208984 -61.72859375 237.46208984 -61.5234375 238.7265625 C-61.39888184 239.45439941 -61.27432617 240.18223633 -61.14599609 240.93212891 C-60.98752829 243.17664776 -61.34219253 244.86016616 -62 247 C-64.45803157 236.79590165 -65.83710329 226.81301382 -66.6875 216.375 C-66.78130951 215.25632538 -66.78130951 215.25632538 -66.87701416 214.11505127 C-69.9612933 177.00753477 -63.40056176 143.35909403 -53.52581787 107.65875244 C-52.97737887 105.67403014 -52.43298281 103.6881851 -51.89312744 101.70111084 C-45.84886429 79.55733837 -37.0099924 58.88105945 -25.1328125 39.23046875 C-21.23096719 32.7725606 -17.58890617 26.1714862 -13.94335938 19.56640625 C-4.17027393 2.08513696 -4.17027393 2.08513696 0 0 Z " fill="#1F150E" transform="translate(151,108)"/>
<path d="M0 0 C0.680625 -0.01417969 1.36125 -0.02835938 2.0625 -0.04296875 C4 0.1875 4 0.1875 7 2.1875 C7.2934529 4.66385758 7.39621927 6.88623023 7.36328125 9.36328125 C7.36402901 10.44478706 7.36402901 10.44478706 7.36479187 11.54814148 C7.36244707 13.08233376 7.35269463 14.61652957 7.33618164 16.15063477 C7.31297371 18.45300535 7.31556884 20.75418592 7.32226562 23.05664062 C7.30383645 31.96226864 6.68311421 40.41931315 5 49.1875 C4.67 49.1875 4.34 49.1875 4 49.1875 C4 34.6675 4 20.1475 4 5.1875 C-6.25938181 6.66461532 -6.25938181 6.66461532 -14.875 10.3125 C-15.50229004 10.64088867 -16.12958008 10.96927734 -16.77587891 11.30761719 C-19.19465148 12.58158908 -21.59675296 13.88446287 -24 15.1875 C-27.7782741 17.21943296 -31.55839667 19.24784164 -35.34033203 21.27294922 C-37.98680957 22.69024045 -40.62775228 24.11713695 -43.26513672 25.55126953 C-66.76162159 38.26274609 -66.76162159 38.26274609 -74.2265625 36.73046875 C-74.81179687 36.55128906 -75.39703125 36.37210937 -76 36.1875 C-73.48878666 33.1963278 -70.96295933 32.26872928 -67.3125 31 C-59.22384235 27.99006044 -51.64983998 24.15930172 -44 20.1875 C-43.02289063 19.68057617 -42.04578125 19.17365234 -41.0390625 18.65136719 C-36.73423505 16.41606712 -32.43002864 14.17967752 -28.13183594 11.93164062 C-5.39593808 0.0510979 -5.39593808 0.0510979 0 0 Z " fill="#404040" transform="translate(322,234.8125)"/>
<path d="M0 0 C0 14.85 0 29.7 0 45 C-1.98 45 -3.96 45 -6 45 C-7.18975795 41.43072615 -7.12478155 38.20053028 -7.09765625 34.48828125 C-7.0962413 33.76005661 -7.09482635 33.03183197 -7.09336853 32.28153992 C-7.08777659 29.95848461 -7.07522562 27.63552612 -7.0625 25.3125 C-7.05748396 23.73632952 -7.05292123 22.16015752 -7.04882812 20.58398438 C-7.0378098 16.72261902 -7.02055074 12.86132592 -7 9 C-16.04855744 15.4869058 -16.04855744 15.4869058 -24.6875 22.5 C-25.25710449 22.98557373 -25.82670898 23.47114746 -26.41357422 23.97143555 C-29.86165543 26.96675252 -33.11959497 30.09315195 -36.30859375 33.36328125 C-37.02764893 34.100625 -37.7467041 34.83796875 -38.48754883 35.59765625 C-39.89456005 37.05561237 -41.28936244 38.52546659 -42.6706543 40.0078125 C-43.307854 40.67167969 -43.94505371 41.33554687 -44.6015625 42.01953125 C-45.16182129 42.61870361 -45.72208008 43.21787598 -46.29931641 43.83520508 C-48 45 -48 45 -50.21240234 44.6862793 C-51.09726318 44.34657104 -51.09726318 44.34657104 -52 44 C-48.58942868 40.56446391 -45.1753981 37.13241435 -41.75830078 33.70336914 C-40.59949681 32.53957726 -39.44159678 31.37488451 -38.28466797 30.20922852 C-29.51352362 21.3736462 -20.65050193 13.06062327 -10.6875 5.5625 C-9.98560547 5.02173828 -9.28371094 4.48097656 -8.56054688 3.92382812 C-7.88443359 3.41400391 -7.20832031 2.90417969 -6.51171875 2.37890625 C-5.60619263 1.69163452 -5.60619263 1.69163452 -4.68237305 0.99047852 C-3 0 -3 0 0 0 Z " fill="#543E2E" transform="translate(258,495)"/>
<path d="M0 0 C0.33 0 0.66 0 1 0 C1.495 2.97 1.495 2.97 2 6 C2.33 6 2.66 6 3 6 C6.3142525 21.46651168 -2.47527121 41.20789036 -9 55 C-9.64923579 56.45682178 -10.29498342 57.91520233 -10.9375 59.375 C-13.25806525 64.59858313 -15.62819553 69.7995271 -18 75 C-18.66 75 -19.32 75 -20 75 C-20.23203125 75.67289062 -20.4640625 76.34578125 -20.703125 77.0390625 C-22.34036884 80.77710718 -24.46957898 84.00154378 -26.75 87.375 C-27.19520996 88.03894775 -27.64041992 88.70289551 -28.09912109 89.38696289 C-31.13524534 93.86185984 -34.31909792 98.02850038 -38 102 C-38.33 101.01 -38.66 100.02 -39 99 C-37.65641578 96.90758329 -36.27766431 95.01408282 -34.75 93.0625 C-14.5494759 66.02242838 -4.30456739 33.18682599 0 0 Z " fill="#5B4739" transform="translate(427,274)"/>
<path d="M0 0 C11.4232667 4.38152695 18.69434863 22.8031281 24 33 C24.38833008 33.73138184 24.77666016 34.46276367 25.17675781 35.21630859 C25.54381836 35.92223145 25.91087891 36.6281543 26.2890625 37.35546875 C26.7833374 38.29942505 26.7833374 38.29942505 27.28759766 39.26245117 C28 41 28 41 28 44 C25.36 44 22.72 44 20 44 C19.50371094 43.11699219 19.00742187 42.23398437 18.49609375 41.32421875 C15.19113767 35.47648497 11.85719843 29.69250741 8.1875 24.0625 C5.63884661 20.13525682 3.74997764 16.32889205 2 12 C1.34 11.34 0.68 10.68 0 10 C-0.1953125 7.6171875 -0.1953125 7.6171875 -0.125 4.875 C-0.10695313 3.96492188 -0.08890625 3.05484375 -0.0703125 2.1171875 C-0.04710937 1.41851562 -0.02390625 0.71984375 0 0 Z " fill="#777370" transform="translate(276,496)"/>
<path d="M0 0 C-0.33 0.99 -0.66 1.98 -1 3 C-0.34 3.33 0.32 3.66 1 4 C-16.39207722 11.36880439 -33.89539827 17.32059459 -53 16 C-53 14.02 -53 12.04 -53 10 C-51.1128125 9.85304688 -51.1128125 9.85304688 -49.1875 9.703125 C-34.5993425 8.46834576 -21.32732564 5.80071381 -7.55078125 0.734375 C-4.9069664 -0.02678456 -2.73576475 -0.13802056 0 0 Z " fill="#685A51" transform="translate(330,441)"/>
<path d="M0 0 C0.66 0.33 1.32 0.66 2 1 C1.73445312 1.89976562 1.46890625 2.79953125 1.1953125 3.7265625 C-1.86349541 14.66595872 -3.01435795 25.46490664 -3.76635742 36.78027344 C-3.99354363 38.93866113 -4.45100626 40.90418663 -5 43 C-5.47459967 47.32413032 -5.74340479 51.65800658 -6 56 C-6.05542969 56.87527344 -6.11085938 57.75054687 -6.16796875 58.65234375 C-6.433298 66.44796966 -4.45106381 73.64680857 -2 81 C-0.68 81 0.64 81 2 81 C1.34 82.32 0.68 83.64 0 85 C-2.60606665 84.64054253 -3.77647209 84.23212513 -5.625 82.3125 C-8.74418063 77.06660531 -9.31608752 71.97671125 -9.3359375 65.98046875 C-9.34404449 65.21214218 -9.35215149 64.44381561 -9.36050415 63.65220642 C-9.379371 61.16380074 -9.37930148 58.6759674 -9.375 56.1875 C-9.3764502 55.34306335 -9.37790039 54.49862671 -9.37939453 53.62860107 C-9.376637 39.10090171 -8.08879235 25.23226796 -5 11 C-4.34 11 -3.68 11 -3 11 C-2.95101562 10.37351562 -2.90203125 9.74703125 -2.8515625 9.1015625 C-2.77679688 8.28429687 -2.70203125 7.46703125 -2.625 6.625 C-2.55539063 5.81289063 -2.48578125 5.00078125 -2.4140625 4.1640625 C-2 2 -2 2 0 0 Z " fill="#262626" transform="translate(134,277)"/>
<path d="M0 0 C0.27803467 0.58491211 0.55606934 1.16982422 0.8425293 1.77246094 C4.92130739 9.62202249 11.42449744 15.64512987 17.6875 21.75 C19.38116658 23.40915413 21.07266207 25.07052812 22.76171875 26.734375 C23.50381592 27.45850586 24.24591309 28.18263672 25.01049805 28.92871094 C27 31 27 31 28.59619141 33.2421875 C29.91259463 35.30148982 29.91259463 35.30148982 32.69921875 35.390625 C33.68535156 35.34421875 34.67148437 35.2978125 35.6875 35.25 C36.68136719 35.21390625 37.67523438 35.1778125 38.69921875 35.140625 C39.45847656 35.09421875 40.21773438 35.0478125 41 35 C39.25 38.875 39.25 38.875 37 40 C29.92753623 40.57971014 29.92753623 40.57971014 26 38.125 C24 36 24 36 24 34 C23.4225 33.9175 22.845 33.835 22.25 33.75 C19.3460664 32.78202213 17.96259396 31.31305716 16 29 C16 28.34 16 27.68 16 27 C15.01 26.67 14.02 26.34 13 26 C13 25.34 13 24.68 13 24 C12.01 23.67 11.02 23.34 10 23 C10 22.34 10 21.68 10 21 C9.01 20.67 8.02 20.34 7 20 C3.21994783 16.39674315 -0.89996061 12.22518708 -2 7 C-1.46808511 1.46808511 -1.46808511 1.46808511 0 0 Z " fill="#606060" transform="translate(365,183)"/>
<path d="M0 0 C-0.58789307 0.33620361 -1.17578613 0.67240723 -1.78149414 1.01879883 C-24.51159995 13.84414614 -24.51159995 13.84414614 -44 31 C-44.9741454 31.98416232 -45.9529237 32.96377302 -46.9375 33.9375 C-47.9584375 34.9584375 -47.9584375 34.9584375 -49 36 C-50 33 -50 33 -49.1796875 30.765625 C-46.46186504 25.52527271 -43.70682186 20.60848123 -40 16 C-39.34 16 -38.68 16 -38 16 C-37.690625 15.38125 -37.38125 14.7625 -37.0625 14.125 C-36.375 12.75 -35.6875 11.375 -35 10 C-34.34 10.33 -33.68 10.66 -33 11 C-33.99 12.65 -34.98 14.3 -36 16 C-32.43596713 14.88623973 -29.89468691 13.22364477 -27 10.9375 C-23.9772051 8.60093058 -21.88804024 7.31524651 -18 7 C-16.33333333 6.66666667 -14.66666667 6.33333333 -13 6 C-13 5.34 -13 4.68 -13 4 C-4.82242991 -1.60747664 -4.82242991 -1.60747664 0 0 Z " fill="#564235" transform="translate(213,178)"/>
<path d="M0 0 C0.33 0 0.66 0 1 0 C0.35871659 5.40856005 -0.40437676 10.76592064 -1.375 16.125 C-1.4884375 16.80175781 -1.601875 17.47851562 -1.71875 18.17578125 C-2.30382053 21.39366916 -3.03437462 24.06857067 -4.50390625 27 C-6.27186762 30.54515491 -6.93733035 34.00581815 -7.5625 37.875 C-8.50753231 43.31718999 -9.55555677 48.66667113 -11 54 C-11.33 54 -11.66 54 -12 54 C-12.33 52.35 -12.66 50.7 -13 49 C-13.66 50.98 -14.32 52.96 -15 55 C-16.09354151 51.69537407 -15.88572913 49.62899768 -14.96777344 46.29492188 C-14.71711121 45.36715942 -14.46644897 44.43939697 -14.20819092 43.48352051 C-13.92808167 42.48864624 -13.64797241 41.49377197 -13.359375 40.46875 C-13.07652649 39.44068237 -12.79367798 38.41261475 -12.5022583 37.35339355 C-11.90162744 35.18007067 -11.29609163 33.00809829 -10.68603516 30.83740234 C-9.75459683 27.51638985 -8.84304181 24.19037413 -7.93359375 20.86328125 C-7.34754117 18.75227427 -6.76033961 16.64158587 -6.171875 14.53125 C-5.89986267 13.53637573 -5.62785034 12.54150146 -5.34759521 11.51647949 C-4.9526889 10.12483582 -4.9526889 10.12483582 -4.54980469 8.70507812 C-4.32250671 7.89107544 -4.09520874 7.07707275 -3.86102295 6.23840332 C-2.91081184 3.76813733 -1.72040951 2.00247556 0 0 Z " fill="#725948" transform="translate(107,194)"/>
<path d="M0 0 C0.69140625 1.72265625 0.69140625 1.72265625 1 4 C-0.16015625 6.05859375 -0.16015625 6.05859375 -2.0625 8.4375 C-7.1465274 15.04493277 -11.6542777 21.99119594 -16.16235352 29.00170898 C-16.74428467 29.89059814 -17.32621582 30.7794873 -17.92578125 31.6953125 C-18.44567627 32.49984863 -18.96557129 33.30438477 -19.5012207 34.13330078 C-21 36 -21 36 -24 37 C-24 36.01 -24 35.02 -24 34 C-24.99 34.495 -24.99 34.495 -26 35 C-24.1624434 31.04525862 -21.83614018 27.42214367 -19.5 23.75 C-19.09652344 23.1003125 -18.69304687 22.450625 -18.27734375 21.78125 C-17.23975959 20.15124981 -16.12546338 18.57060934 -15 17 C-14.34 17 -13.68 17 -13 17 C-12.73058594 16.27039063 -12.46117187 15.54078125 -12.18359375 14.7890625 C-11.03026366 12.07131436 -9.71167487 9.8172895 -8.0625 7.375 C-7.55847656 6.61960937 -7.05445313 5.86421875 -6.53515625 5.0859375 C-2.79213483 0 -2.79213483 0 0 0 Z " fill="#0E0B09" transform="translate(178,75)"/>
<path d="M0 0 C0.66 0 1.32 0 2 0 C2.18175781 0.82242187 2.36351562 1.64484375 2.55078125 2.4921875 C4.67008155 11.90405447 6.90715697 20.91076575 10.9453125 29.69140625 C12.11647806 32.25495754 13.22981322 34.83531832 14.3125 37.4375 C14.65925781 38.26121094 15.00601563 39.08492188 15.36328125 39.93359375 C16 42 16 42 15 44 C14.34 43.67 13.68 43.34 13 43 C12.67 43.66 12.34 44.32 12 45 C-1.91575489 10.24179404 -1.91575489 10.24179404 -1 2 C-0.67 1.34 -0.34 0.68 0 0 Z " fill="#696969" transform="translate(183,274)"/>
<path d="M0 0 C0.99 0.33 1.98 0.66 3 1 C-1.57548992 7.01350104 -6.06590633 12.30217584 -12 17 C-12.33 16.34 -12.66 15.68 -13 15 C-13.66 15 -14.32 15 -15 15 C-15.33 15.99 -15.66 16.98 -16 18 C-17.66406229 19.00432786 -19.33127756 20.00343429 -21 21 C-22.95219918 22.86579479 -24.83254378 24.73159378 -26.6875 26.6875 C-28.42157433 28.51368984 -30.17064173 30.26490818 -32 32 C-32.66 32 -33.32 32 -34 32 C-34.2475 32.598125 -34.495 33.19625 -34.75 33.8125 C-36.16370012 36.28647521 -37.65055383 37.43370255 -40 39 C-34.34503618 25.64800209 -12.87642251 6.43821125 0 0 Z " fill="#010000" transform="translate(219,31)"/>
<path d="M0 0 C0.66 0.33 1.32 0.66 2 1 C2.05013226 5.60406987 2.0860587 10.20797445 2.10986328 14.81225586 C2.11980628 16.37250543 2.13336547 17.93273696 2.15087891 19.49291992 C2.25727962 29.22858536 1.87316134 38.40928721 0 48 C-0.33 48 -0.66 48 -1 48 C-1 33.48 -1 18.96 -1 4 C-4.96 3.67 -8.92 3.34 -13 3 C-9.17385544 -0.82614456 -5.07298902 -0.16104727 0 0 Z " fill="#696969" transform="translate(327,236)"/>
<path d="M0 0 C0.33 0 0.66 0 1 0 C1.33 14.52 1.66 29.04 2 44 C0.35 44 -1.3 44 -3 44 C-3.11409238 33.84577797 -3.00241407 23.71101222 -2.625 13.5625 C-2.59414307 12.56210693 -2.56328613 11.56171387 -2.53149414 10.53100586 C-2.4927417 9.59393799 -2.45398926 8.65687012 -2.4140625 7.69140625 C-2.3826416 6.85810791 -2.3512207 6.02480957 -2.31884766 5.16625977 C-2 3 -2 3 0 0 Z " fill="#7C7A7A" transform="translate(256,496)"/>
<path d="M0 0 C0 1.32 0 2.64 0 4 C-3.57923338 4.59102918 -7.16344897 5.14279256 -10.75 5.6875 C-12.27367187 5.93983398 -12.27367187 5.93983398 -13.828125 6.19726562 C-15.29765625 6.41479492 -15.29765625 6.41479492 -16.796875 6.63671875 C-17.69760742 6.77811279 -18.59833984 6.91950684 -19.52636719 7.06518555 C-22.59386178 6.98435046 -23.76801361 6.02928559 -26 4 C-25.51171875 2.0859375 -25.51171875 2.0859375 -24 0 C-21.16686366 -0.69395246 -18.68816436 -1.1076094 -15.8125 -1.375 C-15.06935547 -1.46910156 -14.32621094 -1.56320312 -13.56054688 -1.66015625 C-8.50931819 -2.20025257 -4.78985095 -1.68755014 0 0 Z " fill="#000000" transform="translate(406,497)"/>
<path d="M0 0 C0.33 0.66 0.66 1.32 1 2 C-0.27040256 4.79732872 -1.60425235 7.51584916 -3 10.25 C-8.22235514 20.80061746 -11.71835762 31.71865295 -15 43 C-15.66 42.34 -16.32 41.68 -17 41 C-17.99 41.495 -17.99 41.495 -19 42 C-17.17396434 32.36561783 -14.26458039 23.68708919 -10.0625 14.8125 C-9.64371582 13.91635986 -9.22493164 13.02021973 -8.79345703 12.09692383 C-6.41066688 7.21622618 -4.11991892 3.55978683 0 0 Z " fill="#624E40" transform="translate(124,154)"/>
<path d="M0 0 C0.495 1.485 0.495 1.485 1 3 C-0.31511793 5.11281241 -1.63388892 6.94812243 -3.1875 8.875 C-3.63222656 9.43856201 -4.07695312 10.00212402 -4.53515625 10.58276367 C-8.04105114 14.95847399 -11.72301908 19.16963306 -15.5 23.3125 C-16.27380005 24.16593994 -16.27380005 24.16593994 -17.06323242 25.03662109 C-18.33213993 26.39943578 -19.66124739 27.70573125 -21 29 C-21.66 29 -22.32 29 -23 29 C-23 29.66 -23 30.32 -23 31 C-25.08203125 32.91015625 -25.08203125 32.91015625 -27.8125 35.0625 C-29.15248047 36.13177734 -29.15248047 36.13177734 -30.51953125 37.22265625 C-33 39 -33 39 -36 40 C-36 39.34 -36 38.68 -36 38 C-35.01 37.34 -34.02 36.68 -33 36 C-33 35.01 -33 34.02 -33 33 C-31.1640625 31.2734375 -31.1640625 31.2734375 -28.625 29.375 C-19.1958583 22.07373231 -11.33434321 14.41763914 -4 5 C-2.66835312 3.33198557 -1.33552324 1.66491238 0 0 Z " fill="#4F3A2B" transform="translate(413,377)"/>
<path d="M0 0 C0.5775 0.20625 1.155 0.4125 1.75 0.625 C-0.23 0.955 -2.21 1.285 -4.25 1.625 C-4.58 2.945 -4.91 4.265 -5.25 5.625 C-2.28 4.965 0.69 4.305 3.75 3.625 C1.58988635 5.78511365 0.34735058 6.25823174 -2.50390625 7.2109375 C-3.7868457 7.64792969 -3.7868457 7.64792969 -5.09570312 8.09375 C-5.99224609 8.3928125 -6.88878906 8.691875 -7.8125 9 C-13.84518703 11.02133027 -19.6478549 13.14582553 -25.35522461 15.97509766 C-27.25 16.625 -27.25 16.625 -30.25 15.625 C-29.46625 15.3775 -28.6825 15.13 -27.875 14.875 C-24.82704392 13.42359234 -24.52463336 12.62949293 -23.25 9.625 C-20.65037441 6.21921874 -17.27787772 5.3898405 -13.3125 4.0625 C-8.53475207 2.48546591 -8.53475207 2.48546591 -3.94921875 0.44921875 C-2.25 -0.375 -2.25 -0.375 0 0 Z " fill="#544941" transform="translate(261.25,152.375)"/>
<path d="M0 0 C0.52722656 0.22945313 1.05445313 0.45890625 1.59765625 0.6953125 C0.92210315 3.03618254 0.06530429 4.39023676 -1.98388672 5.72705078 C-4.0765175 6.8061866 -6.19056598 7.79634814 -8.33984375 8.7578125 C-9.10385498 9.10706787 -9.86786621 9.45632324 -10.6550293 9.81616211 C-26.15352723 16.74011974 -26.15352723 16.74011974 -32.40234375 14.6953125 C-29.87251617 11.66995168 -27.27057857 10.73425047 -23.58984375 9.4453125 C-17.19394047 7.10779628 -11.3684707 4.19225766 -5.3984375 0.953125 C-2.40234375 -0.3046875 -2.40234375 -0.3046875 0 0 Z " fill="#2C2C2C" transform="translate(278.40234375,256.3046875)"/>
<path d="M0 0 C0.33 0 0.66 0 1 0 C0.98428955 0.8156543 0.9685791 1.63130859 0.95239258 2.47167969 C0.90063225 5.55808062 0.86334786 8.64425715 0.83520508 11.73095703 C0.8130657 13.69969568 0.77490648 15.66823362 0.73632812 17.63671875 C0.66477722 27.03373755 2.03761393 35.1128418 5 44 C6.32 44 7.64 44 9 44 C8.34 45.32 7.68 46.64 7 48 C4.39393335 47.64054253 3.22352791 47.23212513 1.375 45.3125 C-1.47529313 40.5188252 -2.25122538 36.06626753 -2.23046875 30.54296875 C-2.22853516 29.34865234 -2.22660156 28.15433594 -2.22460938 26.92382812 C-2.20624023 25.0743457 -2.20624023 25.0743457 -2.1875 23.1875 C-2.18685547 21.93517578 -2.18621094 20.68285156 -2.18554688 19.39257812 C-2.14036515 10.14036515 -2.14036515 10.14036515 -1 9 C-0.76807135 7.48530552 -0.58784762 5.96245438 -0.4375 4.4375 C-0.35371094 3.61121094 -0.26992187 2.78492188 -0.18359375 1.93359375 C-0.12300781 1.29550781 -0.06242187 0.65742188 0 0 Z " fill="#6C6C6C" transform="translate(127,314)"/>
<path d="M0 0 C0.33 0 0.66 0 1 0 C0.96519531 1.26972656 0.93039063 2.53945313 0.89453125 3.84765625 C0.69179948 14.68113542 1.32152319 24.47741254 4 35 C5.98 35 7.96 35 10 35 C9.67 37.31 9.34 39.62 9 42 C5.75 42.75 5.75 42.75 2 43 C-1.85544222 40.39497147 -2.77043633 37.35982783 -4 33 C-5.15286968 23.5965934 -5.15770461 14.40412362 -4 5 C-3.67 5 -3.34 5 -3 5 C-2.9906543 5.74048584 -2.98130859 6.48097168 -2.97167969 7.24389648 C-2.91755399 10.64240652 -2.83398888 14.03960202 -2.75 17.4375 C-2.73582031 18.60216797 -2.72164063 19.76683594 -2.70703125 20.96679688 C-2.51885975 27.64688511 -2.2787009 34.51169788 2 40 C4.06158813 40.78017746 4.06158813 40.78017746 6 41 C6.66 40.01 7.32 39.02 8 38 C6.68 38 5.36 38 4 38 C-1.93053347 25.06065424 -1.22465246 13.95229055 0 0 Z " fill="#191919" transform="translate(128,320)"/>
<path d="M0 0 C0.99 0.33 1.98 0.66 3 1 C3.51398233 14.24932222 3.19682038 27.46129624 -4 39 C-5.13202595 35.56952635 -4.86914588 33.02821551 -4.2578125 29.4921875 C-3.98904297 27.88730469 -3.98904297 27.88730469 -3.71484375 26.25 C-3.52019531 25.13625 -3.32554687 24.0225 -3.125 22.875 C-1.81986307 15.26020109 -0.63953842 7.70264403 0 0 Z " fill="#4C4C4C" transform="translate(323,285)"/>
<path d="M0 0 C0.495 0.99 0.495 0.99 1 2 C-2.10786863 10.43564343 -8.2605038 16.15502651 -15.90234375 20.7421875 C-19.38775427 22.15744877 -21.93939005 22.36909167 -25.6875 22.3125 C-26.80511719 22.30863281 -27.92273438 22.30476563 -29.07421875 22.30078125 C-32 22 -32 22 -35 20 C-33.77023437 20.03480469 -33.77023437 20.03480469 -32.515625 20.0703125 C-31.43796875 20.08835937 -30.3603125 20.10640625 -29.25 20.125 C-28.18265625 20.14820313 -27.1153125 20.17140625 -26.015625 20.1953125 C-22.7066871 20.17706893 -22.7066871 20.17706893 -19 18 C-26.425 17.01 -26.425 17.01 -34 16 C-34 15.67 -34 15.34 -34 15 C-33.0821875 15.02320313 -32.164375 15.04640625 -31.21875 15.0703125 C-17.78788479 15.38598767 -17.78788479 15.38598767 -6.609375 8.73046875 C-4.07818561 6.00882579 -2.04659082 3.10089518 0 0 Z " fill="#262626" transform="translate(310,384)"/>
<path d="M0 0 C1.05306471 3.59585369 0.8382138 5.00764875 -0.875 8.375 C-2.58024159 11.93248677 -3.59350357 15.03665985 -4 19 C-4.66 19 -5.32 19 -6 19 C-6.23203125 19.67289062 -6.4640625 20.34578125 -6.703125 21.0390625 C-8.34036884 24.77710718 -10.46957898 28.00154378 -12.75 31.375 C-13.41781494 32.37092163 -13.41781494 32.37092163 -14.09912109 33.38696289 C-17.13524534 37.86185984 -20.31909792 42.02850038 -24 46 C-24.495 44.515 -24.495 44.515 -25 43 C-23.65642178 40.90759263 -22.27799457 39.01382421 -20.75 37.0625 C-16.35637255 31.19775672 -12.63518622 25.11784968 -9.125 18.6875 C-8.67350586 17.86451416 -8.22201172 17.04152832 -7.75683594 16.19360352 C-4.90400704 10.90376199 -2.35873728 5.5272027 0 0 Z " fill="#402613" transform="translate(413,330)"/>
<path d="M0 0 C0.33 0 0.66 0 1 0 C1.33 1.98 1.66 3.96 2 6 C2.33 6 2.66 6 3 6 C4.0006709 11.96345767 4.0662997 16.28728907 2 22 C1.34 20.68 0.68 19.36 0 18 C0.061875 18.680625 0.12375 19.36125 0.1875 20.0625 C-0.05161176 23.80858417 -1.52803065 26.56540485 -3 30 C-2.979375 30.886875 -2.95875 31.77375 -2.9375 32.6875 C-3 35 -3 35 -5 37.3125 C-5.66 37.869375 -6.32 38.42625 -7 39 C-6.28032029 32.20393366 -4.9398709 25.61438707 -3.5 18.9375 C-1.47262243 9.51732404 -1.47262243 9.51732404 0 0 Z " fill="#625349" transform="translate(427,274)"/>
<path d="M0 0 C0.66 0.33 1.32 0.66 2 1 C-1.49253536 4.77167852 -4.83558479 7.28840289 -9.375 9.6875 C-10.99535156 10.55955078 -10.99535156 10.55955078 -12.6484375 11.44921875 C-16.10479512 13.04848912 -19.32225449 14.05495907 -23 15 C-23 14.01 -23 13.02 -23 12 C-16.94392131 6.28037012 -7.78815793 2.65810968 0 0 Z " fill="#746153" transform="translate(303,469)"/>
<path d="M0 0 C0.99 0.33 1.98 0.66 3 1 C2.360625 1.2475 1.72125 1.495 1.0625 1.75 C0.381875 2.1625 -0.29875 2.575 -1 3 C-1.10957031 3.61101562 -1.21914063 4.22203125 -1.33203125 4.8515625 C-2.29716698 7.95580024 -4.08704678 8.83656692 -6.75 10.625 C-7.61109375 11.21539062 -8.4721875 11.80578125 -9.359375 12.4140625 C-11.85515979 13.91301017 -14.26880804 15.00773242 -17 16 C-17 15.34 -17 14.68 -17 14 C-16.34 14 -15.68 14 -15 14 C-15 13.34 -15 12.68 -15 12 C-15.66 11.67 -16.32 11.34 -17 11 C-16.27554687 10.54109375 -15.55109375 10.0821875 -14.8046875 9.609375 C-13.83789062 8.99578125 -12.87109375 8.3821875 -11.875 7.75 C-10.87210937 7.11578125 -9.86921875 6.4815625 -8.8359375 5.828125 C-6.67488185 4.4350478 -4.58391555 3.00211172 -2.5 1.5 C-1.675 1.005 -0.85 0.51 0 0 Z " fill="#564133" transform="translate(378,412)"/>
<path d="M0 0 C0.66 0 1.32 0 2 0 C1.5236925 4.28676746 -0.98085758 6.11809132 -4 9 C-4.86465706 10.07497905 -5.71896572 11.1583674 -6.5625 12.25 C-9.02446948 15.02760659 -9.5721588 15.42869313 -13 16 C-14.73026102 17.47890069 -14.73026102 17.47890069 -16 19 C-16.99 18.34 -17.98 17.68 -19 17 C-18.50371094 16.57589844 -18.00742188 16.15179688 -17.49609375 15.71484375 C-13.31210123 12.10247829 -9.33815532 8.40336645 -5.54296875 4.3828125 C-4 3 -4 3 -1 2 C-0.67 1.34 -0.34 0.68 0 0 Z " fill="#262321" transform="translate(204,46)"/>
<path d="M0 0 C-0.88806622 5.48798961 -5.02613455 8.53938517 -8.8125 12.3125 C-9.53759766 13.06595703 -10.26269531 13.81941406 -11.00976562 14.59570312 C-11.71423828 15.30275391 -12.41871094 16.00980469 -13.14453125 16.73828125 C-13.78753174 17.38837158 -14.43053223 18.03846191 -15.09301758 18.70825195 C-17 20 -17 20 -19.2409668 19.70385742 C-19.82144775 19.47158447 -20.40192871 19.23931152 -21 19 C-17.88307091 15.82530062 -14.75516454 12.66164608 -11.625 9.5 C-10.73554688 8.59378906 -9.84609375 7.68757812 -8.9296875 6.75390625 C-8.07890625 5.89667969 -7.228125 5.03945313 -6.3515625 4.15625 C-5.17327881 2.96225586 -5.17327881 2.96225586 -3.97119141 1.74414062 C-2 0 -2 0 0 0 Z " fill="#4D3625" transform="translate(227,520)"/>
<path d="M0 0 C0.66 0.33 1.32 0.66 2 1 C1.93976735 2.60520004 1.85091401 4.20934327 1.75 5.8125 C1.68039062 7.15248047 1.68039062 7.15248047 1.609375 8.51953125 C1 11 1 11 -0.8359375 12.76953125 C-3.94872215 14.53943588 -6.4301366 14.87690126 -10 15 C-14.74615635 13.35709972 -16.81089907 11.49981858 -19 7 C-18.34 7 -17.68 7 -17 7 C-16.29875 7.825 -15.5975 8.65 -14.875 9.5 C-11.98766065 12.01072987 -11.49652909 12.41006486 -7.9375 12.5625 C-3.98941698 12.33865668 -3.98941698 12.33865668 -1.5 10 C-1.005 9.34 -0.51 8.68 0 8 C-0.99 8.495 -0.99 8.495 -2 9 C-3.54023996 9.06950541 -5.08334988 9.08452357 -6.625 9.0625 C-7.85089844 9.04896484 -7.85089844 9.04896484 -9.1015625 9.03515625 C-10.04128906 9.01775391 -10.04128906 9.01775391 -11 9 C-11 8.67 -11 8.34 -11 8 C-9.39125 7.690625 -9.39125 7.690625 -7.75 7.375 C-3.29408826 5.7411657 -2.22222392 4.08889201 0 0 Z " fill="#121212" transform="translate(406,210)"/>
<path d="M0 0 C0.66 0.33 1.32 0.66 2 1 C-1.09015221 4.13949141 -4.18674696 7.27243757 -7.28955078 10.39941406 C-8.34474509 11.4646826 -9.39813964 12.53173697 -10.44970703 13.60058594 C-11.95919727 15.13426216 -13.47498699 16.66145568 -14.9921875 18.1875 C-16.35899658 19.57001953 -16.35899658 19.57001953 -17.75341797 20.98046875 C-20 23 -20 23 -22 23 C-22.268125 23.61875 -22.53625 24.2375 -22.8125 24.875 C-24 27 -24 27 -27 29 C-25.63015754 23.39609902 -25.63015754 23.39609902 -22.8125 21.625 C-21.884375 21.08875 -20.95625 20.5525 -20 20 C-18.96503853 18.88564423 -17.96958499 17.73418211 -17 16.5625 C-11.8949905 10.47969357 -5.88434964 5.30918765 0 0 Z " fill="#110B06" transform="translate(214,509)"/>
<path d="M0 0 C0 0.99 0 1.98 0 3 C-1.41478135 3.64995297 -2.83191487 4.29478722 -4.25 4.9375 C-5.43335938 5.47697266 -5.43335938 5.47697266 -6.640625 6.02734375 C-8.75823698 6.90033279 -10.76669362 7.51338508 -13 8 C-13 8.66 -13 9.32 -13 10 C-15.64 10.99 -18.28 11.98 -21 13 C-19.7044242 7.81769679 -17.8222858 7.18137291 -13.48828125 4.46484375 C-3.76958002 -1.25652667 -3.76958002 -1.25652667 0 0 Z " fill="#716761" transform="translate(213,174)"/>
<path d="M0 0 C0.33 0 0.66 0 1 0 C1.309375 1.134375 1.61875 2.26875 1.9375 3.4375 C2.62924531 6.78775099 2.62924531 6.78775099 4 8 C6.18639453 8.07258946 8.37500389 8.08373783 10.5625 8.0625 C11.76003906 8.05347656 12.95757812 8.04445313 14.19140625 8.03515625 C15.58166016 8.01775391 15.58166016 8.01775391 17 8 C17 8.66 17 9.32 17 10 C3.57179324 13.41033823 3.57179324 13.41033823 -0.9375 10.9375 C-2.59162584 7.92115289 -2.30575763 5.36333392 -2 2 C-1.34 1.34 -0.68 0.68 0 0 Z " fill="#727272" transform="translate(228,264)"/>
<path d="M0 0 C0.66 0.33 1.32 0.66 2 1 C-0.91236539 2.65353259 -3.83058604 4.29644905 -6.75 5.9375 C-7.575 6.40607422 -8.4 6.87464844 -9.25 7.35742188 C-10.04921875 7.80537109 -10.8484375 8.25332031 -11.671875 8.71484375 C-12.4050293 9.12855225 -13.13818359 9.54226074 -13.89355469 9.96850586 C-15.9300979 10.96577001 -17.78593284 11.542747 -20 12 C-20.33 10.68 -20.66 9.36 -21 8 C-18.92426919 6.79715599 -16.84116905 5.61294299 -14.75 4.4375 C-13.87021484 3.92413086 -13.87021484 3.92413086 -12.97265625 3.40039062 C-8.51591928 0.92164366 -8.51591928 0.92164366 -5.7109375 1.34765625 C-4.86402344 1.67056641 -4.86402344 1.67056641 -4 2 C-2.65117592 1.36525925 -1.3153341 0.70151152 0 0 Z " fill="#2A2A2A" transform="translate(299,247)"/>
<path d="M0 0 C0.66 0 1.32 0 2 0 C2.33 17.16 2.66 34.32 3 52 C2.01 51.34 1.02 50.68 0 50 C-0.36076355 47.86129761 -0.36076355 47.86129761 -0.34057617 45.18310547 C-0.34034958 44.18221893 -0.34012299 43.1813324 -0.33988953 42.15011597 C-0.32440567 41.06674957 -0.30892181 39.98338318 -0.29296875 38.8671875 C-0.28872391 37.76021515 -0.28447906 36.6532428 -0.28010559 35.51272583 C-0.26327214 31.9665729 -0.2256108 28.42098203 -0.1875 24.875 C-0.17245922 22.47526861 -0.15876977 20.07552833 -0.14648438 17.67578125 C-0.11335338 11.78366141 -0.06310777 5.89187085 0 0 Z " fill="#212121" transform="translate(324,240)"/>
<path d="M0 0 C0.6640625 1.75390625 0.6640625 1.75390625 1 4 C-1.58904666 8.89582884 -5.82360122 13.38797944 -10 17 C-10.99 17 -11.98 17 -13 17 C-11.69933317 13.47761996 -10.16259119 10.48505871 -8.0625 7.375 C-7.55847656 6.61960937 -7.05445313 5.86421875 -6.53515625 5.0859375 C-2.79213483 0 -2.79213483 0 0 0 Z M-15 17 C-13 18 -13 18 -13 18 Z " fill="#1D1814" transform="translate(178,75)"/>
<path d="M0 0 C0.33 0 0.66 0 1 0 C1.71389322 6.59954618 0.6117758 12.29161649 -1.3125 18.5625 C-1.63190552 19.63467773 -1.63190552 19.63467773 -1.95776367 20.72851562 C-2.61328125 22.75390625 -2.61328125 22.75390625 -4 26 C-4.99 26.33 -5.98 26.66 -7 27 C-7.26487071 23.90984175 -7.22498372 22.36193033 -5.5625 19.6875 C-3.77582307 16.61441568 -3.56611575 14.39639953 -3.24609375 10.921875 C-2.92394329 8.40603333 -2.02576614 6.30797382 -1 4 C-0.64141484 2.67323492 -0.2981424 1.34164079 0 0 Z " fill="#746F6C" transform="translate(427,291)"/>
<path d="M0 0 C0.66 0.33 1.32 0.66 2 1 C1.39671875 1.82242188 0.7934375 2.64484375 0.171875 3.4921875 C-4.1381981 9.47805014 -7.84506251 14.94356187 -10.05078125 22.07421875 C-11.25760795 24.5226367 -12.50204703 25.03687174 -15 26 C-14.49790931 20.98670056 -12.78854979 17.37376015 -10.125 13.1875 C-9.77308594 12.60291016 -9.42117187 12.01832031 -9.05859375 11.41601562 C-6.38578742 7.12859581 -6.38578742 7.12859581 -3 6 C-1.83333333 4.08333333 -1.83333333 4.08333333 -1 2 C-0.67 1.34 -0.34 0.68 0 0 Z " fill="#5C4535" transform="translate(178,188)"/>
<path d="M0 0 C0.66 0.33 1.32 0.66 2 1 C1.74605469 1.94617188 1.49210938 2.89234375 1.23046875 3.8671875 C-1.47048596 14.16556454 -3.39260234 24.47885168 -5 35 C-5.33 35 -5.66 35 -6 35 C-4.36982249 4.36982249 -4.36982249 4.36982249 0 0 Z " fill="#696969" transform="translate(134,277)"/>
<path d="M0 0 C0.66 0 1.32 0 2 0 C2.33 2.97 2.66 5.94 3 9 C4.57201172 8.87431641 4.57201172 8.87431641 6.17578125 8.74609375 C7.55466381 8.64291206 8.93357143 8.54006494 10.3125 8.4375 C11.00279297 8.38142578 11.69308594 8.32535156 12.40429688 8.26757812 C15.62512274 8.03418495 17.90327345 7.96775782 21 9 C23.00875442 8.72428861 25.01178687 8.39764263 27 8 C24.96180154 10.03819846 23.70582202 10.67841059 21.0625 11.6875 C20.37285156 11.95949219 19.68320313 12.23148437 18.97265625 12.51171875 C17 13 17 13 14 12 C14.66 12 15.32 12 16 12 C16 11.34 16 10.68 16 10 C15.34 10.165 14.68 10.33 14 10.5 C4.86466165 12.02255639 4.86466165 12.02255639 1.0625 9.9375 C-0.52903176 7.03529503 -0.75792934 4.26795396 -1 1 C-0.67 0.67 -0.34 0.34 0 0 Z " fill="#2C2C2C" transform="translate(229,262)"/>
<path d="M0 0 C0.33 0 0.66 0 1 0 C1.33 1.98 1.66 3.96 2 6 C2.66 5.01 3.32 4.02 4 3 C3.2793124 9.77446344 2.32546052 17.29931418 -3 22 C-2.68905914 19.45813394 -2.37629464 16.91651402 -2.0625 14.375 C-1.97548828 13.66214844 -1.88847656 12.94929688 -1.79882812 12.21484375 C-1.29217395 8.12408039 -0.7110957 4.06157365 0 0 Z " fill="#242424" transform="translate(321,302)"/>
<path d="M0 0 C0.99 0.33 1.98 0.66 3 1 C2.505 1.433125 2.01 1.86625 1.5 2.3125 C-0.33218192 3.99740483 -0.33218192 3.99740483 0 7 C-1.75 9.04296875 -1.75 9.04296875 -4 11.1875 C-4.7425 11.90292969 -5.485 12.61835938 -6.25 13.35546875 C-6.8275 13.89816406 -7.405 14.44085938 -8 15 C-9 12 -9 12 -7.890625 9.58984375 C-7.34921875 8.71457031 -6.8078125 7.83929688 -6.25 6.9375 C-5.71890625 6.05964844 -5.1878125 5.18179688 -4.640625 4.27734375 C-3 2 -3 2 0 0 Z " fill="#3F2C1D" transform="translate(177,194)"/>
<path d="M0 0 C3.27782074 1.36833042 4.74414903 2.65538189 6.54296875 5.703125 C6.97673828 6.43660156 7.41050781 7.17007813 7.85742188 7.92578125 C8.29634766 8.69277344 8.73527344 9.45976563 9.1875 10.25 C9.63802734 11.00152344 10.08855469 11.75304687 10.55273438 12.52734375 C12.97184918 16.68372391 14.60297644 20.11116086 15 25 C11.83078145 21.04094505 9.48474901 16.64666342 7.04882812 12.22070312 C5.44316834 9.35279056 3.80271302 6.75347675 1.74609375 4.18359375 C0 2 0 2 0 0 Z " fill="#361803" transform="translate(280,512)"/>
<path d="M0 0 C0.33 0.99 0.66 1.98 1 3 C-0.48511223 5.30951321 -1.97592508 7.37056473 -3.6875 9.5 C-4.13544922 10.08136719 -4.58339844 10.66273438 -5.04492188 11.26171875 C-7.44431148 14.31421731 -9.71790644 16.8478075 -13 19 C-13 14.91064368 -11.37048964 13.71041522 -8.75 10.625 C-7.96109375 9.68914062 -7.1721875 8.75328125 -6.359375 7.7890625 C-5.58078125 6.86867188 -4.8021875 5.94828125 -4 5 C-2.6611204 3.33778553 -1.32590291 1.67258394 0 0 Z " fill="#332013" transform="translate(413,377)"/>
<path d="M0 0 C-1.98 0.99 -3.96 1.98 -6 3 C-3.69 3 -1.38 3 1 3 C-1.44563312 5.44563312 -3.75525172 6.34131255 -6.9375 7.6875 C-8.52884766 8.37392578 -8.52884766 8.37392578 -10.15234375 9.07421875 C-13 10 -13 10 -16 9 C-15.21625 8.7525 -14.4325 8.505 -13.625 8.25 C-10.57704392 6.79859234 -10.27463336 6.00449293 -9 3 C-5.98141411 -0.39590913 -4.4187726 -1.32563178 0 0 Z " fill="#4E3C30" transform="translate(247,159)"/>
<path d="M0 0 C0.99 0 1.98 0 3 0 C1.10463724 6.51819877 -1.5178994 12.17814801 -5 18 C-5.33 18 -5.66 18 -6 18 C-5.55397709 11.30965634 -2.92654458 5.97187878 0 0 Z " fill="#2D2D2D" transform="translate(307,345)"/>
<path d="M0 0 C0.99 0 1.98 0 3 0 C1.26375242 6.4188547 -0.85180745 12.13784836 -4 18 C-4.33 18 -4.66 18 -5 18 C-5.28773432 13.20922365 -4.44169975 9.99382444 -2.5 5.625 C-2.0359375 4.56539063 -1.571875 3.50578125 -1.09375 2.4140625 C-0.55234375 1.21910156 -0.55234375 1.21910156 0 0 Z " fill="#323232" transform="translate(315,326)"/>
<path d="M0 0 C0.33 0 0.66 0 1 0 C2.14012997 6.82704331 2.03799941 10.8024812 -1 17 C-0.979375 17.886875 -0.95875 18.77375 -0.9375 19.6875 C-1 22 -1 22 -3 24.3125 C-3.66 24.869375 -4.32 25.42625 -5 26 C-4.35215814 20.05349367 -3.28016565 14.32612517 -1.9375 8.5 C-1.75123047 7.67757813 -1.56496094 6.85515625 -1.37304688 6.0078125 C-0.91879115 4.0044283 -0.45988401 2.0020997 0 0 Z " fill="#40220E" transform="translate(425,287)"/>
<path d="M0 0 C0.33 0 0.66 0 1 0 C0.45018084 6.04801071 -0.90429574 11.30601106 -3 17 C-3.66 16.67 -4.32 16.34 -5 16 C-4.24228029 4.24228029 -4.24228029 4.24228029 0 0 Z " fill="#806F64" transform="translate(107,194)"/>
<path d="M0 0 C0 0.66 0 1.32 0 2 C-0.99 2 -1.98 2 -3 2 C-3 3.32 -3 4.64 -3 6 C-4.59915881 6.69906942 -6.20455045 7.38389468 -7.8125 8.0625 C-8.70582031 8.44535156 -9.59914063 8.82820312 -10.51953125 9.22265625 C-13 10 -13 10 -16 9 C-13.50506504 6.18368359 -10.73437182 4.59044019 -7.4375 2.8125 C-6.46683594 2.28269531 -5.49617188 1.75289062 -4.49609375 1.20703125 C-2 0 -2 0 0 0 Z " fill="#585858" transform="translate(308,240)"/>
<path d="M0 0 C0.33 0.99 0.66 1.98 1 3 C-0.28548409 4.33929505 -1.57858155 5.67128643 -2.875 7 C-3.59429687 7.7425 -4.31359375 8.485 -5.0546875 9.25 C-7 11 -7 11 -9 11 C-9.2475 11.598125 -9.495 12.19625 -9.75 12.8125 C-11.16370012 15.28647521 -12.65055383 16.43370255 -15 18 C-13.34890181 13.93122232 -10.46404222 11.02285879 -7.5 7.875 C-7.00113281 7.33746094 -6.50226563 6.79992188 -5.98828125 6.24609375 C-4.02214504 4.13236554 -2.04136111 2.04136111 0 0 Z " fill="#0D0500" transform="translate(194,52)"/>
<path d="M0 0 C-0.58395206 3.51149841 -1.83279645 5.29031758 -4.3125 7.8125 C-4.90675781 8.43769531 -5.50101562 9.06289063 -6.11328125 9.70703125 C-8 11 -8 11 -10.23046875 10.69921875 C-10.81441406 10.46847656 -11.39835937 10.23773438 -12 10 C-10.33333333 8.33333333 -8.66666667 6.66666667 -7 5 C-6.113125 4.071875 -5.22625 3.14375 -4.3125 2.1875 C-2 0 -2 0 0 0 Z " fill="#4B3220" transform="translate(400,395)"/>
<path d="M0 0 C1 3 1 3 0.2890625 4.859375 C-1.24455014 7.40610145 -2.90306443 9.82653513 -4.625 12.25 C-5.25664062 13.14203125 -5.88828125 14.0340625 -6.5390625 14.953125 C-7.02117187 15.62859375 -7.50328125 16.3040625 -8 17 C-8.77734375 15.421875 -8.77734375 15.421875 -9 13 C-7.60349046 10.58599187 -6.21842419 8.46927985 -4.5625 6.25 C-4.12873047 5.64800781 -3.69496094 5.04601562 -3.24804688 4.42578125 C-2.17664807 2.94230599 -1.08977545 1.47002848 0 0 Z " fill="#140B05" transform="translate(423,362)"/>
<path d="M0 0 C0.33 0 0.66 0 1 0 C0.37802877 6.33881314 -0.28542887 12.67094142 -1 19 C-1.33 19 -1.66 19 -2 19 C-2.33 17.02 -2.66 15.04 -3 13 C-3.66 13.99 -4.32 14.98 -5 16 C-4.55643705 9.79011871 -3.08467498 5.39459439 0 0 Z " fill="#7A6A60" transform="translate(94,242)"/>
<path d="M0 0 C-3.12092434 1.84033976 -6.24738217 3.67106256 -9.375 5.5 C-10.26445312 6.02464844 -11.15390625 6.54929688 -12.0703125 7.08984375 C-12.92109375 7.58613281 -13.771875 8.08242187 -14.6484375 8.59375 C-15.82672119 9.28500977 -15.82672119 9.28500977 -17.02880859 9.99023438 C-19 11 -19 11 -21 11 C-20 8 -20 8 -18.125 6.8125 C-16 6 -16 6 -13 6 C-13 5.34 -13 4.68 -13 4 C-4.82242991 -1.60747664 -4.82242991 -1.60747664 0 0 Z " fill="#2C1301" transform="translate(213,178)"/>
<path d="M0 0 C0.66 0.33 1.32 0.66 2 1 C-3.28 6.28 -8.56 11.56 -14 17 C-14.99 16.67 -15.98 16.34 -17 16 C-11.53105379 10.41711741 -5.96348734 5.05352742 0 0 Z " fill="#19110B" transform="translate(196,171)"/>
<path d="M0 0 C1 2 1 2 0 5.125 C-2.09301076 9.79251227 -5.5137506 13.32272324 -9 17 C-9.33 16.01 -9.66 15.02 -10 14 C-8.43152656 11.48164732 -6.84365137 9.17081064 -5.0625 6.8125 C-4.58103516 6.15830078 -4.09957031 5.50410156 -3.60351562 4.83007812 C-2.41153616 3.21323469 -1.20693447 1.60571072 0 0 Z " fill="#342012" transform="translate(398,359)"/>
<path d="M0 0 C-2.13802098 2.32509781 -4.18598137 3.82167236 -7 5.25 C-8.0209375 5.78367187 -8.0209375 5.78367187 -9.0625 6.328125 C-11 7 -11 7 -14 6 C-14 5.34 -14 4.68 -14 4 C-12.42466914 3.13116294 -10.83935491 2.28040932 -9.25 1.4375 C-8.36828125 0.96183594 -7.4865625 0.48617188 -6.578125 -0.00390625 C-3.79298812 -1.07998186 -2.73019786 -1.06528748 0 0 Z " fill="#606060" transform="translate(280,257)"/>
<path d="M0 0 C1.09436179 4.13509713 1.07127804 7.72331787 1 12 C0.34 12 -0.32 12 -1 12 C-1.12375 12.53625 -1.2475 13.0725 -1.375 13.625 C-2.12206016 16.4638286 -3.05303364 19.22223202 -4 22 C-5.0354051 18.8151065 -4.94040666 16.86968126 -4.00390625 13.671875 C-3.66069336 12.47304687 -3.66069336 12.47304687 -3.31054688 11.25 C-3.06369141 10.425 -2.81683594 9.6 -2.5625 8.75 C-2.31951172 7.90953125 -2.07652344 7.0690625 -1.82617188 6.203125 C-1.22626051 4.13284266 -0.61429181 2.06606103 0 0 Z " fill="#896043" transform="translate(96,227)"/>
<path d="M0 0 C-0.33 0.99 -0.66 1.98 -1 3 C-4.57331341 4.7529462 -8.08846628 6.21769326 -12 7 C-11.08137175 3.82655696 -10.61971964 2.35173277 -7.6875 0.6875 C-4.99859913 -0.00035836 -2.76192463 -0.15782426 0 0 Z " fill="#7C7672" transform="translate(330,441)"/>
<path d="M0 0 C-5.53846154 5.84615385 -5.53846154 5.84615385 -9 7 C-9.99 6.67 -10.98 6.34 -12 6 C-11.5 4.1875 -11.5 4.1875 -10 2 C-3.17355372 -1.58677686 -3.17355372 -1.58677686 0 0 Z " fill="#746C67" transform="translate(305,470)"/>
<path d="M0 0 C0 3.9809949 -1.47898293 5.43796227 -3.8125 8.625 C-4.52019531 9.60726562 -5.22789062 10.58953125 -5.95703125 11.6015625 C-8 14 -8 14 -11 15 C-9.66117477 11.22451284 -7.98364112 8.38612311 -5.5 5.25 C-4.58734375 4.08210938 -4.58734375 4.08210938 -3.65625 2.890625 C-2 1 -2 1 0 0 Z " fill="#483121" transform="translate(161,94)"/>
<path d="M0 0 C0.99 0 1.98 0 3 0 C2.34 2.31 1.68 4.62 1 7 C0.34 7 -0.32 7 -1 7 C-1.28875 7.804375 -1.5775 8.60875 -1.875 9.4375 C-3 12 -3 12 -5 13 C-4.48474397 7.71862571 -2.74522883 4.42778844 0 0 Z " fill="#272727" transform="translate(298,364)"/>
<path d="M0 0 C0.33 0 0.66 0 1 0 C1.31364748 5.95930219 0.80867326 9.70673117 -2 15 C-2.99 15.495 -2.99 15.495 -4 16 C-4 12.37 -4 8.74 -4 5 C-3.01 4.67 -2.02 4.34 -1 4 C-0.26676204 1.98491642 -0.26676204 1.98491642 0 0 Z " fill="#373737" transform="translate(129,308)"/>
<path d="M0 0 C-2.13900716 3.20851073 -2.38872561 3.43434335 -5.875 4.25 C-6.55304688 4.42015625 -7.23109375 4.5903125 -7.9296875 4.765625 C-10.21384039 5.02420835 -11.8209213 4.68401574 -14 4 C-11.68618135 1.29186499 -9.90705875 0.45877312 -6.4375 -0.25 C-5.65246094 -0.42015625 -4.86742187 -0.5903125 -4.05859375 -0.765625 C-2 -1 -2 -1 0 0 Z " fill="#646464" transform="translate(260,267)"/>
<path d="M0 0 C-2.97 2.64 -5.94 5.28 -9 8 C-9.66 7.01 -10.32 6.02 -11 5 C-4.36842105 -2.18421053 -4.36842105 -2.18421053 0 0 Z " fill="#493223" transform="translate(237,514)"/>
<path d="M0 0 C1.37344385 4.39844322 0.24307502 7.92504555 -0.9375 12.25 C-1.23043945 13.36761719 -1.23043945 13.36761719 -1.52929688 14.5078125 C-2.01104198 16.34079386 -2.50439225 18.17071818 -3 20 C-3.33 20 -3.66 20 -4 20 C-4 17.03 -4 14.06 -4 11 C-3.34 11 -2.68 11 -2 11 C-2.33 8.36 -2.66 5.72 -3 3 C-2.01 2.67 -1.02 2.34 0 2 C0 1.34 0 0.68 0 0 Z " fill="#4E4E4E" transform="translate(99,228)"/>
<path d="M0 0 C0.66 0.33 1.32 0.66 2 1 C1.34 1.66 0.68 2.32 0 3 C2.64 2.67 5.28 2.34 8 2 C4.63576723 4.96052484 1.30840713 5.92289822 -3 7 C-3.33 5.35 -3.66 3.7 -4 2 C-2.125 0.9375 -2.125 0.9375 0 0 Z " fill="#4D392D" transform="translate(216,170)"/>
<path d="M0 0 C0.66 0.33 1.32 0.66 2 1 C0.57189248 3.15264005 -0.86668828 5.29680203 -2.3125 7.4375 C-2.71662109 8.04916016 -3.12074219 8.66082031 -3.53710938 9.29101562 C-6.66015625 13.88671875 -6.66015625 13.88671875 -10 15 C-8.7580393 11.56072421 -7.44259716 8.74792181 -5 6 C-4.34 6 -3.68 6 -3 6 C-2.690625 5.38125 -2.38125 4.7625 -2.0625 4.125 C-1.375 2.75 -0.6875 1.375 0 0 Z " fill="#583D29" transform="translate(178,188)"/>
<path d="M0 0 C-0.75 4.75 -0.75 4.75 -3 7 C-4.98356483 7.71408334 -6.98315437 8.38617742 -9 9 C-7.45665977 5.21180126 -4.44676575 0 0 0 Z " fill="#5B493D" transform="translate(242,506)"/>
<path d="M0 0 C0.66 0.99 1.32 1.98 2 3 C1.11644276 6.8555225 0.08943092 9.47228379 -3 12 C-3.94721072 9.39517051 -4.30222393 7.69325299 -3.17578125 5.109375 C-2.17063275 3.37417127 -1.0893855 1.68359577 0 0 Z " fill="#483529" transform="translate(137,128)"/>
<path d="M0 0 C0.98726527 2.66561622 1.0275526 3.90126985 0.25 6.6875 C-1 9 -1 9 -4 10 C-4 9.01 -4 8.02 -4 7 C-4.99 7.495 -4.99 7.495 -6 8 C-4.55746343 4.63408134 -2.66735273 2.48952921 0 0 Z " fill="#15110E" transform="translate(158,102)"/>
<path d="M0 0 C0.33 0.66 0.66 1.32 1 2 C-2.96 7.94 -2.96 7.94 -7 14 C-7.33 13.34 -7.66 12.68 -8 12 C-6.22520545 6.77421606 -4.18811925 3.7353496 0 0 Z " fill="#5C4534" transform="translate(406,349)"/>
<path d="M0 0 C0.66 0 1.32 0 2 0 C1.61471495 6.16456078 -0.47086025 9.98627748 -4 15 C-5 13 -5 13 -4.00390625 9.9609375 C-3.52824219 8.77757812 -3.05257813 7.59421875 -2.5625 6.375 C-2.08941406 5.18648438 -1.61632812 3.99796875 -1.12890625 2.7734375 C-0.75636719 1.85820312 -0.38382812 0.94296875 0 0 Z " fill="#70635A" transform="translate(414,330)"/>
<path d="M0 0 C1.90389849 2.85584773 2.69462177 4.9311762 3.625 8.1875 C3.88539063 9.08855469 4.14578125 9.98960937 4.4140625 10.91796875 C4.60742188 11.60503906 4.80078125 12.29210937 5 13 C4.01 12.67 3.02 12.34 2 12 C1.67 12.99 1.34 13.98 1 15 C-1.125 7.375 -1.125 7.375 0 4 C0 2.68 0 1.36 0 0 Z " fill="#636363" transform="translate(187,287)"/>
<path d="M0 0 C-0.33 0.99 -0.66 1.98 -1 3 C-3.06640625 3.73046875 -3.06640625 3.73046875 -5.5625 4.1875 C-6.38878906 4.34605469 -7.21507812 4.50460938 -8.06640625 4.66796875 C-9.02353516 4.83232422 -9.02353516 4.83232422 -10 5 C-5 -1.5 -5 -1.5 0 0 Z " fill="#7E756E" transform="translate(225,169)"/>
<path d="M0 0 C0.66 0 1.32 0 2 0 C1.52517262 4.27344643 -0.99204637 6.13528225 -4 9 C-5.02813611 10.31175986 -6.04084432 11.6369893 -7 13 C-7.99 12.67 -8.98 12.34 -10 12 C-9.44570312 11.46890625 -8.89140625 10.9378125 -8.3203125 10.390625 C-7.59585938 9.68421875 -6.87140625 8.9778125 -6.125 8.25 C-5.04605469 7.20585938 -5.04605469 7.20585938 -3.9453125 6.140625 C-2.13520321 4.14877783 -1.05151914 2.4572342 0 0 Z " fill="#674933" transform="translate(204,46)"/>
<path d="M0 0 C0.99 0 1.98 0 3 0 C2.91253716 1.43861294 2.80434652 2.87597508 2.6875 4.3125 C2.62949219 5.11300781 2.57148438 5.91351563 2.51171875 6.73828125 C2 9 2 9 -1 12 C-0.67 8.04 -0.34 4.08 0 0 Z " fill="#4E4E4E" transform="translate(319,312)"/>
<path d="M0 0 C0.66 0.33 1.32 0.66 2 1 C1.67 1.99 1.34 2.98 1 4 C0.34 4 -0.32 4 -1 4 C-1.268125 4.639375 -1.53625 5.27875 -1.8125 5.9375 C-3 8 -3 8 -6 9 C-4.68775452 5.06326356 -3.08089673 2.77280706 0 0 Z " fill="#483629" transform="translate(128,147)"/>
<path d="M0 0 C-1.98 0.99 -1.98 0.99 -4 2 C-4 2.66 -4 3.32 -4 4 C-5.98 4.66 -7.96 5.32 -10 6 C-8.20404732 1.26521567 -5.07984355 -1.69328118 0 0 Z " fill="#72665E" transform="translate(381,413)"/>
<path d="M0 0 C3 1 3 1 4 3 C4.039992 4.99960012 4.04346799 7.00047242 4 9 C3.01 8.67 2.02 8.34 1 8 C0.67 5.36 0.34 2.72 0 0 Z " fill="#717171" transform="translate(189,299)"/>
<path d="M0 0 C1.57156655 3.1431331 0.11705576 5.365464 -0.9375 8.625 C-1.31777344 9.81351563 -1.69804688 11.00203125 -2.08984375 12.2265625 C-2.39019531 13.14179688 -2.69054687 14.05703125 -3 15 C-3.66 15 -4.32 15 -5 15 C-4.43174347 9.45949887 -2.37113483 4.96284034 0 0 Z " fill="#737373" transform="translate(102,215)"/>
<path d="M0 0 C0.66 0 1.32 0 2 0 C0.4169423 4.2742558 -2.50568404 6.26531794 -6 9 C-6.33 7.35 -6.66 5.7 -7 4 C-6.401875 3.896875 -5.80375 3.79375 -5.1875 3.6875 C-2.70138466 2.90614947 -1.77056558 1.85104584 0 0 Z " fill="#462C1A" transform="translate(192,60)"/>
<path d="M0 0 C0.33 1.32 0.66 2.64 1 4 C-0.43011973 4.86646667 -1.86940619 5.71781829 -3.3125 6.5625 C-4.51326172 7.27599609 -4.51326172 7.27599609 -5.73828125 8.00390625 C-8 9 -8 9 -11 8 C-10.28972656 7.59007812 -9.57945312 7.18015625 -8.84765625 6.7578125 C-7.92855469 6.21898437 -7.00945312 5.68015625 -6.0625 5.125 C-5.14597656 4.59132813 -4.22945313 4.05765625 -3.28515625 3.5078125 C-0.89299704 2.20287437 -0.89299704 2.20287437 0 0 Z " fill="#2F1300" transform="translate(304,470)"/>
<path d="M0 0 C0 1.65 0 3.3 0 5 C-1.98 5.99 -1.98 5.99 -4 7 C-4 6.34 -4 5.68 -4 5 C-4.66 4.67 -5.32 4.34 -6 4 C-2.25 0 -2.25 0 0 0 Z " fill="#322821" transform="translate(186,65)"/>
<path d="M0 0 C-2.125 2.0625 -2.125 2.0625 -5 4 C-8.3125 3.75 -8.3125 3.75 -11 3 C-9.08400609 0.55178556 -8.02756971 0.00675177 -4.9375 -0.75 C-2 -1 -2 -1 0 0 Z " fill="#4B3A2E" transform="translate(377,418)"/>
<path d="M0 0 C0.66 0.33 1.32 0.66 2 1 C0.515 2.485 0.515 2.485 -1 4 C0.32 4.33 1.64 4.66 3 5 C0.69 5.66 -1.62 6.32 -4 7 C-4.33 5.35 -4.66 3.7 -5 2 C-2.625 0.9375 -2.625 0.9375 0 0 Z " fill="#55463C" transform="translate(228,165)"/>
<path d="M0 0 C0.33 0 0.66 0 1 0 C0.50769231 6.4 0.50769231 6.4 -2.0625 9.4375 C-2.701875 9.953125 -3.34125 10.46875 -4 11 C-2.25 3.375 -2.25 3.375 0 0 Z " fill="#121212" transform="translate(314,377)"/>
<path d="M0 0 C0.66 0 1.32 0 2 0 C2.04898438 0.63808594 2.09796875 1.27617187 2.1484375 1.93359375 C2.22320312 2.75988281 2.29796875 3.58617187 2.375 4.4375 C2.44460937 5.26121094 2.51421875 6.08492188 2.5859375 6.93359375 C2.72257813 7.61550781 2.85921875 8.29742187 3 9 C3.66 9.33 4.32 9.66 5 10 C3.68 9.67 2.36 9.34 1 9 C-1.125 2.25 -1.125 2.25 0 0 Z " fill="#232323" transform="translate(229,262)"/>
<path d="M0 0 C0 0.66 0 1.32 0 2 C-2.8125 3.5625 -2.8125 3.5625 -6 5 C-6.99 4.67 -7.98 4.34 -9 4 C-5.86025155 0.71753571 -4.76763047 0 0 0 Z " fill="#646464" transform="translate(290,251)"/>
<path d="M0 0 C0.99 0.33 1.98 0.66 3 1 C0.69 3.31 -1.62 5.62 -4 8 C-4.33 7.01 -4.66 6.02 -5 5 C-3.35 3.35 -1.7 1.7 0 0 Z " fill="#212121" transform="translate(177,194)"/>
<path d="M0 0 C0 0.99 0 1.98 0 3 C-0.66 3 -1.32 3 -2 3 C-2.268125 3.61875 -2.53625 4.2375 -2.8125 4.875 C-4 7 -4 7 -7 9 C-6.07506212 5.21616321 -5.60628829 3.43306306 -2.375 1.125 C-1.199375 0.568125 -1.199375 0.568125 0 0 Z " fill="#25180F" transform="translate(194,529)"/>
<path d="M0 0 C0.99 0 1.98 0 3 0 C2.01 2.97 1.02 5.94 0 9 C-0.66 9 -1.32 9 -2 9 C-1.34 6.03 -0.68 3.06 0 0 Z " fill="#373737" transform="translate(307,345)"/>
<path d="M0 0 C0.66 0.33 1.32 0.66 2 1 C0.375 7.75 0.375 7.75 -3 10 C-2.25 2.25 -2.25 2.25 0 0 Z " fill="#515151" transform="translate(134,277)"/>
<path d="M0 0 C2.125 0.375 2.125 0.375 4 1 C3.34 1.66 2.68 2.32 2 3 C1.60235737 4.98821313 1.26224651 6.98944339 1 9 C-1.3773161 6.6226839 -1.67028521 5.29714793 -2 2 C-1.34 1.34 -0.68 0.68 0 0 Z " fill="#262626" transform="translate(367,180)"/>
<path d="M0 0 C0 0.66 0 1.32 0 2 C-0.66 2 -1.32 2 -2 2 C-2 2.66 -2 3.32 -2 4 C-3.65 4.33 -5.3 4.66 -7 5 C-7 4.01 -7 3.02 -7 2 C-4 0 -4 0 0 0 Z " fill="#766D67" transform="translate(363,424)"/>
<path d="M0 0 C0.99 0 1.98 0 3 0 C2.01 2.97 1.02 5.94 0 9 C-0.33 9 -0.66 9 -1 9 C-0.67 6.03 -0.34 3.06 0 0 Z " fill="#424242" transform="translate(315,326)"/>
<path d="M0 0 C0.33 0 0.66 0 1 0 C1.2493357 1.60115576 1.47378648 3.20620159 1.6875 4.8125 C1.87892578 6.15248047 1.87892578 6.15248047 2.07421875 7.51953125 C2 10 2 10 0.51953125 11.82421875 C-0.23263672 12.40623047 -0.23263672 12.40623047 -1 13 C-1.07654536 8.48382401 -1.10228696 4.40914783 0 0 Z " fill="#4F301A" transform="translate(425,287)"/>
<path d="M0 0 C0.66 0.33 1.32 0.66 2 1 C1.67 1.99 1.34 2.98 1 4 C-1.64 4.33 -4.28 4.66 -7 5 C-4.88437775 2.67281553 -2.94982021 1.14186589 0 0 Z " fill="#847973" transform="translate(247,158)"/>
<path d="M0 0 C1.32 0 2.64 0 4 0 C3.67 0.99 3.34 1.98 3 3 C0.4375 4.1875 0.4375 4.1875 -2 5 C-2 2 -2 2 0 0 Z " fill="#6E6C6B" transform="translate(282,479)"/>
<path d="M0 0 C0.66 0.33 1.32 0.66 2 1 C1.34 1.66 0.68 2.32 0 3 C0.33 3.99 0.66 4.98 1 6 C-0.32 6 -1.64 6 -3 6 C-3.33 4.68 -3.66 3.36 -4 2 C-2.125 0.9375 -2.125 0.9375 0 0 Z " fill="#665549" transform="translate(332,438)"/>
<path d="M0 0 C0.99 0.33 1.98 0.66 3 1 C1 4 1 4 -1 4.8125 C-1.66 4.874375 -2.32 4.93625 -3 5 C-3.66 4.34 -4.32 3.68 -5 3 C-2.6875 1.4375 -2.6875 1.4375 0 0 Z " fill="#585858" transform="translate(298,397)"/>
<path d="M0 0 C0 0.66 0 1.32 0 2 C-0.66 2 -1.32 2 -2 2 C-2 2.66 -2 3.32 -2 4 C-2.66 4 -3.32 4 -4 4 C-4 3.34 -4 2.68 -4 2 C-5.32 1.67 -6.64 1.34 -8 1 C-3.375 -1.125 -3.375 -1.125 0 0 Z " fill="#535353" transform="translate(267,263)"/>
<path d="M0 0 C1.36118461 2.24195113 2.06138028 3.47826762 1.75 6.125 C1 8 1 8 -1 10 C-2.23076923 4.58461538 -2.23076923 4.58461538 -1.0625 1.625 C-0.5365625 0.820625 -0.5365625 0.820625 0 0 Z " fill="#616161" transform="translate(128,347)"/>
<path d="M0 0 C0.33 0 0.66 0 1 0 C1 1.98 1 3.96 1 6 C0.34 6 -0.32 6 -1 6 C-1.33 6.99 -1.66 7.98 -2 9 C-2.125 5.625 -2.125 5.625 -2 2 C-1.34 1.34 -0.68 0.68 0 0 Z " fill="#5C5C5C" transform="translate(228,264)"/>
<path d="M0 0 C0.66 0 1.32 0 2 0 C2 0.66 2 1.32 2 2 C3.65 1.67 5.3 1.34 7 1 C5.8125 2.5625 5.8125 2.5625 4 4 C1.3125 3.6875 1.3125 3.6875 -1 3 C-0.67 2.01 -0.34 1.02 0 0 Z " fill="#5B4332" transform="translate(354,427)"/>
</svg>
