<?xml version="1.0" encoding="UTF-8"?>
<svg version="1.1" xmlns="http://www.w3.org/2000/svg" width="540" height="540">
<path d="M0 0 C11.95887511 8.64652481 17.39125079 16.53952346 20.484375 31.2578125 C21.92182255 40.88731551 21.43091804 47.75809361 17.171875 56.5703125 C16.86088867 57.21436035 16.54990234 57.8584082 16.22949219 58.52197266 C10.04708579 71.25749631 10.04708579 71.25749631 7.171875 75.5703125 C7.29294259 78.16441646 7.29294259 78.16441646 7.921875 80.9453125 C8.10234375 81.88117188 8.2828125 82.81703125 8.46875 83.78125 C9.15567722 86.5060613 10.06504447 88.99083457 11.171875 91.5703125 C11.996875 91.13460937 12.821875 90.69890625 13.671875 90.25 C32.15458534 80.71985248 50.92859178 75.8946298 71.171875 71.5703125 C72.07341309 71.35697266 72.97495117 71.14363281 73.90380859 70.92382812 C88.62894794 67.72332119 104.50323034 69.65947975 119.421875 70.5078125 C121.05206082 70.59611965 122.68226923 70.68401096 124.3125 70.77148438 C139.64652054 71.60455042 154.93763747 72.59480891 170.171875 74.5703125 C171.41066406 74.72886719 172.64945312 74.88742188 173.92578125 75.05078125 C205.98317984 80.1160542 240.01742654 95.06200536 265.79296875 114.77734375 C268.11275027 116.57585705 268.11275027 116.57585705 270.45703125 118.01953125 C282.13447237 125.44708562 293.24308307 136.65070057 300.64453125 148.33203125 C302.41224918 150.92257441 304.4406625 153.05651311 306.609375 155.3203125 C323.90579994 174.26401601 327.65789406 201.29118885 332.359375 225.5703125 C332.51422363 226.36928955 332.66907227 227.1682666 332.82861328 227.99145508 C337.33988827 252.03277092 341.59261798 278.07916542 340.171875 302.5703125 C340.12595215 303.59624512 340.0800293 304.62217773 340.03271484 305.67919922 C339.55046472 314.41219964 338.17329142 322.68776596 336.171875 331.1953125 C336.02181 331.84173706 335.871745 332.48816162 335.71713257 333.1541748 C333.11688659 344.22346769 329.34333733 354.25975555 324.21411133 364.38842773 C323.09011175 366.74148097 322.1414583 369.1258518 321.203125 371.55859375 C319.290197 376.44180459 316.95047012 380.95422224 314.359375 385.5078125 C313.91779053 386.28995117 313.47620605 387.07208984 313.02124023 387.87792969 C304.91733793 402.13607846 295.41978379 414.68184441 284.796875 427.1328125 C284.30936768 427.70427002 283.82186035 428.27572754 283.31958008 428.86450195 C280.40101865 432.24734579 277.34540676 435.4219675 274.171875 438.5703125 C272.49480104 440.39413043 270.82821008 442.22763972 269.171875 444.0703125 C259.48761076 454.84405647 249.71152892 463.2715529 237.171875 470.5703125 C236.21410156 471.13363281 235.25632812 471.69695312 234.26953125 472.27734375 C232.33923123 473.40798588 230.40551479 474.53281172 228.46875 475.65234375 C225.99062844 477.09399978 223.52369372 478.54949443 221.0625 480.01953125 C209.00042043 487.21428973 197.16607629 493.4701821 183.84423828 498.03588867 C183.06806152 498.30763916 182.29188477 498.57938965 181.4921875 498.859375 C180.80398926 499.09350098 180.11579102 499.32762695 179.40673828 499.56884766 C176.98092567 500.57855581 176.98092567 500.57855581 174.29174805 502.51977539 C163.9686995 509.30460086 150.93696159 511.11281842 138.984375 513.2578125 C138.16395721 513.40783722 137.34353943 513.55786194 136.4982605 513.71243286 C106.92962833 519.11260472 73.10407089 523.58448246 43.87402344 514.39038086 C41.15592391 513.56547154 38.43267224 512.87420809 35.671875 512.20703125 C-12.16783546 500.35226394 -12.16783546 500.35226394 -29.828125 486.5703125 C-31.90990567 485.00574442 -33.99321921 483.44321369 -36.078125 481.8828125 C-37.06554687 481.13515625 -38.05296875 480.3875 -39.0703125 479.6171875 C-42.10019698 477.36837805 -45.20489076 475.2844627 -48.36328125 473.22265625 C-51.5058006 471.11602283 -54.57138884 468.90647372 -57.640625 466.6953125 C-63.07910525 462.77892958 -68.59190856 459.0197185 -74.20703125 455.359375 C-76.87144191 453.54074596 -79.40412448 451.70062761 -81.828125 449.5703125 C-81.828125 448.9103125 -81.828125 448.2503125 -81.828125 447.5703125 C-82.9109375 447.23 -82.9109375 447.23 -84.015625 446.8828125 C-87.40363031 445.30174336 -89.20830504 443.23576068 -91.828125 440.5703125 C-93.78420957 438.85940474 -95.74264639 437.1511835 -97.703125 435.4453125 C-103.29742653 430.41862292 -107.08533089 425.10689842 -110.828125 418.5703125 C-112.20239452 416.42401127 -113.57742109 414.27819462 -114.953125 412.1328125 C-118.61478503 406.14998455 -121.38093281 400.13247513 -123.828125 393.5703125 C-124.22515625 392.55066406 -124.6221875 391.53101563 -125.03125 390.48046875 C-133.06186708 369.10784544 -137.19696901 346.73564739 -141.50164795 324.39041138 C-142.31304739 320.18484884 -143.14762698 315.98784555 -144.05078125 311.80078125 C-146.61129643 299.74466061 -148.04401906 287.54769068 -149.515625 275.3203125 C-149.67905899 273.97274872 -149.67905899 273.97274872 -149.84579468 272.59796143 C-153.48009239 242.36732219 -154.96928649 211.7054283 -149.828125 181.5703125 C-149.69954102 180.7649707 -149.57095703 179.95962891 -149.43847656 179.12988281 C-147.47449315 167.19106254 -143.1845783 156.9514752 -137.99951172 146.07275391 C-136.10838165 142.03271988 -134.36644293 137.93314922 -132.640625 133.8203125 C-132.3096582 133.03495117 -131.97869141 132.24958984 -131.63769531 131.44042969 C-129.56241828 126.46681369 -127.66137315 121.44966337 -125.828125 116.3828125 C-122.10414927 106.1996871 -117.9209411 95.26978028 -110.3125 87.375 C-107.53436335 83.99737071 -105.76207902 79.98109146 -103.75 76.1171875 C-97.93629148 65.1601142 -90.77031041 54.82394113 -82.390625 45.6953125 C-79.43970609 42.47925279 -76.85853822 39.2726584 -74.453125 35.6328125 C-62.1535678 17.7678448 -23.34654842 -13.7956877 0 0 Z " fill="#FDFDFD" transform="translate(182.828125,11.4296875)"/>
<path d="M0 0 C3.63714323 2.32728428 7.04629319 5.09258638 9 9 C9.40964801 13.91577607 9.59394628 17.24058027 6.45703125 21.30859375 C5.97621094 21.86675781 5.49539062 22.42492187 5 23 C4.34386719 23.77472656 3.68773437 24.54945312 3.01171875 25.34765625 C-1.65928333 30.69631666 -6.55301088 35.4608424 -12 40 C-23.18162747 49.33621549 -31.92259495 58.08380398 -39.74072266 70.44580078 C-42.6482511 75.01590776 -45.69680177 79.31833337 -49.0625 83.5625 C-52.67925402 88.17816704 -56.03104148 92.8699833 -59.1875 97.8125 C-59.56720947 98.39136963 -59.94691895 98.97023926 -60.33813477 99.56665039 C-67.97962904 111.79402112 -72.47512378 125.64910631 -76.5625 139.375 C-76.79612244 140.14948486 -77.02974487 140.92396973 -77.27044678 141.72192383 C-80.34038727 151.91413673 -83.19977568 162.13299292 -85.625 172.5 C-85.86033447 173.49950684 -86.09566895 174.49901367 -86.33813477 175.52880859 C-89.02854811 187.65470217 -89.20327975 199.82319005 -89.1875 212.1875 C-89.18756042 212.91976807 -89.18762085 213.65203613 -89.18768311 214.40649414 C-89.17683772 223.64676186 -88.91390709 232.6680762 -87.55859375 241.828125 C-86.93791539 246.06925271 -86.6777284 250.31577801 -86.3996582 254.59106445 C-84.75709957 279.04798753 -79.99359927 301.78946666 -72.02636719 324.94921875 C-70.18978477 330.40828961 -68.63540639 335.94278329 -67.0703125 341.484375 C-62.51426443 356.44949639 -55.51837461 367.07693219 -44.66796875 378.18359375 C-40.81477876 382.13338456 -37.3948434 386.29503976 -34.02734375 390.66796875 C-29.68709572 395.66050839 -24.94925989 398.78539723 -19.0625 401.6875 C-14.44166108 403.99536086 -10.21901986 406.50384163 -5.96607971 409.44390869 C2.0620216 414.9759924 10.30464119 419.37379992 19.16357422 423.42553711 C21.40070945 424.44926481 23.62841955 425.49164565 25.85546875 426.53710938 C36.05651907 431.29437658 45.73310552 434.94913565 56.8125 437 C63.4613837 438.27666927 70.03995447 439.66001745 76.58984375 441.38671875 C104.23039476 448.42005183 134.64508842 442.11679982 160.23803711 431.14477539 C164.09153842 429.54758033 168.02065425 428.30187975 172 427.0625 C192.45287524 420.37222782 211.9223806 408.37917179 227 393 C228.11777462 391.90158945 229.23766815 390.80533212 230.359375 389.7109375 C236.15529587 384.02864611 241.87019854 378.29934987 247 372 C247.76699219 371.071875 248.53398437 370.14375 249.32421875 369.1875 C254.29304674 363.04204736 258.48583686 356.7440212 262.24462891 349.79589844 C264.62585128 345.40503585 267.12151846 341.10880781 269.72265625 336.84375 C270.38563721 335.75610352 271.04861816 334.66845703 271.73168945 333.54785156 C273.04293907 331.40531378 274.3601589 329.2664143 275.68432617 327.13183594 C295.94310834 293.91688676 295.66582854 253.31316788 289 216 C288.82307617 214.93845703 288.64615234 213.87691406 288.46386719 212.78320312 C285.51471363 195.1044417 285.51471363 195.1044417 278 179 C277.14791289 177.55001118 276.29925507 176.09800431 275.453125 174.64453125 C266.07159298 158.70481146 255.18444889 143.59813943 239 134 C238.195625 133.46375 237.39125 132.9275 236.5625 132.375 C233.32429842 130.63742842 229.96752668 129.36437148 226.54296875 128.0390625 C224.27718492 127.11325835 222.15905816 126.08491022 220 124.9375 C216.2644147 123.00945598 212.4677997 121.85527556 208.43359375 120.70703125 C203.07720536 119.15084136 198.0499565 117.0431429 193 114.6875 C171.95052242 105.02400891 152.04111476 101.66027204 129 101 C127.57633436 100.95345893 126.15266901 100.90690908 124.72900391 100.86035156 C99.77605669 100.0917511 75.40183622 100.66190553 52.91796875 112.97119141 C50.69004169 114.16626328 48.42715041 115.27554917 46.15625 116.38671875 C34.78333103 121.90947266 34.78333103 121.90947266 25.5703125 130.40625 C22.69315038 133.32635484 19.54349884 133.94070922 15.5625 134.375 C11.22675288 133.91860557 9.28739254 132.83911174 6 130 C2.99453584 125.59198589 2.02010992 121.22608041 3 116 C9.03713746 101.81930951 23.56059232 94.50421872 37.078125 88.85546875 C39.26836155 87.92929854 39.26836155 87.92929854 42.1875 86.0625 C53.80504666 79.31852734 67.98010478 76.69771943 81 74 C81.89307861 73.80873535 82.78615723 73.6174707 83.70629883 73.42041016 C92.60222667 71.70716547 101.41986871 71.68940122 110.4375 71.75 C111.24214691 71.75276947 112.04679382 71.75553894 112.87582397 71.75839233 C142.14045575 71.87578172 168.71827704 73.85630279 196 85 C198.66596365 86.08507518 201.33251418 87.16867228 204 88.25 C205.1859375 88.73082031 206.371875 89.21164063 207.59375 89.70703125 C210.86781984 90.94982611 214.13570637 91.96985729 217.5 92.9375 C224.25069241 94.95287662 230.50567985 97.7682578 236.79541016 100.90478516 C238.36584132 101.68495727 239.9416601 102.4543241 241.52099609 103.21630859 C252.46998368 108.51214525 262.07436614 113.60960801 270.53710938 122.49609375 C272.15066264 124.15488683 273.82465528 125.73280229 275.515625 127.3125 C283.49088734 134.8491176 289.51356409 142.53396621 295 152 C295.86294429 153.44889412 296.72759999 154.89676998 297.59375 156.34375 C299.7415265 159.94397118 301.84884965 163.56594101 303.94433594 167.19677734 C304.80334817 168.66409102 305.69745091 170.11081816 306.6015625 171.55078125 C325.61499234 202.520509 326.24040194 263.38214789 318.4375 297.9375 C313.71153334 316.85841249 305.7246186 333.39475186 295.61328125 349.99072266 C293.46525494 353.52077761 291.38165015 357.075392 289.3671875 360.68359375 C279.27411794 378.70512085 266.73934433 393.48092629 252.03515625 407.92578125 C250.1389362 409.85839708 248.41366073 411.85362885 246.6875 413.9375 C239.07713249 422.73753416 229.74259944 429.0793613 219.78759766 434.92431641 C217.84636348 436.09245049 215.94423157 437.31089889 214.04296875 438.54296875 C206.26172993 443.57482412 198.74860321 447.82936528 190 451 C188.3566189 451.60896514 186.71340488 452.21838127 185.0703125 452.828125 C180.32958075 454.57740841 175.57512075 456.28618458 170.81640625 457.98583984 C168.17276949 458.93778741 165.53881795 459.91246805 162.90625 460.89453125 C130.0303916 473.00326325 96.2318614 475.56633033 62 468 C60.93604004 467.76974121 59.87208008 467.53948242 58.77587891 467.30224609 C42.56731276 463.74671099 27.55774521 459.78451564 13 451.61328125 C10.43390552 450.23333721 7.97531953 449.13318408 5.25 448.125 C-5.2503634 444.12731263 -15.27457972 438.4950377 -24.27734375 431.80859375 C-27.88804831 429.41009129 -31.70107494 427.52226453 -35.5625 425.5625 C-45.73997682 420.31708318 -52.44228477 413.95986958 -59.546875 404.9921875 C-62.26314801 401.67902648 -65.13245061 398.5602616 -68.0625 395.4375 C-81.55347642 380.90354861 -90.33169551 365.60977725 -95.9375 346.5 C-96.19909912 345.61997314 -96.46069824 344.73994629 -96.73022461 343.83325195 C-98.62118276 337.42354985 -100.34335005 330.98386405 -102.0078125 324.51171875 C-102.97664483 321.08266259 -104.17965164 317.83212625 -105.4375 314.5 C-111.67441116 296.21276049 -113.23834309 275.55373775 -114.79394531 256.40087891 C-115.15287611 252.21873978 -115.60423781 248.04724411 -116.0625 243.875 C-116.14201904 243.12178467 -116.22153809 242.36856934 -116.3034668 241.5925293 C-116.6363271 238.57504018 -117.03656208 235.89031377 -118 233 C-118.12100249 230.57243343 -118.1876411 228.17456487 -118.203125 225.74609375 C-118.21013931 225.02160034 -118.21715363 224.29710693 -118.22438049 223.55065918 C-118.24202103 221.17954395 -118.24824738 218.80867875 -118.25 216.4375 C-118.25067474 215.62822052 -118.25134949 214.81894104 -118.25204468 213.98513794 C-118.22555132 193.95096081 -116.74068134 174.40038929 -110.94140625 155.14111328 C-109.97694545 151.92307577 -109.03944491 148.69806642 -108.10546875 145.47108459 C-106.91199321 141.35327623 -105.70626959 137.23907521 -104.5 133.125 C-104.26684082 132.32685883 -104.03368164 131.52871765 -103.79345703 130.70639038 C-96.01355879 104.16635944 -84.6630338 82.08040337 -67.5 60.3515625 C-64.55102741 56.50619586 -62.01616408 52.41091757 -59.4375 48.3125 C-53.15443983 38.41599669 -46.17193975 30.70678706 -36.9609375 23.41796875 C-33.6440754 20.70934389 -30.50556127 17.85695584 -27.375 14.9375 C-26.82827637 14.42872314 -26.28155273 13.91994629 -25.71826172 13.39575195 C-24.64904669 12.39997114 -23.58018928 11.40380618 -22.51171875 10.40722656 C-20.31298147 8.36046918 -18.10133183 6.32920968 -15.875 4.3125 C-15.19179687 3.68988281 -14.50859375 3.06726562 -13.8046875 2.42578125 C-9.85240102 -0.69669616 -4.79871245 -0.9736518 0 0 Z " fill="#030303" transform="translate(175,35)"/>
<path d="M0 0 C3.45674008 1.96448617 5.4083518 3.40148938 7.26953125 6.96875 C8.11906964 12.27836493 8.05693243 16.50146869 6.4140625 21.6171875 C4.70399774 27.18035454 3.35782592 32.77807587 2.14453125 38.46875 C1.92289307 39.50370605 1.70125488 40.53866211 1.47290039 41.60498047 C-0.08313373 49.30796802 -0.82629259 56.81491274 -0.77783203 64.67333984 C-0.82161592 69.96894469 -1.74508617 72.86149972 -5.23046875 77.09375 C-8.98697418 80.4837671 -11.49779101 81.9654035 -16.60546875 82.34375 C-20.57122399 82.07024964 -22.16995891 81.57524447 -25.23046875 79.09375 C-31.39936119 70.86856008 -30.93932626 63.06745879 -29.76074219 53.13525391 C-29.13458223 48.87563919 -28.38280238 44.6405135 -27.60546875 40.40625 C-27.47141632 39.6610611 -27.33736389 38.91587219 -27.19924927 38.14810181 C-25.6159043 29.40738535 -23.93661281 20.73814921 -21.16796875 12.28125 C-20.83708252 11.25414917 -20.83708252 11.25414917 -20.49951172 10.20629883 C-18.92202576 5.83504101 -16.76622987 3.07791032 -13.23046875 0.09375 C-8.62635432 -1.44095481 -4.51454724 -1.83428189 0 0 Z " fill="#030303" transform="translate(152.23046875,248.90625)"/>
<path d="M0 0 C5.86989368 2.23121494 10.12817087 5.50558297 14.4375 10 C14.9938916 10.56960449 15.5502832 11.13920898 16.12353516 11.72607422 C25.60984636 21.62281134 38.55448027 35.29851553 38.4140625 49.64453125 C37.67902275 53.82593664 35.17567287 56.33848369 32 59 C28.06995159 61.31772086 24.50803192 61.47452968 20 61 C14.20884642 57.99366344 11.56964011 53.83053418 8.1875 48.375 C0.45545782 36.26730162 0.45545782 36.26730162 -10.25 26.875 C-14.06467563 24.2740848 -16.15217868 21.20892634 -18 17 C-18.72149004 11.76919718 -17.85162731 8.42493893 -15 4 C-10.85839948 -0.76911576 -5.95705768 -1.13309069 0 0 Z " fill="#030303" transform="translate(400,197)"/>
<path d="M0 0 C4.15636163 1.6802313 6.69435919 4.15726532 9 8 C9.8227657 14.37643414 8.76056704 17.81651571 5 23 C1.29752095 26.27933859 -2.07794442 26.32541797 -6.81640625 26.30078125 C-10.1722316 25.83852982 -12.24577045 24.86339436 -14.484375 22.30078125 C-17.39270981 17.73182317 -18.84137629 14.5741179 -18 9 C-16.75 6.3125 -16.75 6.3125 -15 4 C-14.505 3.236875 -14.01 2.47375 -13.5 1.6875 C-9.33985485 -1.12059798 -4.85565215 -0.59250517 0 0 Z " fill="#060606" transform="translate(320,389)"/>
<path d="M0 0 C0.66 0.33 1.32 0.66 2 1 C-3.61 6.61 -9.22 12.22 -15 18 C-15.66 17.67 -16.32 17.34 -17 17 C-11.83794309 10.72690435 -6.12627407 5.3250511 0 0 Z " fill="#D5D5D5" transform="translate(159,77)"/>
<path d="M0 0 C0.66 0.33 1.32 0.66 2 1 C-3.94 6.94 -9.88 12.88 -16 19 C-16 13.49581073 -10.69222469 9.76817235 -7 6 C-4.72454022 3.90179524 -2.40856363 1.94734932 0 0 Z " fill="#292929" transform="translate(137,59)"/>
<path d="M0 0 C-1.49097658 3.7952131 -3.75700849 5.61042731 -7 8 C-4.18918919 0 -4.18918919 0 0 0 Z " fill="#383838" transform="translate(390,198)"/>
</svg>
