<?xml version="1.0" encoding="UTF-8"?>
<svg version="1.1" xmlns="http://www.w3.org/2000/svg" width="540" height="540">
<path d="M0 0 C9.90552178 7.16190604 16.01186915 13.3817185 19.171875 25.5703125 C19.40132812 26.42882812 19.63078125 27.28734375 19.8671875 28.171875 C23.24124376 43.52145487 23.4009646 56.94164614 15.86328125 70.8359375 C15.45319824 71.59567871 15.04311523 72.35541992 14.62060547 73.13818359 C13.79331972 74.65151119 12.94777418 76.15502879 12.08251953 77.64697266 C9.73003698 81.7625373 9.73003698 81.7625373 9.28515625 86.390625 C10.18076835 88.80061788 10.18076835 88.80061788 12.171875 91.5703125 C13.14125 90.8896875 14.110625 90.2090625 15.109375 89.5078125 C27.48897128 81.86795675 41.23595318 78.17251179 55.32714844 75.18505859 C58.29757378 74.54314896 61.25334106 73.85083591 64.2109375 73.15234375 C66.26009662 72.68609118 68.30957016 72.22121804 70.359375 71.7578125 C71.27146729 71.53851074 72.18355957 71.31920898 73.12329102 71.09326172 C88.18230864 67.81501823 104.16036019 69.6399828 119.421875 70.5078125 C121.05206082 70.59611965 122.68226923 70.68401096 124.3125 70.77148438 C139.64652054 71.60455042 154.93763747 72.59480891 170.171875 74.5703125 C171.41066406 74.72886719 172.64945312 74.88742188 173.92578125 75.05078125 C205.98317984 80.1160542 240.01742654 95.06200536 265.79296875 114.77734375 C268.11275027 116.57585705 268.11275027 116.57585705 270.45703125 118.01953125 C282.13447237 125.44708562 293.24308307 136.65070057 300.64453125 148.33203125 C302.41224918 150.92257441 304.4406625 153.05651311 306.609375 155.3203125 C323.90579994 174.26401601 327.65789406 201.29118885 332.359375 225.5703125 C332.51422363 226.36928955 332.66907227 227.1682666 332.82861328 227.99145508 C335.10322494 240.11322942 336.55462452 252.35837848 337.97680664 264.60351562 C338.23576473 266.83227342 338.49756048 269.0606846 338.75976562 271.2890625 C339.23983808 275.38177957 339.70839228 279.47568237 340.171875 283.5703125 C340.28370117 284.54838867 340.39552734 285.52646484 340.51074219 286.53417969 C341.08179442 291.81184032 341.32571973 297.01288296 341.296875 302.3203125 C341.30074219 303.01640625 341.30460937 303.7125 341.30859375 304.4296875 C341.2863811 316.86877299 339.83106035 328.60052917 336.921875 340.6953125 C336.63441406 341.96246094 336.34695313 343.22960937 336.05078125 344.53515625 C334.14570198 352.61302514 331.54719455 360.00099364 328.171875 367.5703125 C327.39492741 369.48450883 326.62338211 371.4009146 325.859375 373.3203125 C316.39639751 395.97231487 303.71588864 416.13135214 287.6796875 434.66796875 C285.92666188 436.69678189 284.19977197 438.7347296 282.4921875 440.80078125 C280.17999262 443.56062329 277.71745977 446.02472773 275.171875 448.5703125 C273.68817131 450.23294149 272.20945987 451.90003215 270.734375 453.5703125 C267.40576339 457.29637027 264.07228217 460.46771588 260.171875 463.5703125 C259.058125 464.715 259.058125 464.715 257.921875 465.8828125 C250.68033453 472.9597725 242.76907148 478.12684754 233.921875 482.94140625 C229.27748675 485.47880371 224.74005046 488.18391952 220.19287109 490.890625 C207.69187926 498.3101179 195.70232906 504.16484945 181.82421875 508.578125 C179.36019339 509.49986645 177.51008936 510.51850062 175.359375 512.0078125 C145.7183993 531.62845836 88.93390067 532.3222982 55.171875 526.5703125 C52.27716468 525.91497251 49.46716757 525.16162605 46.6328125 524.28515625 C44.02960702 523.52898704 41.47187188 523.06587073 38.796875 522.6328125 C34.87273317 521.95800202 31.15421107 521.02699796 27.35546875 519.8359375 C26.21658203 519.47894775 25.07769531 519.12195801 23.90429688 518.75415039 C22.67259766 518.36348389 21.44089844 517.97281738 20.171875 517.5703125 C19.20580322 517.26611893 19.20580322 517.26611893 18.22021484 516.95578003 C14.05639536 515.64416418 9.90090024 514.30905458 5.7512207 512.95336914 C4.32327169 512.48964787 2.89356372 512.03130849 1.4621582 511.57836914 C-11.90530901 507.3431773 -22.89247068 501.4503927 -33.828125 492.5703125 C-37.7872778 489.5012018 -41.80016012 486.55443624 -45.98046875 483.79296875 C-50.80891592 480.58833024 -55.60494203 477.33839446 -60.390625 474.0703125 C-61.18919922 473.52761719 -61.98777344 472.98492187 -62.81054688 472.42578125 C-71.85369787 466.24961129 -80.45977224 459.63521764 -88.828125 452.5703125 C-89.34568359 452.14540527 -89.86324219 451.72049805 -90.39648438 451.28271484 C-110.05198166 435.03281377 -120.20748019 412.12884553 -127.890625 388.3203125 C-128.12394531 387.60738037 -128.35726562 386.89444824 -128.59765625 386.15991211 C-139.51247197 351.53948099 -145.44705529 314.16051576 -149.453125 278.1953125 C-149.57322937 277.12010345 -149.69333374 276.04489441 -149.81707764 274.93710327 C-153.22670862 243.89178309 -155.10506187 212.50128093 -149.828125 181.5703125 C-149.69954102 180.7649707 -149.57095703 179.95962891 -149.43847656 179.12988281 C-147.47449315 167.19106254 -143.1845783 156.9514752 -137.99951172 146.07275391 C-136.10838165 142.03271988 -134.36644293 137.93314922 -132.640625 133.8203125 C-132.3096582 133.03495117 -131.97869141 132.24958984 -131.63769531 131.44042969 C-129.56241828 126.46681369 -127.66137315 121.44966337 -125.828125 116.3828125 C-122.10414927 106.1996871 -117.9209411 95.26978028 -110.3125 87.375 C-107.53436335 83.99737071 -105.76207902 79.98109146 -103.75 76.1171875 C-97.93629148 65.1601142 -90.77031041 54.82394113 -82.390625 45.6953125 C-79.43970609 42.47925279 -76.85853822 39.2726584 -74.453125 35.6328125 C-62.1535678 17.7678448 -23.34654842 -13.7956877 0 0 Z " fill="#FBFBFB" transform="translate(182.828125,11.4296875)"/>
<path d="M0 0 C3.63714323 2.32728428 7.04629319 5.09258638 9 9 C9.40964801 13.91577607 9.59394628 17.24058027 6.45703125 21.30859375 C5.97621094 21.86675781 5.49539062 22.42492187 5 23 C4.34386719 23.77472656 3.68773437 24.54945312 3.01171875 25.34765625 C-1.65928333 30.69631666 -6.55301088 35.4608424 -12 40 C-23.18162747 49.33621549 -31.92259495 58.08380398 -39.74072266 70.44580078 C-42.6482511 75.01590776 -45.69680177 79.31833337 -49.0625 83.5625 C-52.67925402 88.17816704 -56.03104148 92.8699833 -59.1875 97.8125 C-59.56720947 98.39136963 -59.94691895 98.97023926 -60.33813477 99.56665039 C-67.97962904 111.79402112 -72.47512378 125.64910631 -76.5625 139.375 C-76.79612244 140.14948486 -77.02974487 140.92396973 -77.27044678 141.72192383 C-80.34038727 151.91413673 -83.19977568 162.13299292 -85.625 172.5 C-85.86033447 173.49950684 -86.09566895 174.49901367 -86.33813477 175.52880859 C-89.02865096 187.65516572 -89.20171845 199.82289159 -89.1875 212.1875 C-89.18789276 212.91677704 -89.18828552 213.64605408 -89.18869019 214.39743042 C-89.18268357 223.71676301 -88.93400682 232.85877444 -87.52416992 242.08569336 C-87.02038249 245.84779112 -86.76775373 249.53416708 -86.58984375 253.32421875 C-86.0840602 262.38067257 -84.89836493 271.29224746 -83.5 280.25 C-83.30991867 281.4814122 -83.30991867 281.4814122 -83.11599731 282.73770142 C-80.8029432 297.45046094 -76.94697217 310.98431362 -71.98828125 325.03466797 C-70.5397537 329.38096629 -69.49025764 333.79497094 -68.4375 338.25 C-64.53122997 353.91186863 -56.88859112 365.30590263 -46 377 C-45.08269616 378.0099608 -44.16725361 379.02161604 -43.25390625 380.03515625 C-41.58183957 381.88537311 -39.89746629 383.72456529 -38.19921875 385.55078125 C-36 388 -36 388 -34.45703125 390.10546875 C-30.17814385 395.85271429 -24.62624317 398.75483141 -18.36328125 401.97290039 C-13.99684496 404.23678168 -9.91018384 406.70553552 -5.86843872 409.49842834 C2.12594684 415.01424361 10.33803382 419.38907243 19.16357422 423.42553711 C21.40070945 424.44926481 23.62841955 425.49164565 25.85546875 426.53710938 C36.05651907 431.29437658 45.73310552 434.94913565 56.8125 437 C63.4613837 438.27666927 70.03995447 439.66001745 76.58984375 441.38671875 C104.23039476 448.42005183 134.64508842 442.11679982 160.23803711 431.14477539 C164.09153842 429.54758033 168.02065425 428.30187975 172 427.0625 C192.45287524 420.37222782 211.9223806 408.37917179 227 393 C228.11777462 391.90158945 229.23766815 390.80533212 230.359375 389.7109375 C236.15529587 384.02864611 241.87019854 378.29934987 247 372 C247.76699219 371.071875 248.53398437 370.14375 249.32421875 369.1875 C254.29304674 363.04204736 258.48583686 356.7440212 262.24462891 349.79589844 C264.62585128 345.40503585 267.12151846 341.10880781 269.72265625 336.84375 C270.38563721 335.75610352 271.04861816 334.66845703 271.73168945 333.54785156 C273.04293907 331.40531378 274.3601589 329.2664143 275.68432617 327.13183594 C295.94310834 293.91688676 295.66582854 253.31316788 289 216 C288.82307617 214.93845703 288.64615234 213.87691406 288.46386719 212.78320312 C285.51471363 195.1044417 285.51471363 195.1044417 278 179 C277.14791289 177.55001118 276.29925507 176.09800431 275.453125 174.64453125 C266.07159298 158.70481146 255.18444889 143.59813943 239 134 C238.195625 133.46375 237.39125 132.9275 236.5625 132.375 C233.32429842 130.63742842 229.96752668 129.36437148 226.54296875 128.0390625 C224.27718492 127.11325835 222.15905816 126.08491022 220 124.9375 C216.2644147 123.00945598 212.4677997 121.85527556 208.43359375 120.70703125 C203.07720536 119.15084136 198.0499565 117.0431429 193 114.6875 C171.95052242 105.02400891 152.04111476 101.66027204 129 101 C127.57633436 100.95345893 126.15266901 100.90690908 124.72900391 100.86035156 C99.77605669 100.0917511 75.40183622 100.66190553 52.91796875 112.97119141 C50.69004169 114.16626328 48.42715041 115.27554917 46.15625 116.38671875 C34.78333103 121.90947266 34.78333103 121.90947266 25.5703125 130.40625 C22.69315038 133.32635484 19.54349884 133.94070922 15.5625 134.375 C11.22675288 133.91860557 9.28739254 132.83911174 6 130 C2.99453584 125.59198589 2.02010992 121.22608041 3 116 C9.03713746 101.81930951 23.56059232 94.50421872 37.078125 88.85546875 C39.26836155 87.92929854 39.26836155 87.92929854 42.1875 86.0625 C53.80504666 79.31852734 67.98010478 76.69771943 81 74 C81.89307861 73.80873535 82.78615723 73.6174707 83.70629883 73.42041016 C92.60222667 71.70716547 101.41986871 71.68940122 110.4375 71.75 C111.24214691 71.75276947 112.04679382 71.75553894 112.87582397 71.75839233 C142.14045575 71.87578172 168.71827704 73.85630279 196 85 C198.66596365 86.08507518 201.33251418 87.16867228 204 88.25 C205.1859375 88.73082031 206.371875 89.21164063 207.59375 89.70703125 C210.86781984 90.94982611 214.13570637 91.96985729 217.5 92.9375 C224.25069241 94.95287662 230.50567985 97.7682578 236.79541016 100.90478516 C238.36584132 101.68495727 239.9416601 102.4543241 241.52099609 103.21630859 C252.46998368 108.51214525 262.07436614 113.60960801 270.53710938 122.49609375 C272.15066264 124.15488683 273.82465528 125.73280229 275.515625 127.3125 C283.49088734 134.8491176 289.51356409 142.53396621 295 152 C295.86294429 153.44889412 296.72759999 154.89676998 297.59375 156.34375 C299.7415265 159.94397118 301.84884965 163.56594101 303.94433594 167.19677734 C304.80334817 168.66409102 305.69745091 170.11081816 306.6015625 171.55078125 C325.61499234 202.520509 326.24040194 263.38214789 318.4375 297.9375 C313.71153334 316.85841249 305.7246186 333.39475186 295.61328125 349.99072266 C293.46525494 353.52077761 291.38165015 357.075392 289.3671875 360.68359375 C279.27411794 378.70512085 266.73934433 393.48092629 252.03515625 407.92578125 C250.1389362 409.85839708 248.41366073 411.85362885 246.6875 413.9375 C239.07713249 422.73753416 229.74259944 429.0793613 219.78759766 434.92431641 C217.84636348 436.09245049 215.94423157 437.31089889 214.04296875 438.54296875 C206.26172993 443.57482412 198.74860321 447.82936528 190 451 C188.3566189 451.60896514 186.71340488 452.21838127 185.0703125 452.828125 C180.32958075 454.57740841 175.57512075 456.28618458 170.81640625 457.98583984 C168.17276949 458.93778741 165.53881795 459.91246805 162.90625 460.89453125 C130.0303916 473.00326325 96.2318614 475.56633033 62 468 C60.93604004 467.76974121 59.87208008 467.53948242 58.77587891 467.30224609 C42.56731276 463.74671099 27.55774521 459.78451564 13 451.61328125 C10.43390552 450.23333721 7.97531953 449.13318408 5.25 448.125 C-5.2503634 444.12731263 -15.27457972 438.4950377 -24.27734375 431.80859375 C-27.88804831 429.41009129 -31.70107494 427.52226453 -35.5625 425.5625 C-45.73997682 420.31708318 -52.44228477 413.95986958 -59.546875 404.9921875 C-62.26314801 401.67902648 -65.13245061 398.5602616 -68.0625 395.4375 C-81.55347642 380.90354861 -90.33169551 365.60977725 -95.9375 346.5 C-96.19909912 345.61997314 -96.46069824 344.73994629 -96.73022461 343.83325195 C-98.62118276 337.42354985 -100.34335005 330.98386405 -102.0078125 324.51171875 C-102.97664483 321.08266259 -104.17965164 317.83212625 -105.4375 314.5 C-111.67441116 296.21276049 -113.23834309 275.55373775 -114.79394531 256.40087891 C-115.15287611 252.21873978 -115.60423781 248.04724411 -116.0625 243.875 C-116.14201904 243.12178467 -116.22153809 242.36856934 -116.3034668 241.5925293 C-116.6363271 238.57504018 -117.03656208 235.89031377 -118 233 C-118.12100249 230.57243343 -118.1876411 228.17456487 -118.203125 225.74609375 C-118.21013931 225.02160034 -118.21715363 224.29710693 -118.22438049 223.55065918 C-118.24202103 221.17954395 -118.24824738 218.80867875 -118.25 216.4375 C-118.25067474 215.62822052 -118.25134949 214.81894104 -118.25204468 213.98513794 C-118.22555132 193.95096081 -116.74068134 174.40038929 -110.94140625 155.14111328 C-109.97694545 151.92307577 -109.03944491 148.69806642 -108.10546875 145.47108459 C-106.91199321 141.35327623 -105.70626959 137.23907521 -104.5 133.125 C-104.26684082 132.32685883 -104.03368164 131.52871765 -103.79345703 130.70639038 C-96.01355879 104.16635944 -84.6630338 82.08040337 -67.5 60.3515625 C-64.55102741 56.50619586 -62.01616408 52.41091757 -59.4375 48.3125 C-53.15443983 38.41599669 -46.17193975 30.70678706 -36.9609375 23.41796875 C-33.6440754 20.70934389 -30.50556127 17.85695584 -27.375 14.9375 C-26.82827637 14.42872314 -26.28155273 13.91994629 -25.71826172 13.39575195 C-24.64904669 12.39997114 -23.58018928 11.40380618 -22.51171875 10.40722656 C-20.31298147 8.36046918 -18.10133183 6.32920968 -15.875 4.3125 C-15.19179687 3.68988281 -14.50859375 3.06726562 -13.8046875 2.42578125 C-9.85240102 -0.69669616 -4.79871245 -0.9736518 0 0 Z " fill="#030303" transform="translate(175,35)"/>
<path d="M0 0 C4.76554935 3.83135978 8.91817329 9.11985872 9.89379883 15.28515625 C11.38475186 37.30538568 4.41129965 55.38185763 -4.76611328 74.89111328 C-9.89207178 85.82220148 -13.99482721 96.82586775 -17.53857422 108.37548828 C-33.19877957 159.389663 -33.19877957 159.389663 -52.53125 170.47265625 C-60.86473728 174.76842474 -69.5148536 176.13373483 -78.6640625 173.2421875 C-89.29880354 168.24896278 -96.82630234 160.36628672 -104.01953125 151.2734375 C-106.6986854 147.92449481 -109.48932485 144.69069557 -112.30078125 141.453125 C-117.66900446 135.23450706 -122.80912732 128.86504742 -127.81347656 122.34960938 C-129.04055733 120.76354616 -130.28215396 119.18870155 -131.53027344 117.61914062 C-139.04183064 108.06669606 -145.73548425 98.02872995 -152.42578125 87.890625 C-153.54773551 86.19762395 -154.67012953 84.50491425 -155.79296875 82.8125 C-157.97861862 79.51713809 -160.16149554 76.21996674 -162.34228516 72.92138672 C-164.32203695 69.928771 -166.30795169 66.94046358 -168.30224609 63.95751953 C-168.75100098 63.28627045 -169.19975586 62.61502136 -169.66210938 61.9234314 C-170.48231244 60.69773578 -171.3033499 59.4725978 -172.12548828 58.24819946 C-184.84919527 39.23313332 -184.84919527 39.23313332 -183.42578125 30.265625 C-182.32284665 25.75361981 -180.2247479 23.86004125 -176.42578125 21.265625 C-173.67499241 20.34869539 -172.06629212 20.15676417 -169.23828125 20.203125 C-167.35109375 20.2340625 -167.35109375 20.2340625 -165.42578125 20.265625 C-165.42578125 20.925625 -165.42578125 21.585625 -165.42578125 22.265625 C-164.34296875 22.575 -164.34296875 22.575 -163.23828125 22.890625 C-157.95146167 25.47529235 -155.58925013 29.83935313 -152.98828125 34.890625 C-149.50034544 41.51499922 -145.15189326 47.47198751 -140.81835938 53.56445312 C-136.62093836 59.49048469 -132.64376445 65.49990467 -128.88574219 71.71362305 C-118.86433406 88.20096682 -106.77379959 103.73597908 -94.06640625 118.2265625 C-91.70260253 120.92346302 -89.4554227 123.69618922 -87.23828125 126.515625 C-79.25899344 136.84570907 -79.25899344 136.84570907 -69.42578125 145.265625 C-66.73912 145.22582261 -65.77212934 144.575689 -63.78515625 142.796875 C-53.52108979 129.84222801 -48.74224955 113.97404226 -44.23828125 98.328125 C-38.45825922 78.39148355 -38.45825922 78.39148355 -33.42578125 69.265625 C-32.6858666 67.50775324 -31.96749698 65.74004328 -31.30078125 63.953125 C-30.35400371 61.41860991 -29.41004906 59.24046196 -27.97265625 56.94140625 C-26.09291866 53.68983997 -24.94196048 50.32300471 -23.80078125 46.765625 C-23.58421875 46.11464844 -23.36765625 45.46367187 -23.14453125 44.79296875 C-22.00500835 41.31109322 -21.05070529 37.87629725 -20.42578125 34.265625 C-19.76578125 34.265625 -19.10578125 34.265625 -18.42578125 34.265625 C-18.42578125 31.625625 -18.42578125 28.985625 -18.42578125 26.265625 C-19.616875 26.58015625 -20.80796875 26.8946875 -22.03515625 27.21875 C-32.06081664 29.77832155 -41.97230858 31.71496894 -52.23828125 33.015625 C-68.85338258 35.15306763 -85.07749495 39.02166417 -101.36244202 42.88230896 C-121.14361014 47.53779743 -121.14361014 47.53779743 -128.48828125 43.640625 C-132.57297368 38.63358266 -134.01604518 34.75852826 -133.42578125 28.265625 C-132.26753119 23.73792023 -130.39778505 21.69746406 -126.42578125 19.265625 C-119.05163361 16.51075475 -111.07692526 15.36955698 -103.36889648 13.88671875 C-98.29440993 12.89484703 -93.30586722 11.74614889 -88.31274414 10.40576172 C-78.27279447 7.71324377 -68.2651204 6.15291614 -57.96484375 4.79174805 C-46.2629575 3.2047118 -34.77870015 0.77635621 -23.37402344 -2.28515625 C-16.06447686 -3.97056549 -6.50563807 -4.00781174 0 0 Z " fill="#030303" transform="translate(366.42578125,241.734375)"/>
<path d="M0 0 C0.33 0 0.66 0 1 0 C1.0276368 2.70840644 1.04713583 5.41651605 1.0625 8.125 C1.07087891 8.86621094 1.07925781 9.60742188 1.08789062 10.37109375 C1.14092154 22.99245189 -0.29802205 34.8523087 -3.25 47.125 C-3.68119141 49.02572266 -3.68119141 49.02572266 -4.12109375 50.96484375 C-6.02617302 59.04271264 -8.62468045 66.43068114 -12 74 C-12.77694759 75.91419633 -13.54849289 77.8306021 -14.3125 79.75 C-23.77547749 102.40200237 -36.45598636 122.56103964 -52.4921875 141.09765625 C-54.24521312 143.12646939 -55.97210303 145.1644171 -57.6796875 147.23046875 C-59.99188238 149.99031079 -62.45441523 152.45441523 -65 155 C-66.48370369 156.66262899 -67.96241513 158.32971965 -69.4375 160 C-72.76611161 163.72605777 -76.09959283 166.89740338 -80 170 C-81.11375 171.1446875 -81.11375 171.1446875 -82.25 172.3125 C-89.49154047 179.38946 -97.40280352 184.55653504 -106.25 189.37109375 C-110.89438825 191.90849121 -115.43182454 194.61360702 -119.97900391 197.3203125 C-132.47999574 204.7398054 -144.46954594 210.59453695 -158.34765625 215.0078125 C-160.81168161 215.92955395 -162.66178564 216.94818812 -164.8125 218.4375 C-194.4534757 238.05814586 -251.23797433 238.7519857 -285 233 C-287.89471032 232.34466001 -290.70470743 231.59131355 -293.5390625 230.71484375 C-296.14226798 229.95867454 -298.70000312 229.49555823 -301.375 229.0625 C-305.29914183 228.38768952 -309.01766393 227.45668546 -312.81640625 226.265625 C-313.95529297 225.90863525 -315.09417969 225.55164551 -316.26757812 225.18383789 C-317.49927734 224.79317139 -318.73097656 224.40250488 -320 224 C-320.64404785 223.79720428 -321.2880957 223.59440857 -321.95166016 223.38546753 C-326.11547964 222.07385168 -330.27097476 220.73874208 -334.4206543 219.38305664 C-335.84860331 218.91933537 -337.27831128 218.46099599 -338.7097168 218.00805664 C-352.07718401 213.7728648 -363.06434568 207.8800802 -374 199 C-377.9591528 195.9308893 -381.97203512 192.98412374 -386.15234375 190.22265625 C-390.98079092 187.01801774 -395.77681703 183.76808196 -400.5625 180.5 C-401.36107422 179.95730469 -402.15964844 179.41460937 -402.98242188 178.85546875 C-412.02557287 172.67929879 -420.63164724 166.06490514 -429 159 C-429.51755859 158.57509277 -430.03511719 158.15018555 -430.56835938 157.71240234 C-450.22385666 141.46250127 -460.37935519 118.55853303 -468.0625 94.75 C-468.29582031 94.03706787 -468.52914062 93.32413574 -468.76953125 92.58959961 C-473.78557156 76.67934676 -476.68626548 60.10002771 -479.9465332 43.76831055 C-480.69114806 40.04425488 -481.44400673 36.32192505 -482.19726562 32.59960938 C-482.67758289 30.20322507 -483.15741775 27.80674402 -483.63671875 25.41015625 C-483.85962082 24.31204117 -484.08252289 23.21392609 -484.31217957 22.08253479 C-485.57067916 15.73352862 -486.4999775 9.45440134 -487 3 C-486.34 3 -485.68 3 -485 3 C-484.89390915 3.53489548 -484.7878183 4.06979095 -484.67851257 4.62089539 C-483.56128145 10.25173277 -482.44121001 15.88200011 -481.31958008 21.51196289 C-480.90285423 23.60557165 -480.48682249 25.6993187 -480.0715332 27.79321289 C-477.0457928 43.05848937 -477.0457928 43.05848937 -473.62084961 58.23754883 C-472.99472499 61.02347098 -472.51448252 63.80730711 -472.0546875 66.625 C-471.04980236 72.34352161 -469.192762 77.5884593 -467.125 83 C-466.44010417 84.83333333 -465.75520833 86.66666667 -465.0703125 88.5 C-464.7312085 89.39920166 -464.39210449 90.29840332 -464.04272461 91.22485352 C-462.95755807 94.11295655 -461.88600845 97.00556488 -460.82421875 99.90234375 C-460.34601685 101.20546509 -460.34601685 101.20546509 -459.8581543 102.53491211 C-459.04862837 104.86031275 -458.35057351 107.19186063 -457.6875 109.5625 C-456.19944157 114.09102377 -453.71646066 117.56527212 -450.90234375 121.37890625 C-448.30527953 124.95720212 -446.00170038 128.69892325 -443.67578125 132.45703125 C-439.81706677 138.31256302 -435.29818339 142.50585402 -430 147 C-428.57300781 148.25876953 -428.57300781 148.25876953 -427.1171875 149.54296875 C-420.28460272 155.52616066 -413.19445027 160.71343987 -405.578125 165.65234375 C-401.42294364 168.35055657 -397.44734766 171.27472013 -393.4609375 174.21484375 C-391.25851784 175.81247198 -389.02824909 177.32613303 -386.75 178.8125 C-382.58302687 181.55058288 -378.57547115 184.48114882 -374.5625 187.4375 C-373.90362793 187.91848145 -373.24475586 188.39946289 -372.56591797 188.89501953 C-369.85079386 190.87979893 -367.16452473 192.86670086 -364.55078125 194.984375 C-349.83402291 206.50413557 -328.69817359 210.36996815 -311 215 C-310.20126465 215.21140625 -309.4025293 215.4228125 -308.57958984 215.640625 C-293.69667196 219.56433348 -278.70456999 223.1168848 -263.25 223.203125 C-262.02543091 223.21167511 -262.02543091 223.21167511 -260.77612305 223.22039795 C-259.05502595 223.22979008 -257.33391133 223.23635871 -255.61279297 223.24023438 C-253.03449371 223.24987108 -250.45701683 223.28092123 -247.87890625 223.3125 C-238.42110428 223.37155483 -229.63673174 222.7222483 -220.38891602 220.69628906 C-217.21188698 220.04353445 -214.17088983 219.69658046 -210.9375 219.5 C-207.15847841 219.22607684 -204.49185035 218.46250126 -201.06640625 216.75390625 C-198.13362985 215.68391411 -195.21798152 215.39365219 -192.125 215 C-186.38799716 214.25564204 -181.35726851 213.14654562 -176 211 C-174.96230469 210.59265625 -173.92460937 210.1853125 -172.85546875 209.765625 C-166.96931816 207.61153864 -166.96931816 207.61153864 -162 204 C-160.14043168 203.40751924 -158.26131742 202.87583366 -156.375 202.375 C-148.74837323 200.12340985 -141.9339578 196.69529733 -134.91870117 192.99487305 C-132.97299055 191.98599523 -131.00496144 191.03474931 -129.03125 190.08203125 C-124.73296792 187.94150034 -120.79802694 185.35517569 -116.8125 182.6875 C-111.6703836 179.29000009 -106.54420016 176.13128895 -101.0625 173.3125 C-86.80374828 165.78655812 -75.03220888 153.24835636 -64.71484375 140.98828125 C-62.940127 138.93058006 -61.08292912 136.96341541 -59.21484375 134.99072266 C-49.21222677 124.35771791 -40.44295901 112.55621134 -33 100 C-32.53529297 99.22430664 -32.07058594 98.44861328 -31.59179688 97.64941406 C-29.96344637 94.92036319 -28.35451811 92.18062356 -26.75 89.4375 C-25.96979492 88.12519409 -25.96979492 88.12519409 -25.17382812 86.78637695 C-22.25431813 81.72706355 -20.21285892 76.9665309 -18.68457031 71.33276367 C-17.66070348 67.84380234 -16.11519368 64.6845524 -14.5 61.4375 C-10.57350934 53.25074137 -8.01039641 45.7553043 -6.53515625 36.8046875 C-6.00748904 34.03924911 -5.26352624 31.43957336 -4.4375 28.75 C-2.79454544 23.02430335 -2.5403277 17.41189884 -2.25 11.484375 C-1.95838579 7.4200019 -1.18905946 3.88426089 0 0 Z " fill="#060606" transform="translate(523,305)"/>
<path d="M0 0 C3.74025433 2.22098891 6.18313914 3.85036662 7.76953125 8.0234375 C8.47687825 12.74520837 7.8872463 17.10641875 6.4140625 21.6171875 C4.69192013 27.15523749 3.35354831 32.72782651 2.14453125 38.3984375 C1.92289307 39.43339355 1.70125488 40.46834961 1.47290039 41.53466797 C-0.08313373 49.23765552 -0.82629259 56.74460024 -0.77783203 64.60302734 C-0.82161592 69.89863219 -1.74508617 72.79118722 -5.23046875 77.0234375 C-8.98697418 80.4134546 -11.49779101 81.895091 -16.60546875 82.2734375 C-20.57122399 81.99993714 -22.16995891 81.50493197 -25.23046875 79.0234375 C-31.12062058 71.16990173 -31.06736578 63.77883099 -29.89794922 54.33935547 C-28.02919236 41.41829851 -25.49653939 28.66051251 -22.23046875 16.0234375 C-21.99714844 15.01667969 -21.76382813 14.00992187 -21.5234375 12.97265625 C-20.01501836 7.01837019 -18.02606631 3.91986052 -13.23046875 0.0234375 C-8.6240032 -1.51205102 -4.47946087 -1.96123506 0 0 Z " fill="#040404" transform="translate(152.23046875,248.9765625)"/>
<path d="M0 0 C5.86989368 2.23121494 10.12817087 5.50558297 14.4375 10 C14.9938916 10.56960449 15.5502832 11.13920898 16.12353516 11.72607422 C25.60984636 21.62281134 38.55448027 35.29851553 38.4140625 49.64453125 C37.67902275 53.82593664 35.17567287 56.33848369 32 59 C28.06995159 61.31772086 24.50803192 61.47452968 20 61 C14.20884642 57.99366344 11.56964011 53.83053418 8.1875 48.375 C2.16967871 39.02330946 -3.59443042 31.1991254 -13 25 C-16.24380796 21.69612152 -18.30203516 18.64366406 -18.5 13.9375 C-17.83196781 8.67674651 -16.3953384 5.60675331 -12.9375 1.625 C-8.68104399 -0.72963524 -4.75382819 -0.90422466 0 0 Z " fill="#030303" transform="translate(400,197)"/>
<path d="M0 0 C0.33 0 0.66 0 1 0 C4.25491959 16.27459796 -3.40364245 28.15450215 -11 42 C-11.99 42 -12.98 42 -14 42 C-15.60366946 34.15459745 -14.26017574 30.16819387 -10.25 23.375 C-9.33622713 21.75911917 -8.42472548 20.14195164 -7.515625 18.5234375 C-6.86267456 17.37258667 -6.86267456 17.37258667 -6.1965332 16.19848633 C-3.91819185 12.01230721 -2.03726431 7.67891932 -0.8125 3.0625 C-0.544375 2.051875 -0.27625 1.04125 0 0 Z " fill="#151515" transform="translate(203,53)"/>
<path d="M0 0 C0.66 0 1.32 0 2 0 C2.10609085 0.53489548 2.2121817 1.06979095 2.32148743 1.62089539 C3.43871855 7.25173277 4.55878999 12.88200011 5.68041992 18.51196289 C6.09714577 20.60557165 6.51317751 22.6993187 6.9284668 24.79321289 C9.95349751 40.05963827 9.95349751 40.05963827 13.38037109 55.23925781 C14.00353145 58.01573427 14.47407836 60.78870603 14.92578125 63.59765625 C16.13805452 70.52331692 18.77318641 76.85026469 21.34179688 83.36523438 C21.69693359 84.29529297 22.05207031 85.22535156 22.41796875 86.18359375 C22.90946411 87.42967407 22.90946411 87.42967407 23.41088867 88.70092773 C24.05864405 91.2288649 23.85748896 92.56736009 23 95 C20.96564469 91.27034861 20 89.33094958 20 85 C18.515 84.505 18.515 84.505 17 84 C12.24547759 73.74297662 11.01084691 61.40912965 9 50.375 C8.33669909 46.77801764 7.66895591 43.18187199 7 39.5859375 C6.83735657 38.70688248 6.67471313 37.82782745 6.50714111 36.9221344 C5.2145681 29.99348195 3.79244011 23.09684331 2.28466797 16.21188354 C1.11591459 10.81499734 0.36184957 5.5182059 0 0 Z " fill="#090909" transform="translate(36,308)"/>
<path d="M0 0 C0.66 0 1.32 0 2 0 C3.02633611 4.90906037 4.04123701 9.82029471 5.0456543 14.73388672 C5.38887968 16.40477987 5.73521059 18.07503824 6.0847168 19.74462891 C6.58681721 22.14585448 7.07767171 24.54914813 7.56640625 26.953125 C7.72468399 27.69806213 7.88296173 28.44299927 8.04603577 29.21051025 C9.32984732 35.6233442 9.32984732 35.6233442 8 39 C6.26346365 35.88021469 5.44524396 32.98647649 4.74609375 29.4921875 C4.53146484 28.42226563 4.31683594 27.35234375 4.09570312 26.25 C3.87849609 25.13625 3.66128906 24.0225 3.4375 22.875 C3.21642578 21.78445313 2.99535156 20.69390625 2.76757812 19.5703125 C1.47883468 13.06040603 0.50755388 6.61775751 0 0 Z " fill="#3E3E3E" transform="translate(36,308)"/>
<path d="M0 0 C0 0.33 0 0.66 0 1 C-1.39412109 1.16435547 -1.39412109 1.16435547 -2.81640625 1.33203125 C-4.67072266 1.56986328 -4.67072266 1.56986328 -6.5625 1.8125 C-7.78066406 1.96332031 -8.99882812 2.11414063 -10.25390625 2.26953125 C-14.02671779 2.86148893 -14.02671779 2.86148893 -17.40234375 4.50390625 C-21.6602745 6.27457669 -25.44330711 6.73508165 -30 7.125 C-31.5417614 7.27245033 -33.08342998 7.42087459 -34.625 7.5703125 C-35.72521484 7.67327637 -35.72521484 7.67327637 -36.84765625 7.77832031 C-39.91419576 8.09415719 -42.95230818 8.53798289 -46 9 C-45.67 8.34 -45.34 7.68 -45 7 C-43.15820312 6.51342773 -43.15820312 6.51342773 -40.78125 6.18359375 C-39.50701172 5.99700195 -39.50701172 5.99700195 -38.20703125 5.80664062 C-37.31371094 5.68482422 -36.42039062 5.56300781 -35.5 5.4375 C-33.73907972 5.18975148 -31.97862965 4.93862942 -30.21875 4.68359375 C-29.43435547 4.57587646 -28.64996094 4.46815918 -27.84179688 4.35717773 C-25.98971049 4.17622831 -25.98971049 4.17622831 -25 3 C-23.60875265 2.81547667 -22.21122736 2.67730342 -20.8125 2.5625 C-17.94687358 2.28314648 -15.79341379 1.92527733 -13.0625 0.9375 C-8.70676884 -0.39588709 -4.52052477 -0.16080918 0 0 Z " fill="#9B9B9B" transform="translate(338,519)"/>
<path d="M0 0 C0.66 0.33 1.32 0.66 2 1 C-3.61 6.61 -9.22 12.22 -15 18 C-15.66 17.67 -16.32 17.34 -17 17 C-11.83794309 10.72690435 -6.12627407 5.3250511 0 0 Z " fill="#D5D5D5" transform="translate(159,77)"/>
<path d="M0 0 C0.66 0.33 1.32 0.66 2 1 C-3.94 6.94 -9.88 12.88 -16 19 C-16 13.49581073 -10.69222469 9.76817235 -7 6 C-4.72454022 3.90179524 -2.40856363 1.94734932 0 0 Z " fill="#292929" transform="translate(137,59)"/>
<path d="M0 0 C3.07389771 2.23556197 3.84390451 4.97795716 4.66015625 8.59375 C5.28945592 13.04948101 5.14849182 17.51224708 5 22 C4.67 22 4.34 22 4 22 C3.32838005 18.89688362 2.66356325 15.79234832 2 12.6875 C1.80921875 11.80642578 1.6184375 10.92535156 1.421875 10.01757812 C1.24140625 9.17001953 1.0609375 8.32246094 0.875 7.44921875 C0.70742188 6.66893311 0.53984375 5.88864746 0.3671875 5.0847168 C0 3 0 3 0 0 Z " fill="#1C1C1C" transform="translate(43,345)"/>
<path d="M0 0 C0.33 0 0.66 0 1 0 C1.20496094 1.18078125 1.40992188 2.3615625 1.62109375 3.578125 C1.89315305 5.13542997 2.16529268 6.6927209 2.4375 8.25 C2.57220703 9.02730469 2.70691406 9.80460937 2.84570312 10.60546875 C2.97783203 11.35957031 3.10996094 12.11367188 3.24609375 12.890625 C3.36654053 13.58188477 3.4869873 14.27314453 3.61108398 14.98535156 C4.00244416 17.01266117 4.48089751 19.00194515 5 21 C3.0625 20.375 3.0625 20.375 1 19 C-0.01400679 14.69047115 -0.10752417 10.53736864 -0.0625 6.125 C-0.05347656 4.97257812 -0.04445312 3.82015625 -0.03515625 2.6328125 C-0.02355469 1.76398438 -0.01195312 0.89515625 0 0 Z " fill="#424242" transform="translate(48,360)"/>
<path d="M0 0 C2.02196167 2.02196167 2.67551358 3.25864486 3.6875 5.875 C3.95949219 6.55304688 4.23148438 7.23109375 4.51171875 7.9296875 C5.07336741 10.31107782 4.76694846 11.70430191 4 14 C3.32471777 12.42032193 2.66010306 10.83608097 2 9.25 C1.62875 8.36828125 1.2575 7.4865625 0.875 6.578125 C0 4 0 4 0 0 Z " fill="#3F3F3F" transform="translate(55,389)"/>
<path d="M0 0 C0.66 0.33 1.32 0.66 2 1 C1.0479279 2.00596297 0.08812654 3.00461563 -0.875 4 C-1.40867188 4.556875 -1.94234375 5.11375 -2.4921875 5.6875 C-4 7 -4 7 -6 7 C-4.60667426 3.63279613 -3.0210714 2.0140476 0 0 Z " fill="#3B3B3B" transform="translate(240,261)"/>
<path d="M0 0 C-1.49097658 3.7952131 -3.75700849 5.61042731 -7 8 C-4.18918919 0 -4.18918919 0 0 0 Z " fill="#373737" transform="translate(390,198)"/>
</svg>
